G04*
G04 #@! TF.GenerationSoftware,Altium Limited,Altium Designer,22.0.2 (36)*
G04*
G04 Layer_Physical_Order=2*
G04 Layer_Color=16711680*
%FSLAX25Y25*%
%MOIN*%
G70*
G04*
G04 #@! TF.SameCoordinates,EECF79FC-5A36-4EFC-AF15-45E6CBE4EAF3*
G04*
G04*
G04 #@! TF.FilePolarity,Positive*
G04*
G01*
G75*
%ADD19C,0.04724*%
%ADD20R,0.04724X0.04724*%
%ADD30R,0.04724X0.04724*%
%ADD31C,0.04528*%
%ADD32R,0.04528X0.04528*%
%ADD33R,0.11237X0.11237*%
%ADD34C,0.11237*%
%ADD36C,0.08071*%
%ADD37R,0.08071X0.08071*%
%ADD44R,0.08071X0.08071*%
%ADD46R,0.05118X0.05118*%
%ADD47C,0.05118*%
%ADD52C,0.02500*%
%ADD53C,0.06000*%
%ADD54R,0.05512X0.05512*%
%ADD55C,0.05512*%
%ADD56C,0.06299*%
%ADD57C,0.04921*%
%ADD58R,0.04921X0.04921*%
%ADD59R,0.04921X0.04921*%
%ADD60R,0.05906X0.05906*%
%ADD61C,0.05906*%
%ADD62R,0.06299X0.06299*%
%ADD63R,0.05906X0.05906*%
%ADD64C,0.07874*%
%ADD65R,0.07874X0.07874*%
%ADD66R,0.05512X0.05512*%
%ADD67C,0.06102*%
%ADD68R,0.06299X0.06299*%
%ADD69C,0.06693*%
%ADD70R,0.06693X0.06693*%
%ADD71R,0.07874X0.07874*%
%ADD72C,0.05000*%
%ADD73C,0.01500*%
G36*
X607500Y123000D02*
X124500D01*
Y493500D01*
X607500D01*
Y123000D01*
D02*
G37*
%LPC*%
G36*
X269961Y491000D02*
X269039D01*
X268149Y490762D01*
X267351Y490301D01*
X266844Y489794D01*
X237500D01*
X236622Y489619D01*
X235878Y489122D01*
X221791Y475035D01*
X218209D01*
X207122Y486122D01*
X206378Y486619D01*
X205500Y486794D01*
X172000D01*
X171122Y486619D01*
X170378Y486122D01*
X158905Y474650D01*
X153850D01*
Y466350D01*
X162150D01*
Y471405D01*
X172950Y482206D01*
X204550D01*
X214965Y471791D01*
Y464965D01*
X225035D01*
Y467528D01*
X225535Y467662D01*
X225971Y466908D01*
X226640Y466239D01*
Y464384D01*
X223050Y460794D01*
X216950D01*
X197122Y480622D01*
X196378Y481119D01*
X195500Y481294D01*
X176500D01*
X175622Y481119D01*
X174878Y480622D01*
X168829Y474574D01*
X168546Y474650D01*
X167454D01*
X166398Y474367D01*
X165452Y473820D01*
X164680Y473048D01*
X164133Y472102D01*
X163850Y471046D01*
Y469954D01*
X164133Y468898D01*
X164680Y467952D01*
X165452Y467179D01*
X166398Y466633D01*
X167454Y466350D01*
X168546D01*
X169602Y466633D01*
X170548Y467179D01*
X171320Y467952D01*
X171867Y468898D01*
X172150Y469954D01*
Y471046D01*
X172074Y471329D01*
X177450Y476706D01*
X194550D01*
X214378Y456878D01*
X215122Y456381D01*
X216000Y456206D01*
X224000D01*
X224878Y456381D01*
X225622Y456878D01*
X230556Y461812D01*
X231053Y462556D01*
X231228Y463434D01*
Y465116D01*
X231944Y465308D01*
X233092Y465971D01*
X234029Y466908D01*
X234692Y468056D01*
X234750Y468272D01*
X235250D01*
X235308Y468056D01*
X235971Y466908D01*
X236908Y465971D01*
X237706Y465510D01*
Y456950D01*
X235756Y455000D01*
X235039D01*
X234149Y454762D01*
X233351Y454301D01*
X232699Y453649D01*
X232239Y452851D01*
X232000Y451961D01*
Y451039D01*
X232239Y450149D01*
X232699Y449351D01*
X233351Y448699D01*
X234149Y448239D01*
X235039Y448000D01*
X235961D01*
X236851Y448239D01*
X237649Y448699D01*
X238301Y449351D01*
X238761Y450149D01*
X239000Y451039D01*
Y451756D01*
X241622Y454378D01*
X242120Y455122D01*
X242294Y456000D01*
Y465510D01*
X243092Y465971D01*
X244029Y466908D01*
X244692Y468056D01*
X245035Y469337D01*
Y470663D01*
X244692Y471944D01*
X244029Y473092D01*
X243092Y474029D01*
X241944Y474692D01*
X240663Y475035D01*
X239337D01*
X238056Y474692D01*
X237080Y474128D01*
X236773Y474529D01*
X242450Y480206D01*
X260550D01*
X281206Y459550D01*
Y443000D01*
X281381Y442122D01*
X281878Y441378D01*
X301087Y422169D01*
X301047Y422020D01*
Y420980D01*
X301317Y419974D01*
X301837Y419073D01*
X302573Y418337D01*
X303474Y417817D01*
X304480Y417547D01*
X305520D01*
X306526Y417817D01*
X307427Y418337D01*
X308163Y419073D01*
X308683Y419974D01*
X308953Y420980D01*
Y422020D01*
X308683Y423026D01*
X308163Y423927D01*
X307427Y424663D01*
X306526Y425183D01*
X305520Y425453D01*
X304480D01*
X304331Y425413D01*
X285794Y443950D01*
Y460500D01*
X285619Y461378D01*
X285122Y462122D01*
X263122Y484122D01*
X262378Y484619D01*
X261943Y484706D01*
X261993Y485206D01*
X266844D01*
X267351Y484699D01*
X268149Y484238D01*
X269039Y484000D01*
X269961D01*
X270851Y484238D01*
X271649Y484699D01*
X272301Y485351D01*
X272762Y486149D01*
X273000Y487039D01*
Y487961D01*
X272762Y488851D01*
X272301Y489649D01*
X271649Y490301D01*
X270851Y490762D01*
X269961Y491000D01*
D02*
G37*
G36*
X291961Y455500D02*
X291039D01*
X290149Y455262D01*
X289351Y454801D01*
X288699Y454149D01*
X288239Y453351D01*
X288000Y452461D01*
Y451539D01*
X288239Y450649D01*
X288699Y449851D01*
X289351Y449199D01*
X290149Y448738D01*
X291039Y448500D01*
X291961D01*
X292851Y448738D01*
X293649Y449199D01*
X293677Y449228D01*
X294028D01*
X301087Y442169D01*
X301047Y442020D01*
Y440980D01*
X301317Y439974D01*
X301837Y439073D01*
X302573Y438337D01*
X303474Y437817D01*
X304480Y437547D01*
X305520D01*
X306526Y437817D01*
X307427Y438337D01*
X308163Y439073D01*
X308240Y439206D01*
X319000D01*
X319077Y438720D01*
X318351Y438301D01*
X317699Y437649D01*
X317238Y436851D01*
X317000Y435961D01*
Y435039D01*
X317238Y434149D01*
X317699Y433351D01*
X318351Y432699D01*
X319149Y432238D01*
X320039Y432000D01*
X320961D01*
X321851Y432238D01*
X322649Y432699D01*
X323156Y433206D01*
X336367D01*
X336479Y433012D01*
X337233Y432258D01*
X338157Y431725D01*
X339187Y431449D01*
X340254D01*
X341284Y431725D01*
X342208Y432258D01*
X342962Y433012D01*
X343495Y433936D01*
X343772Y434967D01*
Y436033D01*
X343495Y437064D01*
X342962Y437988D01*
X342208Y438742D01*
X341284Y439275D01*
X340254Y439551D01*
X339187D01*
X338157Y439275D01*
X337233Y438742D01*
X336479Y437988D01*
X336367Y437794D01*
X323156D01*
X322649Y438301D01*
X321851Y438762D01*
X320961Y439000D01*
X320208D01*
X320057Y439500D01*
X320622Y439878D01*
X324950Y444206D01*
X377487D01*
X377495Y444194D01*
X378194Y443495D01*
X379050Y443000D01*
X380006Y442744D01*
X380995D01*
X381950Y443000D01*
X382806Y443495D01*
X383506Y444194D01*
X384000Y445050D01*
X384256Y446005D01*
Y446994D01*
X384000Y447950D01*
X383506Y448806D01*
X382806Y449506D01*
X381950Y450000D01*
X380995Y450256D01*
X380006D01*
X379050Y450000D01*
X378194Y449506D01*
X377495Y448806D01*
X377487Y448794D01*
X324000D01*
X323122Y448620D01*
X322378Y448122D01*
X318050Y443794D01*
X308240D01*
X308163Y443927D01*
X307427Y444663D01*
X306526Y445183D01*
X305520Y445453D01*
X304480D01*
X304331Y445413D01*
X296601Y453144D01*
X295856Y453641D01*
X294978Y453816D01*
X294493D01*
X294301Y454149D01*
X293649Y454801D01*
X292851Y455262D01*
X291961Y455500D01*
D02*
G37*
G36*
X278953Y445453D02*
X271047D01*
Y443794D01*
X264000D01*
X263122Y443619D01*
X262378Y443122D01*
X252756Y433500D01*
X252039D01*
X251149Y433261D01*
X250351Y432801D01*
X249699Y432149D01*
X249238Y431351D01*
X249000Y430461D01*
Y429539D01*
X249238Y428649D01*
X249699Y427851D01*
X250351Y427199D01*
X251149Y426739D01*
X252039Y426500D01*
X252961D01*
X253851Y426739D01*
X254649Y427199D01*
X255301Y427851D01*
X255762Y428649D01*
X256000Y429539D01*
Y430256D01*
X264950Y439206D01*
X271047D01*
Y437547D01*
X278953D01*
Y445453D01*
D02*
G37*
G36*
X178546Y474650D02*
X177454D01*
X176398Y474367D01*
X175452Y473820D01*
X174680Y473048D01*
X174133Y472102D01*
X173850Y471046D01*
Y469954D01*
X174133Y468898D01*
X174680Y467952D01*
X175452Y467179D01*
X176398Y466633D01*
X177454Y466350D01*
X178546D01*
X178829Y466426D01*
X199378Y445878D01*
X200122Y445381D01*
X201000Y445206D01*
X218550D01*
X230602Y433154D01*
X230568Y432884D01*
X230041Y432703D01*
X222122Y440622D01*
X221378Y441119D01*
X220500Y441294D01*
X182500D01*
X181622Y441119D01*
X180878Y440622D01*
X168913Y428658D01*
X168416Y427913D01*
X168242Y427036D01*
Y409247D01*
X168416Y408369D01*
X168913Y407625D01*
X192818Y383720D01*
X193562Y383223D01*
X194440Y383048D01*
X224708D01*
X243087Y364669D01*
X243047Y364520D01*
Y363480D01*
X243087Y363331D01*
X235378Y355622D01*
X234880Y354878D01*
X234706Y354000D01*
Y325000D01*
X234880Y324122D01*
X235378Y323378D01*
X248694Y310062D01*
Y309345D01*
X248933Y308455D01*
X249394Y307657D01*
X250045Y307005D01*
X250843Y306544D01*
X251733Y306306D01*
X252655D01*
X253545Y306544D01*
X254343Y307005D01*
X254995Y307657D01*
X255456Y308455D01*
X255694Y309345D01*
Y310267D01*
X255456Y311157D01*
X254995Y311955D01*
X254343Y312607D01*
X253545Y313067D01*
X252655Y313306D01*
X251939D01*
X239294Y325950D01*
Y353050D01*
X246331Y360087D01*
X246480Y360047D01*
X247520D01*
X248526Y360317D01*
X249427Y360837D01*
X250163Y361573D01*
X250683Y362474D01*
X250953Y363480D01*
Y364520D01*
X250913Y364669D01*
X265450Y379206D01*
X271760D01*
X271837Y379073D01*
X272573Y378337D01*
X273474Y377817D01*
X274480Y377547D01*
X275520D01*
X275669Y377587D01*
X283378Y369878D01*
X284122Y369380D01*
X285000Y369206D01*
X355500D01*
X356378Y369380D01*
X357122Y369878D01*
X367992Y380748D01*
X368005Y380744D01*
X368994D01*
X369950Y381000D01*
X370806Y381494D01*
X371505Y382194D01*
X371513Y382206D01*
X397500D01*
X398378Y382381D01*
X399122Y382878D01*
X402831Y386587D01*
X402980Y386547D01*
X404020D01*
X404169Y386587D01*
X415207Y375549D01*
X415951Y375052D01*
X416829Y374877D01*
X447378D01*
X460878Y361378D01*
X461622Y360880D01*
X462500Y360706D01*
X493000D01*
X493878Y360880D01*
X494622Y361378D01*
X500122Y366878D01*
X500619Y367622D01*
X500794Y368500D01*
Y378000D01*
X500620Y378878D01*
X500122Y379622D01*
X492825Y386919D01*
X492081Y387417D01*
X491203Y387591D01*
X436835D01*
X436738Y387825D01*
X436674Y388091D01*
X437183Y388974D01*
X437453Y389980D01*
Y391020D01*
X437183Y392026D01*
X436663Y392927D01*
X435927Y393663D01*
X435026Y394183D01*
X434020Y394453D01*
X432980D01*
X431974Y394183D01*
X431073Y393663D01*
X430337Y392927D01*
X429817Y392026D01*
X429547Y391020D01*
Y389980D01*
X429817Y388974D01*
X430326Y388091D01*
X430262Y387825D01*
X430165Y387591D01*
X428153D01*
X415544Y400200D01*
Y401340D01*
X416044Y401588D01*
X416649Y401238D01*
X417539Y401000D01*
X418256D01*
X420378Y398878D01*
X421122Y398380D01*
X422000Y398206D01*
X430260D01*
X430337Y398073D01*
X431073Y397337D01*
X431974Y396817D01*
X432980Y396547D01*
X434020D01*
X435026Y396817D01*
X435927Y397337D01*
X436663Y398073D01*
X437028Y398706D01*
X507987D01*
X507995Y398694D01*
X508694Y397994D01*
X509550Y397500D01*
X510505Y397244D01*
X511494D01*
X512450Y397500D01*
X513306Y397994D01*
X514006Y398694D01*
X514500Y399550D01*
X514756Y400505D01*
Y401495D01*
X514500Y402450D01*
X514006Y403306D01*
X513306Y404005D01*
X512450Y404500D01*
X511494Y404756D01*
X510505D01*
X509550Y404500D01*
X508694Y404005D01*
X507995Y403306D01*
X507987Y403294D01*
X436296D01*
X435927Y403663D01*
X435026Y404183D01*
X434020Y404453D01*
X432980D01*
X431974Y404183D01*
X431073Y403663D01*
X430337Y402927D01*
X430260Y402794D01*
X422950D01*
X421500Y404244D01*
Y404961D01*
X421262Y405851D01*
X420801Y406649D01*
X420149Y407301D01*
X419351Y407761D01*
X418461Y408000D01*
X417539D01*
X416649Y407761D01*
X416044Y407412D01*
X415544Y407660D01*
Y410783D01*
X427122Y422362D01*
X427620Y423106D01*
X427794Y423984D01*
Y430988D01*
X427806Y430995D01*
X428506Y431694D01*
X429000Y432550D01*
X429256Y433505D01*
Y434494D01*
X429000Y435450D01*
X428506Y436306D01*
X427806Y437006D01*
X427446Y437214D01*
X427336Y437854D01*
X427424Y437956D01*
X448300D01*
X451748Y434508D01*
X451744Y434494D01*
Y433505D01*
X452000Y432550D01*
X452494Y431694D01*
X453194Y430995D01*
X454050Y430500D01*
X455006Y430244D01*
X455995D01*
X456950Y430500D01*
X457806Y430995D01*
X458505Y431694D01*
X459000Y432550D01*
X459256Y433505D01*
Y434494D01*
X459000Y435450D01*
X458505Y436306D01*
X457806Y437006D01*
X456950Y437500D01*
X455995Y437756D01*
X455006D01*
X454992Y437752D01*
X450872Y441872D01*
X450128Y442369D01*
X449250Y442544D01*
X417700D01*
X414252Y445992D01*
X414256Y446005D01*
Y446994D01*
X414000Y447950D01*
X413506Y448806D01*
X412806Y449506D01*
X411950Y450000D01*
X410994Y450256D01*
X410006D01*
X409050Y450000D01*
X408194Y449506D01*
X407494Y448806D01*
X407000Y447950D01*
X406744Y446994D01*
Y446005D01*
X407000Y445050D01*
X407494Y444194D01*
X408194Y443495D01*
X408206Y443488D01*
Y418521D01*
X407933Y418303D01*
X407453Y418515D01*
Y424453D01*
X399547D01*
Y416547D01*
X405650D01*
X405841Y416085D01*
X404169Y414413D01*
X404020Y414453D01*
X402980D01*
X401974Y414183D01*
X401073Y413663D01*
X400337Y412927D01*
X399817Y412026D01*
X399547Y411020D01*
Y409980D01*
X399817Y408974D01*
X400337Y408073D01*
X401073Y407337D01*
X401974Y406817D01*
X402980Y406547D01*
X404020D01*
X405026Y406817D01*
X405927Y407337D01*
X406663Y408073D01*
X407183Y408974D01*
X407453Y409980D01*
Y411020D01*
X407413Y411169D01*
X412122Y415878D01*
X412619Y416622D01*
X412794Y417500D01*
Y440308D01*
X413256Y440500D01*
X415128Y438628D01*
X415872Y438131D01*
X416750Y437956D01*
X423576D01*
X423664Y437854D01*
X423554Y437214D01*
X423194Y437006D01*
X422495Y436306D01*
X422000Y435450D01*
X421744Y434494D01*
Y433505D01*
X422000Y432550D01*
X422495Y431694D01*
X423194Y430995D01*
X423206Y430988D01*
Y424934D01*
X411628Y413356D01*
X411131Y412612D01*
X410956Y411734D01*
Y399250D01*
X411019Y398932D01*
X410558Y398686D01*
X407774Y401471D01*
X407236Y401830D01*
X407183Y402026D01*
X406663Y402927D01*
X405927Y403663D01*
X405026Y404183D01*
X404020Y404453D01*
X402980D01*
X401974Y404183D01*
X401073Y403663D01*
X400337Y402927D01*
X399817Y402026D01*
X399547Y401020D01*
Y399980D01*
X399587Y399831D01*
X396550Y396794D01*
X379950D01*
X372256Y404489D01*
Y404680D01*
X372252Y404693D01*
X378902Y411343D01*
X379399Y412087D01*
X379574Y412965D01*
Y432147D01*
X379767Y432258D01*
X380521Y433012D01*
X381055Y433936D01*
X381331Y434967D01*
Y436033D01*
X381055Y437064D01*
X380521Y437988D01*
X379767Y438742D01*
X378843Y439275D01*
X377813Y439551D01*
X376746D01*
X375716Y439275D01*
X374792Y438742D01*
X374038Y437988D01*
X373504Y437064D01*
X373228Y436033D01*
Y434967D01*
X373286Y434751D01*
X367609Y429074D01*
X332353D01*
X332242Y429267D01*
X331487Y430021D01*
X330564Y430555D01*
X329533Y430831D01*
X328467D01*
X327436Y430555D01*
X326513Y430021D01*
X325758Y429267D01*
X325225Y428343D01*
X324949Y427313D01*
Y426246D01*
X325225Y425216D01*
X325758Y424292D01*
X326513Y423538D01*
X327436Y423004D01*
X328467Y422728D01*
X329533D01*
X330564Y423004D01*
X331487Y423538D01*
X332242Y424292D01*
X332353Y424485D01*
X368559D01*
X369437Y424660D01*
X370181Y425157D01*
X374524Y429500D01*
X374986Y429308D01*
Y413915D01*
X369008Y407937D01*
X368994Y407941D01*
X368005D01*
X367050Y407685D01*
X366194Y407191D01*
X365494Y406491D01*
X365000Y405635D01*
X364744Y404680D01*
Y403691D01*
X365000Y402736D01*
X365494Y401879D01*
X366194Y401180D01*
X367050Y400685D01*
X368005Y400429D01*
X368994D01*
X369651Y400605D01*
X377378Y392878D01*
X378122Y392380D01*
X379000Y392206D01*
X397500D01*
X398378Y392380D01*
X399122Y392878D01*
X402831Y396587D01*
X402980Y396547D01*
X404020D01*
X405026Y396817D01*
X405605Y397151D01*
X422828Y379927D01*
X422637Y379465D01*
X417779D01*
X407413Y389831D01*
X407453Y389980D01*
Y391020D01*
X407183Y392026D01*
X406663Y392927D01*
X405927Y393663D01*
X405026Y394183D01*
X404020Y394453D01*
X402980D01*
X401974Y394183D01*
X401073Y393663D01*
X400337Y392927D01*
X399817Y392026D01*
X399547Y391020D01*
Y389980D01*
X399587Y389831D01*
X396550Y386794D01*
X371513D01*
X371505Y386806D01*
X370806Y387506D01*
X369950Y388000D01*
X368994Y388256D01*
X368005D01*
X367050Y388000D01*
X366194Y387506D01*
X365494Y386806D01*
X365000Y385950D01*
X364744Y384995D01*
Y384005D01*
X364748Y383992D01*
X354550Y373794D01*
X285950D01*
X278913Y380831D01*
X278953Y380980D01*
Y382020D01*
X278683Y383026D01*
X278163Y383927D01*
X277427Y384663D01*
X276526Y385183D01*
X275520Y385453D01*
X274480D01*
X273474Y385183D01*
X272573Y384663D01*
X271837Y383927D01*
X271760Y383794D01*
X264500D01*
X263622Y383619D01*
X262878Y383122D01*
X247669Y367913D01*
X247520Y367953D01*
X246480D01*
X246331Y367913D01*
X227280Y386964D01*
X226536Y387461D01*
X225658Y387636D01*
X195391D01*
X178998Y404029D01*
X179176Y404558D01*
X179851Y404739D01*
X180649Y405199D01*
X181156Y405706D01*
X191050D01*
X191878Y404878D01*
X192622Y404381D01*
X193500Y404206D01*
X197965D01*
Y401465D01*
X208035D01*
Y404206D01*
X228850D01*
Y402350D01*
X237150D01*
Y404456D01*
X250094D01*
X250351Y404199D01*
X251149Y403738D01*
X252039Y403500D01*
X252961D01*
X253851Y403738D01*
X254649Y404199D01*
X255301Y404851D01*
X255762Y405649D01*
X256000Y406539D01*
Y407461D01*
X255762Y408351D01*
X255301Y409149D01*
X254649Y409801D01*
X253851Y410261D01*
X252961Y410500D01*
X252039D01*
X251149Y410261D01*
X250351Y409801D01*
X249699Y409149D01*
X249639Y409044D01*
X237150D01*
Y410650D01*
X228850D01*
Y408794D01*
X208035D01*
Y411535D01*
X205472D01*
X205338Y412035D01*
X206092Y412471D01*
X207029Y413408D01*
X207490Y414206D01*
X229533D01*
X229679Y413952D01*
X230452Y413179D01*
X231398Y412633D01*
X232454Y412350D01*
X233546D01*
X234602Y412633D01*
X235548Y413179D01*
X236320Y413952D01*
X236467Y414206D01*
X269050D01*
X271087Y412169D01*
X271047Y412020D01*
Y410980D01*
X271317Y409974D01*
X271837Y409073D01*
X272573Y408337D01*
X273474Y407817D01*
X274480Y407547D01*
X275520D01*
X276526Y407817D01*
X277427Y408337D01*
X278163Y409073D01*
X278683Y409974D01*
X278953Y410980D01*
Y412020D01*
X278683Y413026D01*
X278163Y413927D01*
X277427Y414663D01*
X276526Y415183D01*
X275520Y415453D01*
X274480D01*
X274331Y415413D01*
X271622Y418122D01*
X270878Y418619D01*
X270000Y418794D01*
X236467D01*
X236320Y419048D01*
X235548Y419820D01*
X234602Y420367D01*
X233546Y420650D01*
X232454D01*
X231398Y420367D01*
X230452Y419820D01*
X229679Y419048D01*
X229533Y418794D01*
X207490D01*
X207029Y419592D01*
X206092Y420529D01*
X204944Y421192D01*
X204728Y421250D01*
Y421750D01*
X204944Y421808D01*
X206092Y422471D01*
X207029Y423408D01*
X207490Y424206D01*
X210844D01*
X211351Y423699D01*
X212149Y423239D01*
X213039Y423000D01*
X213961D01*
X214851Y423239D01*
X215649Y423699D01*
X216301Y424351D01*
X216761Y425149D01*
X217000Y426039D01*
Y426961D01*
X216761Y427851D01*
X216301Y428649D01*
X215649Y429301D01*
X214851Y429762D01*
X213961Y430000D01*
X213039D01*
X212149Y429762D01*
X211351Y429301D01*
X210844Y428794D01*
X207490D01*
X207029Y429592D01*
X206092Y430529D01*
X204944Y431192D01*
X203663Y431535D01*
X202337D01*
X201056Y431192D01*
X199908Y430529D01*
X198971Y429592D01*
X198308Y428444D01*
X197965Y427163D01*
Y425837D01*
X198308Y424556D01*
X198971Y423408D01*
X199908Y422471D01*
X201056Y421808D01*
X201272Y421750D01*
Y421250D01*
X201056Y421192D01*
X199908Y420529D01*
X198971Y419592D01*
X198308Y418444D01*
X197965Y417163D01*
Y415837D01*
X198308Y414556D01*
X198971Y413408D01*
X199908Y412471D01*
X200662Y412035D01*
X200528Y411535D01*
X197965D01*
Y408794D01*
X194450D01*
X193622Y409622D01*
X192878Y410119D01*
X192000Y410294D01*
X181156D01*
X180649Y410801D01*
X179851Y411262D01*
X178961Y411500D01*
X178039D01*
X177149Y411262D01*
X176351Y410801D01*
X175699Y410149D01*
X175239Y409351D01*
X175058Y408676D01*
X174529Y408498D01*
X172830Y410197D01*
Y426085D01*
X183450Y436706D01*
X219550D01*
X228926Y427329D01*
X228850Y427046D01*
Y425954D01*
X229133Y424898D01*
X229679Y423952D01*
X230452Y423179D01*
X231398Y422633D01*
X232454Y422350D01*
X233546D01*
X234602Y422633D01*
X235548Y423179D01*
X236320Y423952D01*
X236867Y424898D01*
X237150Y425954D01*
Y427046D01*
X236867Y428102D01*
X236320Y429048D01*
X235548Y429820D01*
X235294Y429967D01*
Y434000D01*
X235120Y434878D01*
X234622Y435622D01*
X221122Y449122D01*
X220378Y449619D01*
X219500Y449794D01*
X201950D01*
X182074Y469671D01*
X182150Y469954D01*
Y471046D01*
X181867Y472102D01*
X181321Y473048D01*
X180548Y473820D01*
X179602Y474367D01*
X178546Y474650D01*
D02*
G37*
G36*
X153152Y433118D02*
X151848D01*
X150569Y432864D01*
X149365Y432365D01*
X148281Y431641D01*
X147359Y430719D01*
X146635Y429635D01*
X146136Y428431D01*
X145881Y427152D01*
Y425848D01*
X146136Y424570D01*
X146635Y423365D01*
X147359Y422281D01*
X148281Y421359D01*
X149365Y420635D01*
X150569Y420136D01*
X151848Y419881D01*
X153152D01*
X154430Y420136D01*
X155635Y420635D01*
X156719Y421359D01*
X157641Y422281D01*
X158365Y423365D01*
X158864Y424570D01*
X159118Y425848D01*
Y427152D01*
X158864Y428431D01*
X158365Y429635D01*
X157641Y430719D01*
X156719Y431641D01*
X155635Y432365D01*
X154430Y432864D01*
X153152Y433118D01*
D02*
G37*
G36*
X275520Y425453D02*
X274480D01*
X273474Y425183D01*
X272573Y424663D01*
X271837Y423927D01*
X271317Y423026D01*
X271047Y422020D01*
Y420980D01*
X271317Y419974D01*
X271837Y419073D01*
X272573Y418337D01*
X273474Y417817D01*
X274480Y417547D01*
X275520D01*
X276526Y417817D01*
X277427Y418337D01*
X278163Y419073D01*
X278240Y419206D01*
X280844D01*
X281351Y418699D01*
X282149Y418238D01*
X283039Y418000D01*
X283961D01*
X284851Y418238D01*
X285649Y418699D01*
X286301Y419351D01*
X286761Y420149D01*
X287000Y421039D01*
Y421961D01*
X286761Y422851D01*
X286301Y423649D01*
X285649Y424301D01*
X284851Y424761D01*
X283961Y425000D01*
X283039D01*
X282149Y424761D01*
X281351Y424301D01*
X280844Y423794D01*
X278240D01*
X278163Y423927D01*
X277427Y424663D01*
X276526Y425183D01*
X275520Y425453D01*
D02*
G37*
G36*
X434020Y424453D02*
X432980D01*
X431974Y424183D01*
X431073Y423663D01*
X430337Y422927D01*
X429817Y422026D01*
X429547Y421020D01*
Y419980D01*
X429817Y418974D01*
X430337Y418073D01*
X431073Y417337D01*
X431974Y416817D01*
X432980Y416547D01*
X434020D01*
X435026Y416817D01*
X435927Y417337D01*
X436663Y418073D01*
X437183Y418974D01*
X437453Y419980D01*
Y421020D01*
X437183Y422026D01*
X436663Y422927D01*
X435927Y423663D01*
X435026Y424183D01*
X434020Y424453D01*
D02*
G37*
G36*
X275520Y435453D02*
X274480D01*
X273474Y435183D01*
X272573Y434663D01*
X271837Y433927D01*
X271317Y433026D01*
X271047Y432020D01*
Y430980D01*
X271317Y429974D01*
X271837Y429073D01*
X272573Y428337D01*
X273474Y427817D01*
X274480Y427547D01*
X275520D01*
X276526Y427817D01*
X277427Y428337D01*
X278163Y429073D01*
X278240Y429206D01*
X283050D01*
X289206Y423050D01*
Y416450D01*
X277422Y404666D01*
X276526Y405183D01*
X275520Y405453D01*
X274480D01*
X273474Y405183D01*
X272573Y404663D01*
X271837Y403927D01*
X271760Y403794D01*
X264500D01*
X263622Y403619D01*
X262878Y403122D01*
X249756Y390000D01*
X249039D01*
X248149Y389761D01*
X247351Y389301D01*
X246699Y388649D01*
X246238Y387851D01*
X246000Y386961D01*
Y386039D01*
X246238Y385149D01*
X246699Y384351D01*
X247351Y383699D01*
X248149Y383239D01*
X249039Y383000D01*
X249961D01*
X250851Y383239D01*
X251649Y383699D01*
X252301Y384351D01*
X252762Y385149D01*
X253000Y386039D01*
Y386756D01*
X265450Y399206D01*
X271760D01*
X271837Y399073D01*
X272573Y398337D01*
X273474Y397817D01*
X274480Y397547D01*
X275520D01*
X276526Y397817D01*
X277427Y398337D01*
X278163Y399073D01*
X278676Y399962D01*
X279029Y400032D01*
X279774Y400529D01*
X293122Y413878D01*
X293619Y414622D01*
X293794Y415500D01*
Y424000D01*
X293619Y424878D01*
X293122Y425622D01*
X285622Y433122D01*
X284878Y433619D01*
X284000Y433794D01*
X278240D01*
X278163Y433927D01*
X277427Y434663D01*
X276526Y435183D01*
X275520Y435453D01*
D02*
G37*
G36*
X153152Y414618D02*
X151848D01*
X150569Y414364D01*
X149365Y413865D01*
X148281Y413141D01*
X147359Y412219D01*
X146635Y411135D01*
X146136Y409931D01*
X145881Y408652D01*
Y407348D01*
X146136Y406070D01*
X146635Y404865D01*
X147359Y403781D01*
X148281Y402859D01*
X149365Y402135D01*
X150569Y401636D01*
X151848Y401381D01*
X153152D01*
X154430Y401636D01*
X155635Y402135D01*
X156719Y402859D01*
X157641Y403781D01*
X158365Y404865D01*
X158864Y406070D01*
X159118Y407348D01*
Y408652D01*
X158864Y409931D01*
X158365Y411135D01*
X157641Y412219D01*
X156719Y413141D01*
X155635Y413865D01*
X154430Y414364D01*
X153152Y414618D01*
D02*
G37*
G36*
X541495Y404756D02*
X540506D01*
X539550Y404500D01*
X538694Y404005D01*
X537994Y403306D01*
X537500Y402450D01*
X537244Y401495D01*
Y400505D01*
X537500Y399550D01*
X537994Y398694D01*
X538694Y397994D01*
X539550Y397500D01*
X540506Y397244D01*
X541495D01*
X542450Y397500D01*
X543306Y397994D01*
X544005Y398694D01*
X544500Y399550D01*
X544756Y400505D01*
Y401495D01*
X544500Y402450D01*
X544005Y403306D01*
X543306Y404005D01*
X542450Y404500D01*
X541495Y404756D01*
D02*
G37*
G36*
X563546Y405150D02*
X562454D01*
X561398Y404867D01*
X560452Y404320D01*
X559680Y403548D01*
X559133Y402602D01*
X558850Y401546D01*
Y400454D01*
X559133Y399398D01*
X559680Y398452D01*
X560452Y397679D01*
X561398Y397133D01*
X562454Y396850D01*
X563546D01*
X564602Y397133D01*
X565548Y397679D01*
X566321Y398452D01*
X566867Y399398D01*
X567150Y400454D01*
Y401546D01*
X566867Y402602D01*
X566321Y403548D01*
X565548Y404320D01*
X564602Y404867D01*
X563546Y405150D01*
D02*
G37*
G36*
X553546D02*
X552454D01*
X551398Y404867D01*
X550452Y404320D01*
X549680Y403548D01*
X549133Y402602D01*
X548850Y401546D01*
Y400454D01*
X549133Y399398D01*
X549680Y398452D01*
X550452Y397679D01*
X551398Y397133D01*
X552454Y396850D01*
X553546D01*
X554602Y397133D01*
X555548Y397679D01*
X556320Y398452D01*
X556867Y399398D01*
X557150Y400454D01*
Y401546D01*
X556867Y402602D01*
X556320Y403548D01*
X555548Y404320D01*
X554602Y404867D01*
X553546Y405150D01*
D02*
G37*
G36*
X305520Y395453D02*
X304480D01*
X303474Y395183D01*
X302573Y394663D01*
X301837Y393927D01*
X301760Y393794D01*
X278240D01*
X278163Y393927D01*
X277427Y394663D01*
X276526Y395183D01*
X275520Y395453D01*
X274480D01*
X273474Y395183D01*
X272573Y394663D01*
X271837Y393927D01*
X271317Y393026D01*
X271047Y392020D01*
Y390980D01*
X271317Y389974D01*
X271837Y389073D01*
X272573Y388337D01*
X273474Y387817D01*
X274480Y387547D01*
X275520D01*
X276526Y387817D01*
X277427Y388337D01*
X278163Y389073D01*
X278240Y389206D01*
X287808D01*
X288000Y388744D01*
X286878Y387622D01*
X286381Y386878D01*
X286206Y386000D01*
Y381656D01*
X285699Y381149D01*
X285239Y380351D01*
X285000Y379461D01*
Y378539D01*
X285239Y377649D01*
X285699Y376851D01*
X286351Y376199D01*
X287149Y375739D01*
X288039Y375500D01*
X288961D01*
X289851Y375739D01*
X290649Y376199D01*
X291301Y376851D01*
X291761Y377649D01*
X292000Y378539D01*
Y379461D01*
X291761Y380351D01*
X291301Y381149D01*
X290794Y381656D01*
Y385050D01*
X294950Y389206D01*
X301760D01*
X301837Y389073D01*
X302573Y388337D01*
X303474Y387817D01*
X304480Y387547D01*
X305520D01*
X306526Y387817D01*
X307427Y388337D01*
X308163Y389073D01*
X308683Y389974D01*
X308953Y390980D01*
Y392020D01*
X308683Y393026D01*
X308163Y393927D01*
X307427Y394663D01*
X306526Y395183D01*
X305520Y395453D01*
D02*
G37*
G36*
Y405453D02*
X304480D01*
X303474Y405183D01*
X302573Y404663D01*
X301837Y403927D01*
X301317Y403026D01*
X301047Y402020D01*
Y400980D01*
X301317Y399974D01*
X301837Y399073D01*
X302573Y398337D01*
X303474Y397817D01*
X304480Y397547D01*
X305520D01*
X305669Y397587D01*
X311000Y392256D01*
Y391539D01*
X311239Y390649D01*
X311699Y389851D01*
X312351Y389199D01*
X313149Y388738D01*
X314039Y388500D01*
X314961D01*
X315851Y388738D01*
X316649Y389199D01*
X317301Y389851D01*
X317761Y390649D01*
X318000Y391539D01*
Y392461D01*
X317761Y393351D01*
X317301Y394149D01*
X316649Y394801D01*
X315851Y395262D01*
X314961Y395500D01*
X314244D01*
X308913Y400831D01*
X308953Y400980D01*
Y402020D01*
X308683Y403026D01*
X308163Y403927D01*
X307427Y404663D01*
X306526Y405183D01*
X305520Y405453D01*
D02*
G37*
G36*
Y415453D02*
X304480D01*
X303474Y415183D01*
X302573Y414663D01*
X301837Y413927D01*
X301317Y413026D01*
X301047Y412020D01*
Y410980D01*
X301317Y409974D01*
X301837Y409073D01*
X302573Y408337D01*
X303474Y407817D01*
X304480Y407547D01*
X305520D01*
X306526Y407817D01*
X307427Y408337D01*
X308163Y409073D01*
X308240Y409206D01*
X310050D01*
X326340Y392916D01*
X326513Y392462D01*
X325758Y391708D01*
X325225Y390784D01*
X324949Y389754D01*
Y388687D01*
X325225Y387657D01*
X325758Y386733D01*
X326513Y385979D01*
X327436Y385445D01*
X328467Y385169D01*
X329533D01*
X330564Y385445D01*
X331487Y385979D01*
X332242Y386733D01*
X332775Y387657D01*
X333051Y388687D01*
Y389754D01*
X332775Y390784D01*
X332242Y391708D01*
X331487Y392462D01*
X331125Y392672D01*
Y393669D01*
X330950Y394547D01*
X330453Y395291D01*
X312622Y413122D01*
X311878Y413619D01*
X311000Y413794D01*
X308240D01*
X308163Y413927D01*
X307427Y414663D01*
X306526Y415183D01*
X305520Y415453D01*
D02*
G37*
G36*
Y435453D02*
X304480D01*
X303474Y435183D01*
X302573Y434663D01*
X301837Y433927D01*
X301317Y433026D01*
X301047Y432020D01*
Y430980D01*
X301317Y429974D01*
X301837Y429073D01*
X302573Y428337D01*
X303474Y427817D01*
X304480Y427547D01*
X305520D01*
X305669Y427587D01*
X336706Y396550D01*
Y387450D01*
X333050Y383794D01*
X308240D01*
X308163Y383927D01*
X307427Y384663D01*
X306526Y385183D01*
X305520Y385453D01*
X304480D01*
X303474Y385183D01*
X302573Y384663D01*
X301837Y383927D01*
X301317Y383026D01*
X301047Y382020D01*
Y380980D01*
X301317Y379974D01*
X301837Y379073D01*
X302573Y378337D01*
X303474Y377817D01*
X304480Y377547D01*
X305520D01*
X306526Y377817D01*
X307427Y378337D01*
X308163Y379073D01*
X308240Y379206D01*
X334000D01*
X334878Y379380D01*
X335622Y379878D01*
X340622Y384878D01*
X341120Y385622D01*
X341294Y386500D01*
Y397500D01*
X341120Y398378D01*
X340622Y399122D01*
X308913Y430831D01*
X308953Y430980D01*
Y432020D01*
X308683Y433026D01*
X308163Y433927D01*
X307427Y434663D01*
X306526Y435183D01*
X305520Y435453D01*
D02*
G37*
G36*
X159118Y396118D02*
X145881D01*
Y382881D01*
X159118D01*
Y396118D01*
D02*
G37*
G36*
X518995Y373256D02*
X518006D01*
X517050Y373000D01*
X516194Y372505D01*
X515494Y371806D01*
X515000Y370950D01*
X514744Y369994D01*
Y369005D01*
X515000Y368050D01*
X515494Y367194D01*
X516194Y366494D01*
X517050Y366000D01*
X518006Y365744D01*
X518995D01*
X519950Y366000D01*
X520806Y366494D01*
X521505Y367194D01*
X522000Y368050D01*
X522256Y369005D01*
Y369994D01*
X522000Y370950D01*
X521505Y371806D01*
X520806Y372505D01*
X519950Y373000D01*
X518995Y373256D01*
D02*
G37*
G36*
X310953Y367953D02*
X303047D01*
Y360047D01*
X310953D01*
Y367953D01*
D02*
G37*
G36*
X297520D02*
X296480D01*
X295474Y367683D01*
X294573Y367163D01*
X293837Y366427D01*
X293317Y365526D01*
X293047Y364520D01*
Y363480D01*
X293317Y362474D01*
X293837Y361573D01*
X294573Y360837D01*
X295474Y360317D01*
X296480Y360047D01*
X297520D01*
X298526Y360317D01*
X299427Y360837D01*
X300163Y361573D01*
X300683Y362474D01*
X300953Y363480D01*
Y364520D01*
X300683Y365526D01*
X300163Y366427D01*
X299427Y367163D01*
X298526Y367683D01*
X297520Y367953D01*
D02*
G37*
G36*
X287520D02*
X286480D01*
X285474Y367683D01*
X284573Y367163D01*
X283837Y366427D01*
X283317Y365526D01*
X283047Y364520D01*
Y363480D01*
X283317Y362474D01*
X283837Y361573D01*
X284573Y360837D01*
X285474Y360317D01*
X286480Y360047D01*
X287520D01*
X288526Y360317D01*
X289427Y360837D01*
X290163Y361573D01*
X290683Y362474D01*
X290953Y363480D01*
Y364520D01*
X290683Y365526D01*
X290163Y366427D01*
X289427Y367163D01*
X288526Y367683D01*
X287520Y367953D01*
D02*
G37*
G36*
X277520D02*
X276480D01*
X275474Y367683D01*
X274573Y367163D01*
X273837Y366427D01*
X273317Y365526D01*
X273047Y364520D01*
Y363480D01*
X273317Y362474D01*
X273837Y361573D01*
X274573Y360837D01*
X275474Y360317D01*
X276480Y360047D01*
X277520D01*
X278526Y360317D01*
X279427Y360837D01*
X280163Y361573D01*
X280683Y362474D01*
X280953Y363480D01*
Y364520D01*
X280683Y365526D01*
X280163Y366427D01*
X279427Y367163D01*
X278526Y367683D01*
X277520Y367953D01*
D02*
G37*
G36*
X267520D02*
X266480D01*
X265474Y367683D01*
X264573Y367163D01*
X263837Y366427D01*
X263317Y365526D01*
X263047Y364520D01*
Y363480D01*
X263317Y362474D01*
X263837Y361573D01*
X264573Y360837D01*
X265474Y360317D01*
X266480Y360047D01*
X267520D01*
X268526Y360317D01*
X269427Y360837D01*
X270163Y361573D01*
X270683Y362474D01*
X270953Y363480D01*
Y364520D01*
X270683Y365526D01*
X270163Y366427D01*
X269427Y367163D01*
X268526Y367683D01*
X267520Y367953D01*
D02*
G37*
G36*
X257520D02*
X256480D01*
X255474Y367683D01*
X254573Y367163D01*
X253837Y366427D01*
X253317Y365526D01*
X253047Y364520D01*
Y363480D01*
X253317Y362474D01*
X253837Y361573D01*
X254573Y360837D01*
X255474Y360317D01*
X256480Y360047D01*
X257520D01*
X258526Y360317D01*
X259427Y360837D01*
X260163Y361573D01*
X260683Y362474D01*
X260953Y363480D01*
Y364520D01*
X260683Y365526D01*
X260163Y366427D01*
X259427Y367163D01*
X258526Y367683D01*
X257520Y367953D01*
D02*
G37*
G36*
X446937Y368028D02*
X437063D01*
Y361398D01*
X435550Y359885D01*
X417937D01*
Y362528D01*
X408063D01*
Y357794D01*
X308500D01*
X307622Y357620D01*
X306878Y357122D01*
X287669Y337913D01*
X287520Y337953D01*
X286480D01*
X285474Y337683D01*
X284573Y337163D01*
X283837Y336427D01*
X283317Y335526D01*
X283047Y334520D01*
Y333480D01*
X283317Y332474D01*
X283837Y331573D01*
X284573Y330837D01*
X285474Y330317D01*
X286480Y330047D01*
X287520D01*
X288526Y330317D01*
X289427Y330837D01*
X290163Y331573D01*
X290683Y332474D01*
X290953Y333480D01*
Y334520D01*
X290913Y334669D01*
X309450Y353206D01*
X398802D01*
X398867Y352706D01*
X398142Y352512D01*
X397344Y352051D01*
X396692Y351399D01*
X396231Y350601D01*
X395993Y349711D01*
Y348789D01*
X396231Y347899D01*
X396692Y347101D01*
X397344Y346449D01*
X398142Y345988D01*
X399032Y345750D01*
X399954D01*
X400844Y345988D01*
X401642Y346449D01*
X402156Y346963D01*
X417292D01*
X423844Y340412D01*
X423650Y339898D01*
X423352Y339863D01*
X419593Y343622D01*
X418849Y344120D01*
X417971Y344294D01*
X345000D01*
X344122Y344120D01*
X343378Y343622D01*
X333415Y333659D01*
X332953Y333850D01*
Y339953D01*
X325047D01*
Y332047D01*
X331150D01*
X331341Y331585D01*
X329669Y329913D01*
X329520Y329953D01*
X328480D01*
X327474Y329683D01*
X326573Y329163D01*
X325837Y328427D01*
X325317Y327526D01*
X325047Y326520D01*
Y325480D01*
X325317Y324474D01*
X325837Y323573D01*
X326573Y322837D01*
X327474Y322317D01*
X328480Y322047D01*
X329520D01*
X330526Y322317D01*
X331427Y322837D01*
X332163Y323573D01*
X332683Y324474D01*
X332953Y325480D01*
Y326520D01*
X332913Y326669D01*
X345950Y339706D01*
X356513D01*
X356647Y339206D01*
X356573Y339163D01*
X355837Y338427D01*
X355317Y337526D01*
X355047Y336520D01*
Y335480D01*
X355317Y334474D01*
X355837Y333573D01*
X356573Y332837D01*
X357474Y332317D01*
X358480Y332047D01*
X359520D01*
X360526Y332317D01*
X361427Y332837D01*
X362163Y333573D01*
X362683Y334474D01*
X362953Y335480D01*
Y336520D01*
X362683Y337526D01*
X362163Y338427D01*
X361427Y339163D01*
X361353Y339206D01*
X361487Y339706D01*
X417021D01*
X420855Y335872D01*
X421599Y335375D01*
X422477Y335200D01*
X452403D01*
X452610Y334700D01*
X452337Y334427D01*
X451817Y333526D01*
X451547Y332520D01*
Y331480D01*
X451817Y330474D01*
X452337Y329573D01*
X453073Y328837D01*
X453974Y328317D01*
X454980Y328047D01*
X456020D01*
X457026Y328317D01*
X457927Y328837D01*
X458663Y329573D01*
X459183Y330474D01*
X459453Y331480D01*
Y332520D01*
X459183Y333526D01*
X458663Y334427D01*
X458390Y334700D01*
X458597Y335200D01*
X469056D01*
X481587Y322669D01*
X481547Y322520D01*
Y321480D01*
X481587Y321331D01*
X472878Y312622D01*
X472381Y311878D01*
X472206Y311000D01*
Y296500D01*
X472381Y295622D01*
X472878Y294878D01*
X478878Y288878D01*
X479622Y288381D01*
X480500Y288206D01*
X487308D01*
X487500Y287744D01*
X464550Y264794D01*
X460740D01*
X460663Y264927D01*
X459927Y265663D01*
X459026Y266183D01*
X458020Y266453D01*
X456980D01*
X455974Y266183D01*
X455073Y265663D01*
X454337Y264927D01*
X453817Y264026D01*
X453547Y263020D01*
Y261980D01*
X453817Y260974D01*
X454337Y260073D01*
X455073Y259337D01*
X455974Y258817D01*
X456980Y258547D01*
X458020D01*
X459026Y258817D01*
X459927Y259337D01*
X460663Y260073D01*
X460740Y260206D01*
X465500D01*
X466378Y260381D01*
X467122Y260878D01*
X495122Y288878D01*
X503382Y297138D01*
X503943D01*
X504798Y297367D01*
X505564Y297810D01*
X505961Y298206D01*
X520790D01*
X522653Y296343D01*
X522867Y295545D01*
X523310Y294778D01*
X523936Y294152D01*
X524702Y293709D01*
X525557Y293480D01*
X526443D01*
X527298Y293709D01*
X528064Y294152D01*
X528690Y294778D01*
X529133Y295545D01*
X529362Y296400D01*
Y297285D01*
X529133Y298140D01*
X528690Y298907D01*
X528064Y299533D01*
X527298Y299976D01*
X526443Y300205D01*
X525557D01*
X525339Y300146D01*
X523363Y302122D01*
X522619Y302620D01*
X521741Y302794D01*
X505961D01*
X505564Y303190D01*
X504798Y303633D01*
X503943Y303862D01*
X503057D01*
X502202Y303633D01*
X501436Y303190D01*
X500810Y302564D01*
X500367Y301798D01*
X500138Y300943D01*
Y300382D01*
X492550Y292794D01*
X481450D01*
X476794Y297450D01*
Y310050D01*
X484831Y318087D01*
X484980Y318047D01*
X486020D01*
X487026Y318317D01*
X487927Y318837D01*
X488663Y319573D01*
X489183Y320474D01*
X489453Y321480D01*
Y322520D01*
X489183Y323526D01*
X488663Y324427D01*
X487927Y325163D01*
X487026Y325683D01*
X486020Y325953D01*
X484980D01*
X484831Y325913D01*
X472506Y338238D01*
X472698Y338700D01*
X475556D01*
X481587Y332669D01*
X481547Y332520D01*
Y331480D01*
X481817Y330474D01*
X482337Y329573D01*
X483073Y328837D01*
X483974Y328317D01*
X484980Y328047D01*
X486020D01*
X487026Y328317D01*
X487927Y328837D01*
X488663Y329573D01*
X489183Y330474D01*
X489453Y331480D01*
Y332520D01*
X489413Y332669D01*
X492950Y336206D01*
X516988D01*
X516994Y336194D01*
X517694Y335494D01*
X518550Y335000D01*
X519506Y334744D01*
X520495D01*
X521450Y335000D01*
X522306Y335494D01*
X523005Y336194D01*
X523500Y337050D01*
X523756Y338005D01*
Y338995D01*
X523500Y339950D01*
X523005Y340806D01*
X522306Y341506D01*
X521450Y342000D01*
X520495Y342256D01*
X519506D01*
X518550Y342000D01*
X517694Y341506D01*
X516994Y340806D01*
X516988Y340794D01*
X492000D01*
X491122Y340619D01*
X490378Y340122D01*
X486169Y335913D01*
X486020Y335953D01*
X484980D01*
X484831Y335913D01*
X478128Y342616D01*
X477384Y343113D01*
X476506Y343288D01*
X427456D01*
X425496Y345248D01*
X425707Y345744D01*
X426495D01*
X427450Y346000D01*
X428306Y346495D01*
X429005Y347194D01*
X429012Y347206D01*
X468197D01*
X469075Y347380D01*
X469819Y347878D01*
X472398Y350456D01*
X516800D01*
X527706Y339550D01*
Y319450D01*
X520508Y312252D01*
X520495Y312256D01*
X519506D01*
X518849Y312080D01*
X517307Y313622D01*
X516563Y314120D01*
X515685Y314294D01*
X488740D01*
X488663Y314427D01*
X487927Y315163D01*
X487026Y315683D01*
X486020Y315953D01*
X484980D01*
X483974Y315683D01*
X483073Y315163D01*
X482337Y314427D01*
X481817Y313526D01*
X481547Y312520D01*
Y311480D01*
X481817Y310474D01*
X482337Y309573D01*
X483073Y308837D01*
X483974Y308317D01*
X484980Y308047D01*
X486020D01*
X487026Y308317D01*
X487927Y308837D01*
X488663Y309573D01*
X488740Y309706D01*
X514735D01*
X516244Y308197D01*
Y308005D01*
X516500Y307050D01*
X516994Y306194D01*
X517694Y305494D01*
X518550Y305000D01*
X519506Y304744D01*
X520495D01*
X521450Y305000D01*
X522306Y305494D01*
X523005Y306194D01*
X523500Y307050D01*
X523756Y308005D01*
Y308995D01*
X523752Y309008D01*
X531622Y316878D01*
X532120Y317622D01*
X532294Y318500D01*
Y340500D01*
X532119Y341378D01*
X531622Y342122D01*
X519372Y354372D01*
X518628Y354870D01*
X517750Y355044D01*
X471447D01*
X470569Y354870D01*
X469825Y354372D01*
X467247Y351794D01*
X429012D01*
X429005Y351806D01*
X428306Y352505D01*
X427450Y353000D01*
X426495Y353256D01*
X425505D01*
X424550Y353000D01*
X423694Y352505D01*
X422995Y351806D01*
X422500Y350950D01*
X422244Y349994D01*
Y349207D01*
X421748Y348996D01*
X419865Y350880D01*
X419121Y351377D01*
X418243Y351551D01*
X402141D01*
X401642Y352051D01*
X400844Y352512D01*
X400118Y352706D01*
X400184Y353206D01*
X408063D01*
Y352654D01*
X417937D01*
Y355296D01*
X436500D01*
X437378Y355471D01*
X438122Y355968D01*
X440307Y358154D01*
X446937D01*
Y368028D01*
D02*
G37*
G36*
X434020Y414453D02*
X432980D01*
X431974Y414183D01*
X431073Y413663D01*
X430337Y412927D01*
X429817Y412026D01*
X429547Y411020D01*
Y409980D01*
X429817Y408974D01*
X430337Y408073D01*
X431073Y407337D01*
X431974Y406817D01*
X432980Y406547D01*
X434020D01*
X435026Y406817D01*
X435927Y407337D01*
X436663Y408073D01*
X436740Y408206D01*
X515050D01*
X524206Y399050D01*
Y386450D01*
X520550Y382794D01*
X512000D01*
X511122Y382620D01*
X510378Y382122D01*
X504878Y376622D01*
X504381Y375878D01*
X504206Y375000D01*
Y366950D01*
X500256Y363000D01*
X499539D01*
X498649Y362761D01*
X497851Y362301D01*
X497199Y361649D01*
X496738Y360851D01*
X496500Y359961D01*
Y359039D01*
X496738Y358149D01*
X497199Y357351D01*
X497851Y356699D01*
X498649Y356239D01*
X499539Y356000D01*
X500461D01*
X501351Y356239D01*
X502149Y356699D01*
X502801Y357351D01*
X503262Y358149D01*
X503500Y359039D01*
Y359756D01*
X508122Y364378D01*
X508619Y365122D01*
X508794Y366000D01*
Y374050D01*
X512950Y378206D01*
X521500D01*
X522378Y378380D01*
X523122Y378878D01*
X528122Y383878D01*
X528619Y384622D01*
X528794Y385500D01*
Y400000D01*
X528619Y400878D01*
X528122Y401622D01*
X517622Y412122D01*
X516878Y412619D01*
X516000Y412794D01*
X436740D01*
X436663Y412927D01*
X435927Y413663D01*
X435026Y414183D01*
X434020Y414453D01*
D02*
G37*
G36*
X576461Y361461D02*
X569539D01*
Y354539D01*
X576461D01*
Y361461D01*
D02*
G37*
G36*
X152969Y355059D02*
X152031D01*
X151126Y354817D01*
X150315Y354348D01*
X149652Y353685D01*
X149183Y352874D01*
X148941Y351969D01*
Y351031D01*
X149183Y350126D01*
X149652Y349315D01*
X150315Y348652D01*
X151126Y348183D01*
X152031Y347941D01*
X152969D01*
X153874Y348183D01*
X154685Y348652D01*
X155348Y349315D01*
X155816Y350126D01*
X156059Y351031D01*
Y351969D01*
X155816Y352874D01*
X155348Y353685D01*
X154685Y354348D01*
X153874Y354817D01*
X152969Y355059D01*
D02*
G37*
G36*
X142969D02*
X142031D01*
X141126Y354817D01*
X140315Y354348D01*
X139652Y353685D01*
X139183Y352874D01*
X138941Y351969D01*
Y351031D01*
X139183Y350126D01*
X139652Y349315D01*
X140315Y348652D01*
X141126Y348183D01*
X142031Y347941D01*
X142969D01*
X143874Y348183D01*
X144685Y348652D01*
X145348Y349315D01*
X145817Y350126D01*
X146059Y351031D01*
Y351969D01*
X145817Y352874D01*
X145348Y353685D01*
X144685Y354348D01*
X143874Y354817D01*
X142969Y355059D01*
D02*
G37*
G36*
X563456Y351461D02*
X562544D01*
X561664Y351225D01*
X560875Y350769D01*
X560231Y350125D01*
X559775Y349336D01*
X559539Y348456D01*
Y347544D01*
X559775Y346664D01*
X560231Y345875D01*
X560875Y345231D01*
X561664Y344775D01*
X562544Y344539D01*
X563456D01*
X564336Y344775D01*
X565125Y345231D01*
X565769Y345875D01*
X566225Y346664D01*
X566461Y347544D01*
Y348456D01*
X566225Y349336D01*
X565769Y350125D01*
X565125Y350769D01*
X564336Y351225D01*
X563456Y351461D01*
D02*
G37*
G36*
X573456Y341461D02*
X572544D01*
X571664Y341225D01*
X570875Y340769D01*
X570231Y340125D01*
X569775Y339336D01*
X569539Y338456D01*
Y337544D01*
X569775Y336664D01*
X570231Y335875D01*
X570875Y335231D01*
X571664Y334775D01*
X572544Y334539D01*
X573456D01*
X574336Y334775D01*
X575125Y335231D01*
X575769Y335875D01*
X576225Y336664D01*
X576461Y337544D01*
Y338456D01*
X576225Y339336D01*
X575769Y340125D01*
X575125Y340769D01*
X574336Y341225D01*
X573456Y341461D01*
D02*
G37*
G36*
X254461Y352000D02*
X253539D01*
X252649Y351762D01*
X251851Y351301D01*
X251199Y350649D01*
X250739Y349851D01*
X250500Y348961D01*
Y348039D01*
X250739Y347149D01*
X251199Y346351D01*
X251851Y345699D01*
X252649Y345238D01*
X253539Y345000D01*
X254461D01*
X255351Y345238D01*
X256149Y345699D01*
X256656Y346206D01*
X261550D01*
X273087Y334669D01*
X273047Y334520D01*
Y333480D01*
X273317Y332474D01*
X273837Y331573D01*
X274573Y330837D01*
X275474Y330317D01*
X276480Y330047D01*
X277520D01*
X278526Y330317D01*
X279427Y330837D01*
X280163Y331573D01*
X280683Y332474D01*
X280953Y333480D01*
Y334520D01*
X280683Y335526D01*
X280163Y336427D01*
X279427Y337163D01*
X278526Y337683D01*
X277520Y337953D01*
X276480D01*
X276331Y337913D01*
X264122Y350122D01*
X263378Y350620D01*
X262500Y350794D01*
X256656D01*
X256149Y351301D01*
X255351Y351762D01*
X254461Y352000D01*
D02*
G37*
G36*
X267520Y337953D02*
X266480D01*
X265474Y337683D01*
X264573Y337163D01*
X263837Y336427D01*
X263317Y335526D01*
X263047Y334520D01*
Y333480D01*
X263317Y332474D01*
X263837Y331573D01*
X264573Y330837D01*
X265474Y330317D01*
X266480Y330047D01*
X267520D01*
X268526Y330317D01*
X269427Y330837D01*
X270163Y331573D01*
X270683Y332474D01*
X270953Y333480D01*
Y334520D01*
X270683Y335526D01*
X270163Y336427D01*
X269427Y337163D01*
X268526Y337683D01*
X267520Y337953D01*
D02*
G37*
G36*
X257520D02*
X256480D01*
X255474Y337683D01*
X254573Y337163D01*
X253837Y336427D01*
X253317Y335526D01*
X253047Y334520D01*
Y333480D01*
X253317Y332474D01*
X253837Y331573D01*
X254573Y330837D01*
X255474Y330317D01*
X256480Y330047D01*
X257520D01*
X258526Y330317D01*
X259427Y330837D01*
X260163Y331573D01*
X260683Y332474D01*
X260953Y333480D01*
Y334520D01*
X260683Y335526D01*
X260163Y336427D01*
X259427Y337163D01*
X258526Y337683D01*
X257520Y337953D01*
D02*
G37*
G36*
X247520D02*
X246480D01*
X245474Y337683D01*
X244573Y337163D01*
X243837Y336427D01*
X243317Y335526D01*
X243047Y334520D01*
Y333480D01*
X243317Y332474D01*
X243837Y331573D01*
X244573Y330837D01*
X245474Y330317D01*
X246480Y330047D01*
X247520D01*
X248526Y330317D01*
X249427Y330837D01*
X250163Y331573D01*
X250683Y332474D01*
X250953Y333480D01*
Y334520D01*
X250683Y335526D01*
X250163Y336427D01*
X249427Y337163D01*
X248526Y337683D01*
X247520Y337953D01*
D02*
G37*
G36*
X297520D02*
X296480D01*
X295474Y337683D01*
X294573Y337163D01*
X293837Y336427D01*
X293317Y335526D01*
X293047Y334520D01*
Y333480D01*
X293317Y332474D01*
X293837Y331573D01*
X294573Y330837D01*
X295357Y330384D01*
Y327566D01*
X295532Y326688D01*
X296029Y325944D01*
X296359Y325614D01*
Y324898D01*
X296597Y324008D01*
X297058Y323210D01*
X297710Y322558D01*
X298508Y322097D01*
X299398Y321859D01*
X300320D01*
X301210Y322097D01*
X302008Y322558D01*
X302660Y323210D01*
X303120Y324008D01*
X303359Y324898D01*
Y325819D01*
X303120Y326710D01*
X302660Y327508D01*
X302008Y328159D01*
X301210Y328620D01*
X300320Y328859D01*
X299946D01*
Y331356D01*
X300163Y331573D01*
X300683Y332474D01*
X300953Y333480D01*
Y334520D01*
X300683Y335526D01*
X300163Y336427D01*
X299427Y337163D01*
X298526Y337683D01*
X297520Y337953D01*
D02*
G37*
G36*
X442650Y326847D02*
X441350D01*
X440094Y326510D01*
X438969Y325860D01*
X438049Y324941D01*
X437399Y323815D01*
X437063Y322559D01*
Y321259D01*
X437399Y320004D01*
X438049Y318878D01*
X438969Y317959D01*
X440094Y317309D01*
X441350Y316972D01*
X442650D01*
X443906Y317309D01*
X445031Y317959D01*
X445951Y318878D01*
X446402Y319661D01*
X452286D01*
X452337Y319573D01*
X453073Y318837D01*
X453974Y318317D01*
X454980Y318047D01*
X456020D01*
X457026Y318317D01*
X457927Y318837D01*
X458663Y319573D01*
X459183Y320474D01*
X459453Y321480D01*
Y322520D01*
X459183Y323526D01*
X458663Y324427D01*
X457927Y325163D01*
X457026Y325683D01*
X456020Y325953D01*
X454980D01*
X453974Y325683D01*
X453073Y325163D01*
X452337Y324427D01*
X452234Y324249D01*
X446350D01*
X445951Y324941D01*
X445031Y325860D01*
X443906Y326510D01*
X442650Y326847D01*
D02*
G37*
G36*
X573456Y322598D02*
X572544D01*
X571664Y322363D01*
X570875Y321907D01*
X570231Y321263D01*
X569775Y320474D01*
X569539Y319593D01*
Y318682D01*
X569775Y317802D01*
X570231Y317013D01*
X570875Y316369D01*
X571664Y315913D01*
X572544Y315677D01*
X573456D01*
X574336Y315913D01*
X575125Y316369D01*
X575769Y317013D01*
X576225Y317802D01*
X576461Y318682D01*
Y319593D01*
X576225Y320474D01*
X575769Y321263D01*
X575125Y321907D01*
X574336Y322363D01*
X573456Y322598D01*
D02*
G37*
G36*
X228903Y333862D02*
X228018D01*
X227163Y333633D01*
X226396Y333190D01*
X225770Y332564D01*
X225327Y331798D01*
X225098Y330943D01*
Y330057D01*
X225327Y329202D01*
X225770Y328436D01*
X226167Y328039D01*
Y323039D01*
X226341Y322162D01*
X226838Y321417D01*
X231500Y316756D01*
Y316039D01*
X231738Y315149D01*
X232199Y314351D01*
X232851Y313699D01*
X233649Y313239D01*
X234539Y313000D01*
X235461D01*
X236351Y313239D01*
X237149Y313699D01*
X237801Y314351D01*
X238262Y315149D01*
X238500Y316039D01*
Y316961D01*
X238262Y317851D01*
X237801Y318649D01*
X237149Y319301D01*
X236351Y319761D01*
X235461Y320000D01*
X234744D01*
X230755Y323990D01*
Y328039D01*
X231151Y328436D01*
X231594Y329202D01*
X231823Y330057D01*
Y330943D01*
X231594Y331798D01*
X231151Y332564D01*
X230525Y333190D01*
X229758Y333633D01*
X228903Y333862D01*
D02*
G37*
G36*
X586461Y312598D02*
X579539D01*
Y305677D01*
X586461D01*
Y312598D01*
D02*
G37*
G36*
X563456D02*
X562544D01*
X561664Y312363D01*
X560875Y311907D01*
X560231Y311263D01*
X559775Y310473D01*
X559539Y309593D01*
Y308682D01*
X559775Y307802D01*
X560231Y307013D01*
X560875Y306369D01*
X561664Y305913D01*
X562544Y305677D01*
X563456D01*
X564336Y305913D01*
X565125Y306369D01*
X565769Y307013D01*
X566225Y307802D01*
X566461Y308682D01*
Y309593D01*
X566225Y310473D01*
X565769Y311263D01*
X565125Y311907D01*
X564336Y312363D01*
X563456Y312598D01*
D02*
G37*
G36*
X359520Y309953D02*
X358480D01*
X357474Y309683D01*
X356573Y309163D01*
X355837Y308427D01*
X355317Y307526D01*
X355047Y306520D01*
Y305480D01*
X355317Y304474D01*
X355837Y303573D01*
X356573Y302837D01*
X357474Y302317D01*
X358480Y302047D01*
X359520D01*
X360526Y302317D01*
X361427Y302837D01*
X362163Y303573D01*
X362683Y304474D01*
X362953Y305480D01*
Y306520D01*
X362683Y307526D01*
X362163Y308427D01*
X361427Y309163D01*
X360526Y309683D01*
X359520Y309953D01*
D02*
G37*
G36*
X307520Y337953D02*
X306480D01*
X305474Y337683D01*
X304573Y337163D01*
X303837Y336427D01*
X303317Y335526D01*
X303047Y334520D01*
Y333480D01*
X303317Y332474D01*
X303837Y331573D01*
X304573Y330837D01*
X304706Y330760D01*
Y323450D01*
X296550Y315294D01*
X271500D01*
X270622Y315120D01*
X269878Y314622D01*
X256050Y300794D01*
X245921D01*
X245525Y301190D01*
X244758Y301633D01*
X243903Y301862D01*
X243343D01*
X213083Y332122D01*
X212338Y332620D01*
X211461Y332794D01*
X165961D01*
X165564Y333190D01*
X164798Y333633D01*
X163943Y333862D01*
X163057D01*
X162202Y333633D01*
X161436Y333190D01*
X160810Y332564D01*
X160367Y331798D01*
X160138Y330943D01*
Y330057D01*
X160367Y329202D01*
X160810Y328436D01*
X161436Y327810D01*
X162202Y327367D01*
X163057Y327138D01*
X163943D01*
X164798Y327367D01*
X165564Y327810D01*
X165961Y328206D01*
X210510D01*
X240098Y298618D01*
Y298057D01*
X240328Y297202D01*
X240770Y296436D01*
X241396Y295810D01*
X242163Y295367D01*
X243018Y295138D01*
X243903D01*
X244758Y295367D01*
X245525Y295810D01*
X245921Y296206D01*
X255758D01*
X255949Y295744D01*
X252999Y292794D01*
X239500D01*
X238622Y292619D01*
X237878Y292122D01*
X224508Y278752D01*
X224495Y278756D01*
X223505D01*
X222550Y278500D01*
X221694Y278006D01*
X220994Y277306D01*
X220988Y277294D01*
X181512D01*
X181506Y277306D01*
X180806Y278006D01*
X179950Y278500D01*
X178995Y278756D01*
X178006D01*
X177050Y278500D01*
X176194Y278006D01*
X175495Y277306D01*
X175000Y276450D01*
X174744Y275495D01*
Y274505D01*
X175000Y273550D01*
X175495Y272694D01*
X176194Y271994D01*
X177050Y271500D01*
X178006Y271244D01*
X178995D01*
X179950Y271500D01*
X180806Y271994D01*
X181506Y272694D01*
X181512Y272706D01*
X220988D01*
X220994Y272694D01*
X221694Y271994D01*
X222550Y271500D01*
X223505Y271244D01*
X224495D01*
X225450Y271500D01*
X226306Y271994D01*
X227006Y272694D01*
X227500Y273550D01*
X227756Y274505D01*
Y275495D01*
X227752Y275508D01*
X240450Y288206D01*
X253950D01*
X254828Y288381D01*
X255572Y288878D01*
X271603Y304909D01*
X277047D01*
Y298047D01*
X284953D01*
Y300187D01*
X285453Y300296D01*
X285878Y299660D01*
X288410Y297128D01*
X289155Y296631D01*
X290033Y296456D01*
X297750D01*
X298628Y296631D01*
X299372Y297128D01*
X308450Y306206D01*
X309493D01*
X309558Y305706D01*
X309474Y305683D01*
X308573Y305163D01*
X307837Y304427D01*
X307317Y303526D01*
X307047Y302520D01*
Y301480D01*
X307317Y300474D01*
X307837Y299573D01*
X308573Y298837D01*
X309474Y298317D01*
X310480Y298047D01*
X311520D01*
X312526Y298317D01*
X313427Y298837D01*
X314163Y299573D01*
X314683Y300474D01*
X314953Y301480D01*
Y302520D01*
X314683Y303526D01*
X314163Y304427D01*
X313427Y305163D01*
X312526Y305683D01*
X312442Y305706D01*
X312507Y306206D01*
X313229D01*
X319381Y300053D01*
X319190Y299591D01*
X316297D01*
X315419Y299417D01*
X314675Y298919D01*
X311669Y295913D01*
X311520Y295953D01*
X310480D01*
X309474Y295683D01*
X308573Y295163D01*
X307837Y294427D01*
X307317Y293526D01*
X307047Y292520D01*
Y291480D01*
X307087Y291331D01*
X300256Y284500D01*
X299539D01*
X298649Y284261D01*
X297851Y283801D01*
X297199Y283149D01*
X296739Y282351D01*
X296500Y281461D01*
Y280539D01*
X296739Y279649D01*
X297199Y278851D01*
X297851Y278199D01*
X298649Y277738D01*
X299539Y277500D01*
X300461D01*
X301351Y277738D01*
X302149Y278199D01*
X302801Y278851D01*
X303261Y279649D01*
X303500Y280539D01*
Y281256D01*
X310331Y288087D01*
X310480Y288047D01*
X311520D01*
X312526Y288317D01*
X313427Y288837D01*
X314163Y289573D01*
X314240Y289706D01*
X437050D01*
X446378Y280378D01*
X453587Y273169D01*
X453547Y273020D01*
Y271980D01*
X453817Y270974D01*
X454337Y270073D01*
X455073Y269337D01*
X455974Y268817D01*
X456980Y268547D01*
X458020D01*
X459026Y268817D01*
X459927Y269337D01*
X460663Y270073D01*
X461183Y270974D01*
X461453Y271980D01*
Y273020D01*
X461183Y274026D01*
X460663Y274927D01*
X459927Y275663D01*
X459026Y276183D01*
X458020Y276453D01*
X456980D01*
X456831Y276413D01*
X450294Y282950D01*
Y303550D01*
X454831Y308087D01*
X454980Y308047D01*
X456020D01*
X457026Y308317D01*
X457927Y308837D01*
X458663Y309573D01*
X459183Y310474D01*
X459453Y311480D01*
Y312520D01*
X459413Y312669D01*
X465727Y318982D01*
X466149Y318739D01*
X467039Y318500D01*
X467961D01*
X468851Y318739D01*
X469649Y319199D01*
X470301Y319851D01*
X470761Y320649D01*
X471000Y321539D01*
Y322461D01*
X470761Y323351D01*
X470301Y324149D01*
X469649Y324801D01*
X468851Y325261D01*
X467961Y325500D01*
X467039D01*
X466149Y325261D01*
X465351Y324801D01*
X464699Y324149D01*
X464690Y324133D01*
X464622Y324119D01*
X463878Y323622D01*
X456169Y315913D01*
X456020Y315953D01*
X454980D01*
X453974Y315683D01*
X453073Y315163D01*
X452337Y314427D01*
X452260Y314294D01*
X430950D01*
X428528Y316716D01*
X429005Y317194D01*
X429500Y318050D01*
X429756Y319005D01*
Y319994D01*
X429500Y320950D01*
X429005Y321806D01*
X428306Y322505D01*
X427450Y323000D01*
X426495Y323256D01*
X425505D01*
X424550Y323000D01*
X423694Y322505D01*
X422995Y321806D01*
X422500Y320950D01*
X422244Y319994D01*
Y319005D01*
X422500Y318050D01*
X422995Y317194D01*
X423694Y316494D01*
X423706Y316488D01*
Y316000D01*
X423881Y315122D01*
X424378Y314378D01*
X428378Y310378D01*
X429122Y309880D01*
X430000Y309706D01*
X449308D01*
X449500Y309244D01*
X446378Y306122D01*
X445881Y305378D01*
X445706Y304500D01*
Y288192D01*
X445244Y288000D01*
X439622Y293622D01*
X438878Y294120D01*
X438000Y294294D01*
X317491D01*
X317245Y294794D01*
X317407Y295003D01*
X332605D01*
X333483Y295178D01*
X334227Y295675D01*
X354372Y315820D01*
X354547Y316082D01*
X355047Y315931D01*
Y315480D01*
X355317Y314474D01*
X355837Y313573D01*
X356573Y312837D01*
X357474Y312317D01*
X358480Y312047D01*
X359520D01*
X360526Y312317D01*
X361427Y312837D01*
X362163Y313573D01*
X362502Y314161D01*
X408598D01*
X409049Y313378D01*
X409969Y312459D01*
X411094Y311809D01*
X412350Y311472D01*
X413650D01*
X414906Y311809D01*
X416031Y312459D01*
X416951Y313378D01*
X417601Y314504D01*
X417937Y315759D01*
Y317059D01*
X417601Y318315D01*
X416951Y319441D01*
X416031Y320360D01*
X414906Y321010D01*
X413650Y321346D01*
X412350D01*
X411094Y321010D01*
X409969Y320360D01*
X409049Y319441D01*
X408650Y318749D01*
X361841D01*
X361427Y319163D01*
X360526Y319683D01*
X359520Y319953D01*
X358480D01*
X357474Y319683D01*
X356573Y319163D01*
X355837Y318427D01*
X355544Y317920D01*
X355044Y318054D01*
Y318800D01*
X358331Y322087D01*
X358480Y322047D01*
X359520D01*
X360526Y322317D01*
X361427Y322837D01*
X362163Y323573D01*
X362683Y324474D01*
X362953Y325480D01*
Y326520D01*
X362683Y327526D01*
X362163Y328427D01*
X361427Y329163D01*
X360526Y329683D01*
X359520Y329953D01*
X358480D01*
X357474Y329683D01*
X356573Y329163D01*
X355837Y328427D01*
X355317Y327526D01*
X355047Y326520D01*
Y325480D01*
X355087Y325331D01*
X352006Y322250D01*
X351544Y322442D01*
Y323968D01*
X351370Y324845D01*
X350872Y325590D01*
X348090Y328372D01*
X347345Y328870D01*
X346467Y329044D01*
X339750D01*
X338872Y328870D01*
X338128Y328372D01*
X329669Y319913D01*
X329520Y319953D01*
X328480D01*
X327474Y319683D01*
X326573Y319163D01*
X325837Y318427D01*
X325317Y317526D01*
X325047Y316520D01*
Y315480D01*
X325317Y314474D01*
X325837Y313573D01*
X326573Y312837D01*
X327474Y312317D01*
X328480Y312047D01*
X329520D01*
X330526Y312317D01*
X331427Y312837D01*
X332163Y313573D01*
X332683Y314474D01*
X332953Y315480D01*
Y316520D01*
X332913Y316669D01*
X340700Y324456D01*
X341340D01*
X341588Y323956D01*
X341238Y323351D01*
X341000Y322461D01*
Y321539D01*
X341009Y321504D01*
X329458Y309953D01*
X328480D01*
X327474Y309683D01*
X326573Y309163D01*
X325837Y308427D01*
X325317Y307526D01*
X325047Y306520D01*
Y305480D01*
X325317Y304474D01*
X325826Y303591D01*
X325762Y303325D01*
X325665Y303091D01*
X322832D01*
X315801Y310122D01*
X315057Y310619D01*
X314179Y310794D01*
X307500D01*
X306622Y310619D01*
X305878Y310122D01*
X296800Y301044D01*
X295014D01*
X294880Y301544D01*
X295149Y301699D01*
X295801Y302351D01*
X296262Y303149D01*
X296500Y304039D01*
Y304961D01*
X296262Y305851D01*
X295801Y306649D01*
X295149Y307301D01*
X294351Y307762D01*
X293461Y308000D01*
X293421D01*
X292645Y308775D01*
X292622Y308810D01*
X291188Y310244D01*
X291380Y310706D01*
X297500D01*
X298378Y310880D01*
X299122Y311378D01*
X308622Y320878D01*
X309120Y321622D01*
X309294Y322500D01*
Y330760D01*
X309427Y330837D01*
X310163Y331573D01*
X310683Y332474D01*
X310953Y333480D01*
Y334520D01*
X310683Y335526D01*
X310163Y336427D01*
X309427Y337163D01*
X308526Y337683D01*
X307520Y337953D01*
D02*
G37*
G36*
X489453Y305953D02*
X481547D01*
Y298047D01*
X489453D01*
Y305953D01*
D02*
G37*
G36*
X456020D02*
X454980D01*
X453974Y305683D01*
X453073Y305163D01*
X452337Y304427D01*
X451817Y303526D01*
X451547Y302520D01*
Y301480D01*
X451817Y300474D01*
X452337Y299573D01*
X453073Y298837D01*
X453974Y298317D01*
X454980Y298047D01*
X456020D01*
X457026Y298317D01*
X457927Y298837D01*
X458663Y299573D01*
X459183Y300474D01*
X459453Y301480D01*
Y302520D01*
X459183Y303526D01*
X458663Y304427D01*
X457927Y305163D01*
X457026Y305683D01*
X456020Y305953D01*
D02*
G37*
G36*
X267961Y298500D02*
X267039D01*
X266149Y298261D01*
X265351Y297801D01*
X264699Y297149D01*
X264239Y296351D01*
X264000Y295461D01*
Y294539D01*
X264239Y293649D01*
X264699Y292851D01*
X265351Y292199D01*
X266149Y291739D01*
X267039Y291500D01*
X267756D01*
X268878Y290378D01*
X269622Y289880D01*
X270500Y289706D01*
X277760D01*
X277837Y289573D01*
X278573Y288837D01*
X279474Y288317D01*
X280480Y288047D01*
X281520D01*
X282526Y288317D01*
X283427Y288837D01*
X284163Y289573D01*
X284683Y290474D01*
X284953Y291480D01*
Y292520D01*
X284683Y293526D01*
X284163Y294427D01*
X283427Y295163D01*
X282526Y295683D01*
X281520Y295953D01*
X280480D01*
X279474Y295683D01*
X278573Y295163D01*
X277837Y294427D01*
X277760Y294294D01*
X271450D01*
X271000Y294744D01*
Y295461D01*
X270761Y296351D01*
X270301Y297149D01*
X269649Y297801D01*
X268851Y298261D01*
X267961Y298500D01*
D02*
G37*
G36*
X458020Y286453D02*
X456980D01*
X455974Y286183D01*
X455073Y285663D01*
X454337Y284927D01*
X453817Y284026D01*
X453547Y283020D01*
Y281980D01*
X453817Y280974D01*
X454337Y280073D01*
X455073Y279337D01*
X455974Y278817D01*
X456980Y278547D01*
X458020D01*
X459026Y278817D01*
X459927Y279337D01*
X460663Y280073D01*
X461183Y280974D01*
X461453Y281980D01*
Y283020D01*
X461183Y284026D01*
X460663Y284927D01*
X459927Y285663D01*
X459026Y286183D01*
X458020Y286453D01*
D02*
G37*
G36*
X431453D02*
X423547D01*
Y278547D01*
X431453D01*
Y286453D01*
D02*
G37*
G36*
X311520Y285953D02*
X310480D01*
X309474Y285683D01*
X308573Y285163D01*
X307837Y284427D01*
X307317Y283526D01*
X307047Y282520D01*
Y281480D01*
X307317Y280474D01*
X307837Y279573D01*
X308573Y278837D01*
X309474Y278317D01*
X310480Y278047D01*
X311520D01*
X312526Y278317D01*
X313427Y278837D01*
X314163Y279573D01*
X314240Y279706D01*
X319344D01*
X319851Y279199D01*
X320649Y278738D01*
X321539Y278500D01*
X322461D01*
X323351Y278738D01*
X324149Y279199D01*
X324801Y279851D01*
X325261Y280649D01*
X325500Y281539D01*
Y282461D01*
X325261Y283351D01*
X324801Y284149D01*
X324149Y284801D01*
X323351Y285262D01*
X322461Y285500D01*
X321539D01*
X320649Y285262D01*
X319851Y284801D01*
X319344Y284294D01*
X314240D01*
X314163Y284427D01*
X313427Y285163D01*
X312526Y285683D01*
X311520Y285953D01*
D02*
G37*
G36*
X573456Y271098D02*
X572544D01*
X571664Y270863D01*
X570875Y270407D01*
X570231Y269763D01*
X569775Y268973D01*
X569539Y268093D01*
Y267182D01*
X569775Y266302D01*
X570231Y265513D01*
X570875Y264869D01*
X571664Y264413D01*
X572544Y264177D01*
X573456D01*
X574336Y264413D01*
X575125Y264869D01*
X575769Y265513D01*
X576225Y266302D01*
X576461Y267182D01*
Y268093D01*
X576225Y268973D01*
X575769Y269763D01*
X575125Y270407D01*
X574336Y270863D01*
X573456Y271098D01*
D02*
G37*
G36*
X586461Y261098D02*
X579539D01*
Y254177D01*
X586461D01*
Y261098D01*
D02*
G37*
G36*
X563456D02*
X562544D01*
X561664Y260863D01*
X560875Y260407D01*
X560231Y259763D01*
X559775Y258974D01*
X559539Y258093D01*
Y257182D01*
X559775Y256302D01*
X560231Y255513D01*
X560875Y254869D01*
X561664Y254413D01*
X562544Y254177D01*
X563456D01*
X564336Y254413D01*
X565125Y254869D01*
X565769Y255513D01*
X566225Y256302D01*
X566461Y257182D01*
Y258093D01*
X566225Y258974D01*
X565769Y259763D01*
X565125Y260407D01*
X564336Y260863D01*
X563456Y261098D01*
D02*
G37*
G36*
X178943Y301862D02*
X178057D01*
X177202Y301633D01*
X176436Y301190D01*
X175810Y300564D01*
X175367Y299798D01*
X175138Y298943D01*
Y298382D01*
X160878Y284122D01*
X160380Y283378D01*
X160206Y282500D01*
Y279500D01*
X160380Y278622D01*
X160878Y277878D01*
X172878Y265878D01*
X173622Y265381D01*
X174500Y265206D01*
X198924D01*
X198973Y264706D01*
X198538Y264619D01*
X197794Y264122D01*
X185966Y252294D01*
X170303D01*
X169907Y252690D01*
X169140Y253133D01*
X168285Y253362D01*
X167400D01*
X166545Y253133D01*
X165778Y252690D01*
X165152Y252064D01*
X164709Y251298D01*
X164480Y250443D01*
Y249882D01*
X146378Y231780D01*
X145880Y231035D01*
X145706Y230157D01*
Y221694D01*
X145331Y221478D01*
X144522Y220669D01*
X143950Y219678D01*
X143654Y218572D01*
Y217428D01*
X143950Y216322D01*
X144522Y215331D01*
X145331Y214522D01*
X146322Y213950D01*
X147428Y213653D01*
X148572D01*
X149678Y213950D01*
X150669Y214522D01*
X151478Y215331D01*
X152050Y216322D01*
X152347Y217428D01*
Y218572D01*
X152050Y219678D01*
X151478Y220669D01*
X150669Y221478D01*
X150294Y221694D01*
Y229207D01*
X167725Y246638D01*
X168285D01*
X169140Y246867D01*
X169907Y247310D01*
X170303Y247706D01*
X186916D01*
X187794Y247881D01*
X188539Y248378D01*
X198282Y258121D01*
X198744Y257930D01*
Y253134D01*
X203012D01*
X210241Y245904D01*
X210230Y245754D01*
X210124Y245404D01*
X205512D01*
X205505Y245416D01*
X204806Y246116D01*
X203950Y246610D01*
X202994Y246866D01*
X202006D01*
X201050Y246610D01*
X200194Y246116D01*
X199495Y245416D01*
X199184Y244879D01*
X195994D01*
X195116Y244704D01*
X194372Y244207D01*
X177382Y227217D01*
X176559Y227437D01*
X175259D01*
X174004Y227101D01*
X172878Y226451D01*
X171959Y225531D01*
X171309Y224406D01*
X170972Y223150D01*
Y221850D01*
X171309Y220594D01*
X171959Y219469D01*
X172878Y218549D01*
X173911Y217953D01*
Y204796D01*
X173469Y204541D01*
X172549Y203622D01*
X172071Y202794D01*
X168450D01*
X161622Y209622D01*
X160878Y210120D01*
X160000Y210294D01*
X151694D01*
X151478Y210669D01*
X150669Y211478D01*
X149678Y212050D01*
X148572Y212347D01*
X147428D01*
X146322Y212050D01*
X145331Y211478D01*
X144522Y210669D01*
X143950Y209678D01*
X143654Y208572D01*
Y207428D01*
X143950Y206322D01*
X144388Y205564D01*
X143988Y205257D01*
X139794Y209450D01*
Y238392D01*
X148039Y246638D01*
X151520D01*
Y253362D01*
X150623D01*
Y271889D01*
X150806Y271994D01*
X151505Y272694D01*
X152000Y273550D01*
X152256Y274505D01*
Y275495D01*
X152000Y276450D01*
X151505Y277306D01*
X150806Y278006D01*
X149950Y278500D01*
X148995Y278756D01*
X148005D01*
X147050Y278500D01*
X146194Y278006D01*
X145494Y277306D01*
X145000Y276450D01*
X144744Y275495D01*
Y274505D01*
X145000Y273550D01*
X145494Y272694D01*
X146035Y272154D01*
Y253362D01*
X144795D01*
Y249882D01*
X135878Y240965D01*
X135380Y240220D01*
X135206Y239343D01*
Y208500D01*
X135380Y207622D01*
X135878Y206878D01*
X143654Y199102D01*
Y196898D01*
X134378Y187622D01*
X133880Y186878D01*
X133706Y186000D01*
Y154500D01*
X133880Y153622D01*
X134378Y152878D01*
X139751Y147505D01*
X140218Y147193D01*
X140652Y146441D01*
X141315Y145778D01*
X142126Y145309D01*
X143031Y145067D01*
X143969D01*
X144874Y145309D01*
X145685Y145778D01*
X146348Y146441D01*
X146817Y147252D01*
X147059Y148157D01*
Y149095D01*
X146817Y150000D01*
X146348Y150811D01*
X145685Y151474D01*
X144874Y151943D01*
X143969Y152185D01*
X143031D01*
X142126Y151943D01*
X141921Y151824D01*
X141265Y152479D01*
X141457Y152941D01*
X147059D01*
Y154206D01*
X150000D01*
X150878Y154381D01*
X151622Y154878D01*
X174450Y177706D01*
X199409D01*
X200287Y177881D01*
X201032Y178378D01*
X216028Y193374D01*
X216850Y193154D01*
X218150D01*
X219406Y193490D01*
X220531Y194140D01*
X221451Y195059D01*
X222101Y196185D01*
X222437Y197441D01*
Y198740D01*
X222101Y199996D01*
X221451Y201122D01*
X220531Y202041D01*
X219794Y202467D01*
Y217563D01*
X222028D01*
Y227437D01*
X214869D01*
X214678Y227899D01*
X215985Y229206D01*
X227648D01*
X237476Y219378D01*
X238220Y218881D01*
X239098Y218706D01*
X251000D01*
X251878Y218881D01*
X252622Y219378D01*
X259622Y226378D01*
X260120Y227122D01*
X260294Y228000D01*
Y228744D01*
X267256D01*
Y230206D01*
X272550D01*
X296206Y206550D01*
Y200950D01*
X294808Y199553D01*
X294346Y199744D01*
Y205847D01*
X285653D01*
Y203794D01*
X258610D01*
X257732Y203620D01*
X256988Y203122D01*
X250622Y196756D01*
X246354D01*
Y195294D01*
X228500D01*
X227622Y195120D01*
X226878Y194622D01*
X204378Y172122D01*
X203881Y171378D01*
X203706Y170500D01*
Y152091D01*
X203881Y151213D01*
X204378Y150468D01*
X212653Y142193D01*
Y135563D01*
X222528D01*
Y145437D01*
X219794D01*
Y151972D01*
X222437D01*
Y152206D01*
X241854D01*
Y150744D01*
X249366D01*
Y158256D01*
X241854D01*
Y156794D01*
X222437D01*
Y161846D01*
X212563D01*
Y151972D01*
X215206D01*
Y146782D01*
X214744Y146591D01*
X208294Y153041D01*
Y169550D01*
X229450Y190706D01*
X246354D01*
Y189244D01*
X253866D01*
Y193512D01*
X259560Y199206D01*
X285653D01*
Y197153D01*
X291756D01*
X291947Y196692D01*
X290990Y195735D01*
X290572Y195846D01*
X289428D01*
X288322Y195550D01*
X287747Y195218D01*
X287365Y195294D01*
X266902D01*
X266895Y195306D01*
X266196Y196005D01*
X265339Y196500D01*
X264384Y196756D01*
X263395D01*
X262440Y196500D01*
X261584Y196005D01*
X260884Y195306D01*
X260390Y194450D01*
X260134Y193494D01*
Y192506D01*
X260180Y192334D01*
X257768Y189921D01*
X257270Y189177D01*
X257096Y188299D01*
Y157512D01*
X257084Y157506D01*
X256384Y156806D01*
X255890Y155950D01*
X255634Y154994D01*
Y154006D01*
X255890Y153050D01*
X256384Y152194D01*
X257084Y151495D01*
X257940Y151000D01*
X258895Y150744D01*
X259884D01*
X260840Y151000D01*
X261696Y151495D01*
X262157Y151956D01*
X275955D01*
X275967Y151936D01*
X276593Y151310D01*
X277360Y150867D01*
X278215Y150638D01*
X279100D01*
X279955Y150867D01*
X280722Y151310D01*
X281348Y151936D01*
X281790Y152702D01*
X282020Y153557D01*
Y154443D01*
X281790Y155298D01*
X281348Y156064D01*
X280722Y156690D01*
X279955Y157133D01*
X279100Y157362D01*
X278215D01*
X277360Y157133D01*
X276593Y156690D01*
X276447Y156544D01*
X262546D01*
X262395Y156806D01*
X261696Y157506D01*
X261684Y157512D01*
Y187349D01*
X263579Y189244D01*
X264384D01*
X265339Y189500D01*
X266196Y189995D01*
X266895Y190694D01*
X266902Y190706D01*
X285713D01*
X285950Y189822D01*
X286522Y188831D01*
X287331Y188022D01*
X288322Y187450D01*
X289428Y187153D01*
X290572D01*
X291678Y187450D01*
X292669Y188022D01*
X293478Y188831D01*
X294050Y189822D01*
X294346Y190928D01*
Y192072D01*
X294234Y192490D01*
X300122Y198378D01*
X300620Y199122D01*
X300794Y200000D01*
Y207500D01*
X300620Y208378D01*
X300122Y209122D01*
X275122Y234122D01*
X274378Y234619D01*
X273500Y234794D01*
X269692D01*
X269500Y235256D01*
X277972Y243728D01*
X279323D01*
X279351Y243699D01*
X280149Y243238D01*
X281039Y243000D01*
X281961D01*
X282851Y243238D01*
X283649Y243699D01*
X284156Y244206D01*
X298550D01*
X312248Y230508D01*
X312244Y230494D01*
Y229505D01*
X312500Y228550D01*
X312995Y227694D01*
X313694Y226994D01*
X313706Y226988D01*
Y214500D01*
X313880Y213622D01*
X314378Y212878D01*
X323378Y203878D01*
X324122Y203380D01*
X325000Y203206D01*
X337392D01*
X342980Y197618D01*
Y197057D01*
X343209Y196202D01*
X343652Y195436D01*
X343877Y195210D01*
Y176816D01*
X343851Y176801D01*
X343199Y176149D01*
X342739Y175351D01*
X342500Y174461D01*
Y173539D01*
X342739Y172649D01*
X343199Y171851D01*
X343851Y171199D01*
X343956Y171139D01*
Y167750D01*
X344130Y166872D01*
X344628Y166128D01*
X364638Y146118D01*
Y145557D01*
X364867Y144702D01*
X365310Y143936D01*
X365936Y143310D01*
X366702Y142867D01*
X366974Y142794D01*
X366908Y142294D01*
X313293D01*
X301705Y153882D01*
Y157362D01*
X300637D01*
Y166047D01*
X301351Y166238D01*
X302149Y166699D01*
X302801Y167351D01*
X303261Y168149D01*
X303500Y169039D01*
Y169961D01*
X303261Y170851D01*
X302801Y171649D01*
X302149Y172301D01*
X301351Y172761D01*
X300461Y173000D01*
X299539D01*
X298649Y172761D01*
X297851Y172301D01*
X297199Y171649D01*
X296739Y170851D01*
X296500Y169961D01*
Y169039D01*
X296611Y168625D01*
X296223Y168044D01*
X296048Y167166D01*
Y160192D01*
X295587Y160000D01*
X292294Y163293D01*
Y177806D01*
X292669Y178022D01*
X293478Y178831D01*
X294050Y179822D01*
X294346Y180928D01*
Y182072D01*
X294050Y183178D01*
X293478Y184169D01*
X292669Y184978D01*
X291678Y185550D01*
X290572Y185846D01*
X289428D01*
X288322Y185550D01*
X287331Y184978D01*
X286522Y184169D01*
X285950Y183178D01*
X285653Y182072D01*
Y180928D01*
X285950Y179822D01*
X286522Y178831D01*
X287331Y178022D01*
X287706Y177806D01*
Y162343D01*
X287880Y161465D01*
X288378Y160720D01*
X294980Y154118D01*
Y150638D01*
X298461D01*
X310720Y138378D01*
X311465Y137881D01*
X312343Y137706D01*
X536000D01*
X536878Y137881D01*
X537622Y138378D01*
X552492Y153248D01*
X552505Y153244D01*
X553495D01*
X554450Y153500D01*
X555306Y153995D01*
X556005Y154694D01*
X556500Y155550D01*
X556756Y156506D01*
Y157494D01*
X556500Y158450D01*
X556005Y159306D01*
X555306Y160005D01*
X554450Y160500D01*
X553681Y160706D01*
X553747Y161206D01*
X584344D01*
X584851Y160699D01*
X585649Y160239D01*
X586539Y160000D01*
X587461D01*
X588351Y160239D01*
X589149Y160699D01*
X589801Y161351D01*
X590262Y162149D01*
X590500Y163039D01*
Y163961D01*
X590262Y164851D01*
X589801Y165649D01*
X589149Y166301D01*
X588351Y166762D01*
X587461Y167000D01*
X586539D01*
X585649Y166762D01*
X584851Y166301D01*
X584344Y165794D01*
X507793D01*
X479294Y194293D01*
Y209539D01*
X479690Y209936D01*
X480133Y210702D01*
X480362Y211557D01*
Y212443D01*
X480133Y213298D01*
X479690Y214064D01*
X479064Y214690D01*
X478298Y215133D01*
X477443Y215362D01*
X476557D01*
X475702Y215133D01*
X474936Y214690D01*
X474539Y214294D01*
X434500D01*
X433622Y214120D01*
X432878Y213622D01*
X417628Y198372D01*
X399915Y180659D01*
X399453Y180850D01*
Y186953D01*
X391547D01*
Y179047D01*
X397650D01*
X397841Y178585D01*
X396169Y176913D01*
X396020Y176953D01*
X394980D01*
X393974Y176683D01*
X393073Y176163D01*
X392337Y175427D01*
X391817Y174526D01*
X391547Y173520D01*
Y172480D01*
X391817Y171474D01*
X392337Y170573D01*
X393073Y169837D01*
X393974Y169317D01*
X394980Y169047D01*
X396020D01*
X397026Y169317D01*
X397927Y169837D01*
X398663Y170573D01*
X399183Y171474D01*
X399453Y172480D01*
Y173520D01*
X399413Y173669D01*
X420200Y194456D01*
X430142D01*
X441638Y182960D01*
Y179480D01*
X448362D01*
Y186205D01*
X444882D01*
X432715Y198372D01*
X431971Y198870D01*
X431093Y199044D01*
X425442D01*
X425250Y199506D01*
X435450Y209706D01*
X474539D01*
X474706Y209539D01*
Y193343D01*
X474881Y192465D01*
X475378Y191720D01*
X505220Y161878D01*
X505965Y161381D01*
X506843Y161206D01*
X552253D01*
X552319Y160706D01*
X551550Y160500D01*
X550694Y160005D01*
X549995Y159306D01*
X549500Y158450D01*
X549244Y157494D01*
Y156506D01*
X549248Y156492D01*
X535050Y142294D01*
X398692D01*
X398500Y142756D01*
X424831Y169087D01*
X424980Y169047D01*
X426020D01*
X427026Y169317D01*
X427927Y169837D01*
X428663Y170573D01*
X429183Y171474D01*
X429453Y172480D01*
Y173520D01*
X429183Y174526D01*
X428663Y175427D01*
X427927Y176163D01*
X427026Y176683D01*
X426020Y176953D01*
X424980D01*
X423974Y176683D01*
X423073Y176163D01*
X422337Y175427D01*
X421817Y174526D01*
X421547Y173520D01*
Y172480D01*
X421587Y172331D01*
X391550Y142294D01*
X369092D01*
X369026Y142794D01*
X369298Y142867D01*
X370064Y143310D01*
X370690Y143936D01*
X371133Y144702D01*
X371362Y145557D01*
Y146443D01*
X371133Y147298D01*
X370690Y148064D01*
X370064Y148690D01*
X369298Y149133D01*
X368443Y149362D01*
X367882D01*
X348544Y168700D01*
Y171594D01*
X348801Y171851D01*
X349261Y172649D01*
X349500Y173539D01*
Y174461D01*
X349261Y175351D01*
X348801Y176149D01*
X348465Y176485D01*
Y194868D01*
X349033Y195436D01*
X349476Y196202D01*
X349705Y197057D01*
Y197943D01*
X349476Y198798D01*
X349033Y199564D01*
X348407Y200190D01*
X347640Y200633D01*
X346785Y200862D01*
X346224D01*
X339965Y207122D01*
X339220Y207620D01*
X338342Y207794D01*
X325950D01*
X318294Y215450D01*
Y226988D01*
X318306Y226994D01*
X319005Y227694D01*
X319500Y228550D01*
X319756Y229505D01*
Y230494D01*
X319500Y231450D01*
X319005Y232306D01*
X318306Y233005D01*
X317450Y233500D01*
X316494Y233756D01*
X315506D01*
X315492Y233752D01*
X301122Y248122D01*
X300378Y248620D01*
X299500Y248794D01*
X284156D01*
X283649Y249301D01*
X282851Y249762D01*
X281961Y250000D01*
X281039D01*
X280149Y249762D01*
X279351Y249301D01*
X278699Y248649D01*
X278507Y248316D01*
X277022D01*
X276144Y248141D01*
X275399Y247644D01*
X266163Y238407D01*
X265684Y238552D01*
X265619Y238878D01*
X265122Y239622D01*
X246232Y258512D01*
X245488Y259009D01*
X244610Y259184D01*
X206256D01*
Y260206D01*
X416550D01*
X423587Y253169D01*
X423547Y253020D01*
Y251980D01*
X423817Y250974D01*
X424337Y250073D01*
X425073Y249337D01*
X425206Y249260D01*
Y226450D01*
X417550Y218794D01*
X360500D01*
X359622Y218619D01*
X358878Y218122D01*
X351378Y210622D01*
X350881Y209878D01*
X350706Y209000D01*
Y195500D01*
X350881Y194622D01*
X351378Y193878D01*
X391587Y153669D01*
X391547Y153520D01*
Y152480D01*
X391817Y151474D01*
X392337Y150573D01*
X393073Y149837D01*
X393974Y149317D01*
X394980Y149047D01*
X396020D01*
X397026Y149317D01*
X397927Y149837D01*
X398663Y150573D01*
X399183Y151474D01*
X399453Y152480D01*
Y153520D01*
X399183Y154526D01*
X398663Y155427D01*
X397927Y156163D01*
X397026Y156683D01*
X396020Y156953D01*
X394980D01*
X394831Y156913D01*
X355294Y196450D01*
Y208050D01*
X361450Y214206D01*
X365897D01*
X366031Y213706D01*
X365936Y213651D01*
X365310Y213025D01*
X364867Y212258D01*
X364638Y211403D01*
Y210518D01*
X364867Y209663D01*
X365310Y208896D01*
X365936Y208270D01*
X366702Y207827D01*
X367557Y207598D01*
X368118D01*
X379343Y196373D01*
Y176863D01*
X379518Y175985D01*
X380015Y175241D01*
X391587Y163669D01*
X391547Y163520D01*
Y162480D01*
X391817Y161474D01*
X392337Y160573D01*
X393073Y159837D01*
X393974Y159317D01*
X394980Y159047D01*
X396020D01*
X397026Y159317D01*
X397927Y159837D01*
X398663Y160573D01*
X399183Y161474D01*
X399453Y162480D01*
Y163520D01*
X399183Y164526D01*
X398663Y165427D01*
X397927Y166163D01*
X397026Y166683D01*
X396020Y166953D01*
X394980D01*
X394831Y166913D01*
X383931Y177813D01*
Y197324D01*
X383756Y198202D01*
X383259Y198946D01*
X371362Y210843D01*
Y211403D01*
X371133Y212258D01*
X370690Y213025D01*
X370064Y213651D01*
X369969Y213706D01*
X370103Y214206D01*
X418500D01*
X419378Y214381D01*
X420122Y214878D01*
X429122Y223878D01*
X429619Y224622D01*
X429794Y225500D01*
Y249260D01*
X429927Y249337D01*
X430663Y250073D01*
X431183Y250974D01*
X431453Y251980D01*
Y253020D01*
X431183Y254026D01*
X430663Y254927D01*
X429927Y255663D01*
X429026Y256183D01*
X428020Y256453D01*
X426980D01*
X426831Y256413D01*
X419122Y264122D01*
X418378Y264619D01*
X417500Y264794D01*
X365307D01*
X365258Y265294D01*
X365693Y265381D01*
X366437Y265878D01*
X370492Y269933D01*
X370505Y269929D01*
X371495D01*
X372450Y270185D01*
X373306Y270680D01*
X374006Y271379D01*
X374500Y272235D01*
X374756Y273191D01*
Y274180D01*
X374500Y275135D01*
X374006Y275991D01*
X373306Y276691D01*
X372450Y277185D01*
X371495Y277441D01*
X370505D01*
X369550Y277185D01*
X368694Y276691D01*
X367994Y275991D01*
X367500Y275135D01*
X367244Y274180D01*
Y273191D01*
X367248Y273177D01*
X363865Y269794D01*
X348861D01*
X348801Y269899D01*
X348149Y270551D01*
X347351Y271011D01*
X346461Y271250D01*
X345539D01*
X344649Y271011D01*
X343851Y270551D01*
X343199Y269899D01*
X342739Y269101D01*
X342500Y268211D01*
Y267289D01*
X342739Y266399D01*
X343199Y265601D01*
X343506Y265294D01*
X343299Y264794D01*
X320707D01*
X320538Y265294D01*
X331492Y276248D01*
X331505Y276244D01*
X332494D01*
X333450Y276500D01*
X334306Y276994D01*
X335005Y277694D01*
X335013Y277706D01*
X341844D01*
X342351Y277199D01*
X343149Y276739D01*
X344039Y276500D01*
X344961D01*
X345851Y276739D01*
X346649Y277199D01*
X347301Y277851D01*
X347762Y278649D01*
X348000Y279539D01*
Y280461D01*
X347762Y281351D01*
X347301Y282149D01*
X346649Y282801D01*
X345851Y283261D01*
X344961Y283500D01*
X344039D01*
X343149Y283261D01*
X342351Y282801D01*
X341844Y282294D01*
X335013D01*
X335005Y282306D01*
X334306Y283005D01*
X333450Y283500D01*
X332494Y283756D01*
X331505D01*
X330550Y283500D01*
X329694Y283005D01*
X328994Y282306D01*
X328500Y281450D01*
X328244Y280494D01*
Y279505D01*
X328248Y279492D01*
X317847Y269091D01*
X314335D01*
X314238Y269325D01*
X314174Y269591D01*
X314683Y270474D01*
X314953Y271480D01*
Y272520D01*
X314683Y273526D01*
X314163Y274427D01*
X313427Y275163D01*
X312526Y275683D01*
X311520Y275953D01*
X310480D01*
X309474Y275683D01*
X308573Y275163D01*
X307837Y274427D01*
X307317Y273526D01*
X307047Y272520D01*
Y271480D01*
X307317Y270474D01*
X307826Y269591D01*
X307762Y269325D01*
X307665Y269091D01*
X287153D01*
X284913Y271331D01*
X284953Y271480D01*
Y272520D01*
X284683Y273526D01*
X284163Y274427D01*
X283427Y275163D01*
X282526Y275683D01*
X281520Y275953D01*
X280480D01*
X279474Y275683D01*
X278573Y275163D01*
X277837Y274427D01*
X277760Y274294D01*
X272156D01*
X271649Y274801D01*
X270851Y275261D01*
X269961Y275500D01*
X269039D01*
X268149Y275261D01*
X267351Y274801D01*
X266699Y274149D01*
X266238Y273351D01*
X266000Y272461D01*
Y271539D01*
X266238Y270649D01*
X266699Y269851D01*
X267351Y269199D01*
X268149Y268739D01*
X269039Y268500D01*
X269961D01*
X270851Y268739D01*
X271649Y269199D01*
X272156Y269706D01*
X277760D01*
X277837Y269573D01*
X278573Y268837D01*
X279474Y268317D01*
X280480Y268047D01*
X281520D01*
X281669Y268087D01*
X284462Y265294D01*
X284293Y264794D01*
X247692D01*
X247500Y265256D01*
X253492Y271248D01*
X253505Y271244D01*
X254495D01*
X255450Y271500D01*
X256306Y271994D01*
X257006Y272694D01*
X257500Y273550D01*
X257756Y274505D01*
Y275495D01*
X257500Y276450D01*
X257006Y277306D01*
X256306Y278006D01*
X255450Y278500D01*
X254495Y278756D01*
X253505D01*
X252550Y278500D01*
X251694Y278006D01*
X250994Y277306D01*
X250500Y276450D01*
X250244Y275495D01*
Y274505D01*
X250248Y274492D01*
X240550Y264794D01*
X233993D01*
X233943Y265294D01*
X234378Y265381D01*
X235122Y265878D01*
X248950Y279706D01*
X277760D01*
X277837Y279573D01*
X278573Y278837D01*
X279474Y278317D01*
X280480Y278047D01*
X281520D01*
X282526Y278317D01*
X283427Y278837D01*
X284163Y279573D01*
X284683Y280474D01*
X284953Y281480D01*
Y282520D01*
X284683Y283526D01*
X284163Y284427D01*
X283427Y285163D01*
X282526Y285683D01*
X281520Y285953D01*
X280480D01*
X279474Y285683D01*
X278573Y285163D01*
X277837Y284427D01*
X277760Y284294D01*
X248000D01*
X247122Y284120D01*
X246378Y283622D01*
X232550Y269794D01*
X175450D01*
X164794Y280450D01*
Y281550D01*
X178382Y295138D01*
X178943D01*
X179798Y295367D01*
X180564Y295810D01*
X181190Y296436D01*
X181633Y297202D01*
X181862Y298057D01*
Y298943D01*
X181633Y299798D01*
X181190Y300564D01*
X180564Y301190D01*
X179798Y301633D01*
X178943Y301862D01*
D02*
G37*
G36*
X371495Y257756D02*
X370505D01*
X369550Y257500D01*
X368694Y257006D01*
X367994Y256306D01*
X367500Y255450D01*
X367244Y254495D01*
Y253505D01*
X367500Y252550D01*
X367994Y251694D01*
X368694Y250994D01*
X368706Y250988D01*
Y246950D01*
X363550Y241794D01*
X343450D01*
X335752Y249492D01*
X335756Y249505D01*
Y250495D01*
X335500Y251450D01*
X335005Y252306D01*
X334306Y253006D01*
X333450Y253500D01*
X332494Y253756D01*
X331505D01*
X330550Y253500D01*
X329694Y253006D01*
X328994Y252306D01*
X328500Y251450D01*
X328244Y250495D01*
Y249505D01*
X328500Y248550D01*
X328994Y247694D01*
X329694Y246994D01*
X330550Y246500D01*
X331505Y246244D01*
X332494D01*
X332508Y246248D01*
X340878Y237878D01*
X341622Y237381D01*
X342500Y237206D01*
X364500D01*
X365378Y237381D01*
X366122Y237878D01*
X372622Y244378D01*
X373119Y245122D01*
X373294Y246000D01*
Y250988D01*
X373306Y250994D01*
X374006Y251694D01*
X374012Y251706D01*
X404844D01*
X405351Y251199D01*
X406149Y250739D01*
X407039Y250500D01*
X407961D01*
X408851Y250739D01*
X409649Y251199D01*
X410301Y251851D01*
X410761Y252649D01*
X411000Y253539D01*
Y254461D01*
X410761Y255351D01*
X410301Y256149D01*
X409649Y256801D01*
X408851Y257261D01*
X407961Y257500D01*
X407039D01*
X406149Y257261D01*
X405351Y256801D01*
X404844Y256294D01*
X374012D01*
X374006Y256306D01*
X373306Y257006D01*
X372450Y257500D01*
X371495Y257756D01*
D02*
G37*
G36*
X529362Y280520D02*
X522638D01*
Y273795D01*
X523706D01*
Y260461D01*
X523310Y260064D01*
X522867Y259298D01*
X522638Y258443D01*
Y257922D01*
X503618Y238902D01*
X503382D01*
X494162Y248122D01*
X493417Y248620D01*
X492539Y248794D01*
X459987D01*
X459853Y249294D01*
X459927Y249337D01*
X460663Y250073D01*
X461183Y250974D01*
X461453Y251980D01*
Y253020D01*
X461183Y254026D01*
X460663Y254927D01*
X459927Y255663D01*
X459026Y256183D01*
X458020Y256453D01*
X456980D01*
X455974Y256183D01*
X455073Y255663D01*
X454337Y254927D01*
X453817Y254026D01*
X453547Y253020D01*
Y252850D01*
X453085Y252659D01*
X432274Y273471D01*
X431530Y273968D01*
X431176Y274038D01*
X430663Y274927D01*
X429927Y275663D01*
X429026Y276183D01*
X428020Y276453D01*
X426980D01*
X425974Y276183D01*
X425073Y275663D01*
X424337Y274927D01*
X423817Y274026D01*
X423547Y273020D01*
Y271980D01*
X423817Y270974D01*
X424337Y270073D01*
X425073Y269337D01*
X425974Y268817D01*
X426980Y268547D01*
X428020D01*
X429026Y268817D01*
X429922Y269334D01*
X454378Y244878D01*
X455122Y244380D01*
X456000Y244206D01*
X491589D01*
X500138Y235657D01*
Y235097D01*
X500367Y234242D01*
X500810Y233475D01*
X501436Y232849D01*
X502202Y232406D01*
X503057Y232177D01*
X503943D01*
X504798Y232406D01*
X505564Y232849D01*
X506190Y233475D01*
X506633Y234242D01*
X506862Y235097D01*
Y235657D01*
X525843Y254638D01*
X526443D01*
X527298Y254867D01*
X528064Y255310D01*
X528690Y255936D01*
X529133Y256702D01*
X529362Y257557D01*
Y258443D01*
X529133Y259298D01*
X528690Y260064D01*
X528294Y260461D01*
Y273795D01*
X529362D01*
Y280520D01*
D02*
G37*
G36*
X544994Y242756D02*
X544005D01*
X543050Y242500D01*
X542194Y242005D01*
X541495Y241306D01*
X541000Y240450D01*
X540744Y239494D01*
Y238506D01*
X541000Y237550D01*
X541495Y236694D01*
X542194Y235995D01*
X543050Y235500D01*
X544005Y235244D01*
X544994D01*
X545950Y235500D01*
X546806Y235995D01*
X547506Y236694D01*
X548000Y237550D01*
X548256Y238506D01*
Y239494D01*
X548000Y240450D01*
X547506Y241306D01*
X546806Y242005D01*
X545950Y242500D01*
X544994Y242756D01*
D02*
G37*
G36*
X402461Y238000D02*
X401539D01*
X400649Y237761D01*
X399851Y237301D01*
X399344Y236794D01*
X390000D01*
X389122Y236619D01*
X388378Y236122D01*
X381550Y229294D01*
X333730D01*
X333536Y229488D01*
Y233756D01*
X326024D01*
Y226244D01*
X330291D01*
X331157Y225378D01*
X331902Y224881D01*
X332780Y224706D01*
X382500D01*
X383378Y224881D01*
X384122Y225378D01*
X390950Y232206D01*
X399344D01*
X399851Y231699D01*
X400649Y231239D01*
X401539Y231000D01*
X402461D01*
X403351Y231239D01*
X404149Y231699D01*
X404801Y232351D01*
X405262Y233149D01*
X405500Y234039D01*
Y234961D01*
X405262Y235851D01*
X404801Y236649D01*
X404149Y237301D01*
X403351Y237761D01*
X402461Y238000D01*
D02*
G37*
G36*
X330020Y200862D02*
X323295D01*
Y194138D01*
X330020D01*
Y200862D01*
D02*
G37*
G36*
X428020Y266453D02*
X426980D01*
X425974Y266183D01*
X425073Y265663D01*
X424337Y264927D01*
X423817Y264026D01*
X423547Y263020D01*
Y261980D01*
X423817Y260974D01*
X424337Y260073D01*
X425073Y259337D01*
X425974Y258817D01*
X426980Y258547D01*
X428020D01*
X428169Y258587D01*
X448766Y237990D01*
X449510Y237493D01*
X450388Y237318D01*
X473938D01*
X497378Y213878D01*
X498122Y213381D01*
X499000Y213206D01*
X537050D01*
X540748Y209508D01*
X540744Y209494D01*
Y208506D01*
X541000Y207550D01*
X541495Y206694D01*
X542194Y205995D01*
X542613Y205752D01*
Y195092D01*
X542788Y194215D01*
X543285Y193470D01*
X549248Y187508D01*
X549244Y187495D01*
Y186505D01*
X549500Y185550D01*
X549995Y184694D01*
X550694Y183994D01*
X551550Y183500D01*
X552505Y183244D01*
X553495D01*
X554450Y183500D01*
X555306Y183994D01*
X556005Y184694D01*
X556500Y185550D01*
X556756Y186505D01*
Y187495D01*
X556500Y188450D01*
X556005Y189306D01*
X555306Y190006D01*
X554450Y190500D01*
X553495Y190756D01*
X552505D01*
X552492Y190752D01*
X547202Y196043D01*
Y206390D01*
X547506Y206694D01*
X548000Y207550D01*
X548256Y208506D01*
Y209494D01*
X548000Y210450D01*
X547506Y211306D01*
X546806Y212005D01*
X545950Y212500D01*
X544994Y212756D01*
X544005D01*
X543992Y212752D01*
X539622Y217122D01*
X538878Y217619D01*
X538000Y217794D01*
X499950D01*
X476510Y241234D01*
X475766Y241732D01*
X474888Y241906D01*
X451338D01*
X431413Y261831D01*
X431453Y261980D01*
Y263020D01*
X431183Y264026D01*
X430663Y264927D01*
X429927Y265663D01*
X429026Y266183D01*
X428020Y266453D01*
D02*
G37*
G36*
X426020Y186953D02*
X424980D01*
X423974Y186683D01*
X423073Y186163D01*
X422337Y185427D01*
X421817Y184526D01*
X421547Y183520D01*
Y182480D01*
X421817Y181474D01*
X422337Y180573D01*
X423073Y179837D01*
X423974Y179317D01*
X424980Y179047D01*
X426020D01*
X427026Y179317D01*
X427927Y179837D01*
X428663Y180573D01*
X429183Y181474D01*
X429453Y182480D01*
Y183520D01*
X429183Y184526D01*
X428663Y185427D01*
X427927Y186163D01*
X427026Y186683D01*
X426020Y186953D01*
D02*
G37*
G36*
X333930Y177264D02*
X333070D01*
X332240Y177041D01*
X331496Y176612D01*
X330888Y176004D01*
X330459Y175260D01*
X330236Y174430D01*
Y173570D01*
X330459Y172740D01*
X330888Y171996D01*
X331496Y171388D01*
X332240Y170958D01*
X333070Y170736D01*
X333930D01*
X334760Y170958D01*
X335504Y171388D01*
X336112Y171996D01*
X336541Y172740D01*
X336764Y173570D01*
Y174430D01*
X336541Y175260D01*
X336112Y176004D01*
X335504Y176612D01*
X334760Y177041D01*
X333930Y177264D01*
D02*
G37*
G36*
X526443Y196402D02*
X525557D01*
X524702Y196172D01*
X523936Y195730D01*
X523310Y195104D01*
X522867Y194337D01*
X522638Y193482D01*
Y192597D01*
X522867Y191742D01*
X523310Y190975D01*
X523706Y190579D01*
Y173512D01*
X523694Y173505D01*
X522995Y172806D01*
X522500Y171950D01*
X522244Y170994D01*
Y170006D01*
X522500Y169050D01*
X522995Y168194D01*
X523694Y167494D01*
X524550Y167000D01*
X525505Y166744D01*
X526495D01*
X527450Y167000D01*
X528306Y167494D01*
X529005Y168194D01*
X529500Y169050D01*
X529756Y170006D01*
Y170994D01*
X529500Y171950D01*
X529005Y172806D01*
X528306Y173505D01*
X528294Y173512D01*
Y190579D01*
X528690Y190975D01*
X529133Y191742D01*
X529362Y192597D01*
Y193482D01*
X529133Y194337D01*
X528690Y195104D01*
X528064Y195730D01*
X527298Y196172D01*
X526443Y196402D01*
D02*
G37*
G36*
X323930Y167264D02*
X323070D01*
X322240Y167041D01*
X321496Y166612D01*
X320888Y166004D01*
X320459Y165260D01*
X320236Y164430D01*
Y163570D01*
X320459Y162740D01*
X320888Y161996D01*
X321496Y161388D01*
X322240Y160959D01*
X323070Y160736D01*
X323930D01*
X324760Y160959D01*
X325504Y161388D01*
X326112Y161996D01*
X326541Y162740D01*
X326764Y163570D01*
Y164430D01*
X326541Y165260D01*
X326112Y166004D01*
X325504Y166612D01*
X324760Y167041D01*
X323930Y167264D01*
D02*
G37*
G36*
X426020Y166953D02*
X424980D01*
X423974Y166683D01*
X423073Y166163D01*
X422337Y165427D01*
X421817Y164526D01*
X421547Y163520D01*
Y162480D01*
X421817Y161474D01*
X422337Y160573D01*
X423073Y159837D01*
X423974Y159317D01*
X424980Y159047D01*
X426020D01*
X427026Y159317D01*
X427927Y159837D01*
X428663Y160573D01*
X428785Y160785D01*
X442618D01*
X442936Y160467D01*
X443702Y160024D01*
X444557Y159795D01*
X445443D01*
X446298Y160024D01*
X447064Y160467D01*
X447461Y160863D01*
X455392D01*
X471378Y144878D01*
X472122Y144380D01*
X473000Y144206D01*
X475183D01*
X475702Y143906D01*
X476557Y143677D01*
X477443D01*
X478298Y143906D01*
X478817Y144206D01*
X507000D01*
X507878Y144380D01*
X508622Y144878D01*
X518171Y154426D01*
X522244D01*
Y152964D01*
X529756D01*
Y160476D01*
X522244D01*
Y159014D01*
X517220D01*
X516342Y158840D01*
X515598Y158343D01*
X506050Y148794D01*
X479869D01*
X479690Y149104D01*
X479064Y149730D01*
X478298Y150172D01*
X477443Y150402D01*
X476557D01*
X475702Y150172D01*
X474936Y149730D01*
X474310Y149104D01*
X473699Y149046D01*
X457965Y164780D01*
X457221Y165277D01*
X456343Y165452D01*
X447461D01*
X447064Y165848D01*
X446298Y166290D01*
X445443Y166520D01*
X444557D01*
X443702Y166290D01*
X442936Y165848D01*
X442460Y165373D01*
X428694D01*
X428663Y165427D01*
X427927Y166163D01*
X427026Y166683D01*
X426020Y166953D01*
D02*
G37*
G36*
X336764Y157264D02*
X330236D01*
Y150736D01*
X336764D01*
Y157264D01*
D02*
G37*
G36*
X426020Y156953D02*
X424980D01*
X423974Y156683D01*
X423073Y156163D01*
X422337Y155427D01*
X421817Y154526D01*
X421547Y153520D01*
Y152480D01*
X421817Y151474D01*
X422337Y150573D01*
X423073Y149837D01*
X423974Y149317D01*
X424980Y149047D01*
X426020D01*
X427026Y149317D01*
X427927Y149837D01*
X428663Y150573D01*
X429183Y151474D01*
X429453Y152480D01*
Y153520D01*
X429183Y154526D01*
X428663Y155427D01*
X427927Y156163D01*
X427026Y156683D01*
X426020Y156953D01*
D02*
G37*
G36*
X181437Y164347D02*
X171563D01*
Y154472D01*
X174115D01*
Y144876D01*
X173378Y144451D01*
X172459Y143531D01*
X172106Y142920D01*
X146358D01*
X146348Y142937D01*
X145685Y143600D01*
X144874Y144069D01*
X143969Y144311D01*
X143031D01*
X142126Y144069D01*
X141315Y143600D01*
X140652Y142937D01*
X140183Y142126D01*
X139941Y141221D01*
Y140283D01*
X140183Y139378D01*
X140652Y138567D01*
X141315Y137904D01*
X142126Y137435D01*
X143031Y137193D01*
X143969D01*
X144874Y137435D01*
X145685Y137904D01*
X146113Y138332D01*
X171960D01*
X172459Y137469D01*
X173378Y136549D01*
X174504Y135899D01*
X175759Y135563D01*
X177059D01*
X178315Y135899D01*
X179441Y136549D01*
X180360Y137469D01*
X181010Y138594D01*
X181346Y139850D01*
Y141150D01*
X181010Y142406D01*
X180360Y143531D01*
X179441Y144451D01*
X178703Y144876D01*
Y154472D01*
X181437D01*
Y164347D01*
D02*
G37*
%LPD*%
G36*
X241057Y484706D02*
X240622Y484620D01*
X239878Y484122D01*
X230764Y475008D01*
X230663Y475035D01*
X229337D01*
X228859Y474907D01*
X228600Y475355D01*
X238450Y485206D01*
X241007D01*
X241057Y484706D01*
D02*
G37*
G36*
X496206Y377050D02*
Y369450D01*
X492050Y365294D01*
X489247D01*
X489181Y365794D01*
X489950Y366000D01*
X490806Y366494D01*
X491505Y367194D01*
X492000Y368050D01*
X492256Y369005D01*
Y369994D01*
X492000Y370950D01*
X491505Y371806D01*
X490806Y372505D01*
X490324Y372784D01*
Y376006D01*
X490149Y376884D01*
X489652Y377628D01*
X484777Y382503D01*
X484945Y383003D01*
X490252D01*
X496206Y377050D01*
D02*
G37*
G36*
X485736Y375056D02*
Y372047D01*
X485495Y371806D01*
X485000Y370950D01*
X484744Y369994D01*
Y369005D01*
X485000Y368050D01*
X485495Y367194D01*
X486194Y366494D01*
X487050Y366000D01*
X487819Y365794D01*
X487753Y365294D01*
X463450D01*
X450500Y378244D01*
X450692Y378706D01*
X482085D01*
X485736Y375056D01*
D02*
G37*
G36*
X248351Y249905D02*
X248032Y249516D01*
X247878Y249620D01*
X247000Y249794D01*
X212840D01*
X208500Y254134D01*
X208692Y254596D01*
X243660D01*
X248351Y249905D01*
D02*
G37*
G36*
X255706Y235550D02*
Y228950D01*
X250050Y223294D01*
X240049D01*
X230220Y233122D01*
X229476Y233619D01*
X228598Y233794D01*
X215035D01*
X214157Y233619D01*
X213412Y233122D01*
X198006Y217716D01*
X197509Y216972D01*
X197335Y216094D01*
Y205043D01*
X188085Y195794D01*
X179066D01*
X178932Y196294D01*
X179531Y196640D01*
X180451Y197559D01*
X181101Y198685D01*
X181437Y199941D01*
Y201240D01*
X181101Y202496D01*
X180451Y203622D01*
X179531Y204541D01*
X178499Y205137D01*
Y218294D01*
X178941Y218549D01*
X179860Y219469D01*
X180510Y220594D01*
X180847Y221850D01*
Y223150D01*
X180626Y223972D01*
X196944Y240291D01*
X200008D01*
X200194Y240105D01*
X201050Y239610D01*
X202006Y239354D01*
X202994D01*
X203950Y239610D01*
X204806Y240105D01*
X205505Y240804D01*
X205512Y240816D01*
X238160D01*
X245968Y233008D01*
X245965Y232995D01*
Y232006D01*
X246220Y231050D01*
X246715Y230194D01*
X247414Y229495D01*
X248271Y229000D01*
X249226Y228744D01*
X250215D01*
X251170Y229000D01*
X252027Y229495D01*
X252726Y230194D01*
X253220Y231050D01*
X253476Y232006D01*
Y232995D01*
X253220Y233950D01*
X252726Y234806D01*
X252027Y235506D01*
X251170Y236000D01*
X250215Y236256D01*
X249226D01*
X249212Y236252D01*
X240759Y244706D01*
X240770Y244857D01*
X240876Y245206D01*
X246050D01*
X255706Y235550D01*
D02*
G37*
G36*
X164000Y200756D02*
X163808Y200294D01*
X152347D01*
Y202346D01*
X146898D01*
X145257Y203988D01*
X145564Y204388D01*
X146322Y203950D01*
X147428Y203654D01*
X148572D01*
X149678Y203950D01*
X150669Y204522D01*
X151478Y205331D01*
X151694Y205706D01*
X159050D01*
X164000Y200756D01*
D02*
G37*
G36*
X212154Y224721D02*
Y217563D01*
X215206D01*
Y202467D01*
X214469Y202041D01*
X213549Y201122D01*
X212899Y199996D01*
X212563Y198740D01*
Y197441D01*
X212783Y196618D01*
X198459Y182294D01*
X173500D01*
X172622Y182120D01*
X171878Y181622D01*
X149050Y158794D01*
X147059D01*
Y160059D01*
X139941D01*
Y154457D01*
X139479Y154265D01*
X138294Y155450D01*
Y185050D01*
X146898Y193654D01*
X152347D01*
Y195706D01*
X164100D01*
X167928Y191878D01*
X168672Y191381D01*
X169550Y191206D01*
X189035D01*
X189913Y191381D01*
X190658Y191878D01*
X201251Y202471D01*
X201748Y203215D01*
X201923Y204093D01*
Y215144D01*
X211692Y224913D01*
X212154Y224721D01*
D02*
G37*
D19*
X526000Y296843D02*
D03*
X368000Y210961D02*
D03*
Y146000D02*
D03*
X346342Y197500D02*
D03*
X503500Y300500D02*
D03*
Y235539D02*
D03*
X243461Y298500D02*
D03*
X178500D02*
D03*
X477000Y147039D02*
D03*
Y212000D02*
D03*
X445000Y163157D02*
D03*
X526000Y258000D02*
D03*
Y193039D02*
D03*
X167843Y250000D02*
D03*
X278657Y154000D02*
D03*
X163500Y330500D02*
D03*
X228461D02*
D03*
D20*
X526000Y277157D02*
D03*
X445000Y182843D02*
D03*
D30*
X326657Y197500D02*
D03*
X148157Y250000D02*
D03*
X298343Y154000D02*
D03*
D31*
X323500Y164000D02*
D03*
X333500Y174000D02*
D03*
D32*
Y154000D02*
D03*
D33*
X152500Y389500D02*
D03*
D34*
Y408000D02*
D03*
Y426500D02*
D03*
D36*
X240000Y470000D02*
D03*
X230000D02*
D03*
X203000Y416500D02*
D03*
Y426500D02*
D03*
D37*
X220000Y470000D02*
D03*
D44*
X203000Y406500D02*
D03*
D46*
X143500Y156500D02*
D03*
D47*
X152500Y351500D02*
D03*
X142500D02*
D03*
X143500Y148626D02*
D03*
Y140752D02*
D03*
D52*
X462500Y363000D02*
X493000D01*
X416829Y377171D02*
X448329D01*
X462500Y363000D01*
X493000D02*
X498500Y368500D01*
Y378000D01*
X491203Y385297D02*
X498500Y378000D01*
X427203Y385297D02*
X491203D01*
X506500Y375000D02*
X512000Y380500D01*
X506500Y366000D02*
Y375000D01*
X512000Y380500D02*
X521500D01*
X526500Y385500D01*
X500000Y359500D02*
X506500Y366000D01*
X413250Y399250D02*
Y411734D01*
Y399250D02*
X427203Y385297D01*
X404152Y399848D02*
X406152D01*
X425000Y381000D01*
X483036D01*
X403500Y400500D02*
X404152Y399848D01*
X403500Y390500D02*
X416829Y377171D01*
X413250Y411734D02*
X425500Y423984D01*
Y434000D01*
X418000Y404500D02*
X422000Y400500D01*
X433500D01*
X320500Y435500D02*
X339720D01*
X329000Y426780D02*
X368559D01*
X377280Y435500D01*
X410500Y417500D02*
Y446500D01*
X403500Y410500D02*
X410500Y417500D01*
X456000Y434000D02*
X456815D01*
X416750Y440250D02*
X449250D01*
X455500Y434000D01*
X410500Y446500D02*
X416750Y440250D01*
X544908Y195092D02*
Y208593D01*
X499000Y215500D02*
X538000D01*
X544908Y195092D02*
X553000Y187000D01*
X538000Y215500D02*
X544908Y208593D01*
X346171Y197171D02*
X346421Y197421D01*
X346342Y197500D02*
X346421Y197421D01*
X338342Y205500D02*
X346342Y197500D01*
X536000Y140000D02*
X553000Y157000D01*
X392500Y140000D02*
X536000D01*
X285188Y313000D02*
X297500D01*
X477000Y193343D02*
X506843Y163500D01*
X587000D01*
X473000Y146500D02*
X477000D01*
X517220Y156720D02*
X526000D01*
X503500Y235539D02*
X525980Y258020D01*
X526000Y258000D02*
Y277157D01*
X521741Y300500D02*
X525398Y296843D01*
X503500Y300500D02*
X521741D01*
X525398Y296843D02*
X526000D01*
X507000Y146500D02*
X517220Y156720D01*
X477000Y146500D02*
X507000D01*
X450388Y239612D02*
X474888D01*
X499000Y215500D01*
X477000Y193343D02*
Y212000D01*
X434500D02*
X477000D01*
X419250Y196750D02*
X434500Y212000D01*
X395500Y173000D02*
X419250Y196750D01*
X431093D02*
X445000Y182843D01*
X419250Y196750D02*
X431093D01*
X425500Y163000D02*
X425579Y163079D01*
X444921D01*
X445000Y163157D01*
X456343D02*
X473000Y146500D01*
X445000Y163157D02*
X456343D01*
X392500Y140000D02*
X425500Y173000D01*
X312343Y140000D02*
X392500D01*
X353000Y195500D02*
Y209000D01*
Y195500D02*
X395500Y153000D01*
X360500Y216500D02*
X418500D01*
X353000Y209000D02*
X360500Y216500D01*
X381637Y176863D02*
X395500Y163000D01*
X381637Y176863D02*
Y197324D01*
X368000Y210961D02*
X381637Y197324D01*
X367398Y210961D02*
X368000D01*
X346000Y174000D02*
X346171Y174171D01*
X346250Y167750D02*
Y173750D01*
X346000Y174000D02*
X346250Y173750D01*
X346171Y174171D02*
Y197171D01*
X346250Y167750D02*
X368000Y146000D01*
X281500Y246500D02*
X299500D01*
X316000Y230000D01*
X298343Y154000D02*
X312343Y140000D01*
X316000Y214500D02*
Y230000D01*
X325000Y205500D02*
X338342D01*
X316000Y214500D02*
X325000Y205500D01*
X257000Y298500D02*
X271500Y313000D01*
X297500D02*
X307000Y322500D01*
X271500Y313000D02*
X285188D01*
X284885Y307203D02*
X287500Y304588D01*
X270653Y307203D02*
X284885D01*
X287500Y301283D02*
Y304588D01*
X285188Y313000D02*
X291000Y307188D01*
Y307176D02*
Y307188D01*
X293000Y304500D02*
Y305176D01*
X291000Y307176D02*
X293000Y305176D01*
X287500Y301283D02*
X290033Y298750D01*
X224000Y275000D02*
X239500Y290500D01*
X253950D02*
X270653Y307203D01*
X239500Y290500D02*
X253950D01*
X290033Y298750D02*
X297750D01*
X307500Y308500D01*
X233500Y267500D02*
X248000Y282000D01*
X281000D01*
X243461Y298500D02*
X257000D01*
X174500Y267500D02*
X233500D01*
X162500Y279500D02*
X174500Y267500D01*
X162500Y279500D02*
Y282500D01*
X178500Y298500D01*
X417500Y262500D02*
X427500Y252500D01*
X199416Y262500D02*
X417500D01*
X186916Y250000D02*
X199416Y262500D01*
X346250Y267500D02*
X364815D01*
X318797Y266797D02*
X332000Y280000D01*
X242000Y263000D02*
X254000Y275000D01*
X346000Y267750D02*
X346250Y267500D01*
X286203Y266797D02*
X318797D01*
X281000Y272000D02*
X286203Y266797D01*
X269500Y272000D02*
X281000D01*
X225658Y385342D02*
X247000Y364000D01*
X170536Y409247D02*
Y427036D01*
Y409247D02*
X194440Y385342D01*
X225658D01*
X170536Y427036D02*
X182500Y439000D01*
X193500Y406500D02*
X203000D01*
X178500Y407402D02*
Y408000D01*
X192000D02*
X193500Y406500D01*
X203000D02*
X233000D01*
X182500Y439000D02*
X220500D01*
X178500Y408000D02*
X192000D01*
X314179Y308500D02*
X321882Y300797D01*
X307500Y308500D02*
X314179D01*
X158000Y470500D02*
X172000Y484500D01*
X195500Y479000D02*
X216000Y458500D01*
X168000Y470500D02*
X176500Y479000D01*
X195500D01*
X172000Y484500D02*
X205500D01*
X216000Y458500D02*
X224000D01*
X228934Y463434D01*
X230000Y470000D02*
Y471000D01*
X228934Y463434D02*
Y468934D01*
X230000Y470000D01*
X205500Y484500D02*
X220000Y470000D01*
X237500Y487500D01*
X230000Y471000D02*
X241500Y482500D01*
X261500D01*
X237500Y487500D02*
X269500D01*
X369315Y404185D02*
X379000Y394500D01*
X397500D02*
X403500Y400500D01*
X379000Y394500D02*
X397500D01*
X488030Y369970D02*
X488500Y369500D01*
X483036Y381000D02*
X488030Y376006D01*
Y369970D02*
Y376006D01*
X368500Y404185D02*
X369315D01*
X355500Y371500D02*
X368500Y384500D01*
X285000Y371500D02*
X355500D01*
X397500Y384500D02*
X403500Y390500D01*
X368500Y384500D02*
X397500D01*
X368500Y404185D02*
X377280Y412965D01*
Y435500D01*
X311000Y411500D02*
X328831Y393669D01*
Y389390D02*
X329000Y389220D01*
X305000Y411500D02*
X311000D01*
X328831Y389390D02*
Y393669D01*
X339000Y386500D02*
Y397500D01*
X305000Y431500D02*
X339000Y397500D01*
X203000Y426500D02*
X213500D01*
X264000Y441500D02*
X275000D01*
X252500Y430000D02*
X264000Y441500D01*
X203000Y416500D02*
X233000D01*
X270000D01*
X275000Y411500D01*
Y431500D02*
X284000D01*
X291500Y424000D01*
Y415500D02*
Y424000D01*
X261500Y482500D02*
X283500Y460500D01*
Y443000D02*
Y460500D01*
X219500Y447500D02*
X233000Y434000D01*
Y426500D02*
Y434000D01*
X220500Y439000D02*
X233000Y426500D01*
X201000Y447500D02*
X219500D01*
X178000Y470500D02*
X201000Y447500D01*
X240000Y456000D02*
Y470000D01*
X235500Y451500D02*
X240000Y456000D01*
X474500Y311000D02*
X485500Y322000D01*
X470006Y337494D02*
X485500Y322000D01*
Y332000D02*
X492000Y338500D01*
X476506Y340994D02*
X485500Y332000D01*
X520000Y308500D02*
X530000Y318500D01*
Y340500D01*
X465500Y322000D02*
X467500D01*
X551972Y401000D02*
X553000D01*
X526500Y385500D02*
Y400000D01*
X434000Y401000D02*
X511000D01*
X426000Y316000D02*
Y319500D01*
X448000Y304500D02*
X455500Y312000D01*
X412955Y316455D02*
X413000Y316409D01*
X426000Y316000D02*
X430000Y312000D01*
X442045Y321955D02*
X455455D01*
X442000Y321909D02*
X442045Y321955D01*
X455455D02*
X455500Y322000D01*
Y312000D02*
X465500Y322000D01*
X515685Y312000D02*
X519185Y308500D01*
X520000D01*
X485500Y312000D02*
X515685D01*
X426506Y340994D02*
X476506D01*
X410910Y355500D02*
X413000Y357591D01*
X436500D01*
X422477Y337494D02*
X470006D01*
X417971Y342000D02*
X422477Y337494D01*
X418243Y349257D02*
X426506Y340994D01*
X426000Y349500D02*
X468197D01*
X471447Y352750D01*
X492000Y338500D02*
X520000D01*
X471447Y352750D02*
X517750D01*
X530000Y340500D01*
X233000Y406500D02*
X233250Y406750D01*
X217500Y140591D02*
Y156909D01*
X176409Y140500D02*
Y159319D01*
X206000Y170500D02*
X228500Y193000D01*
X206000Y152091D02*
X217500Y140591D01*
Y156909D02*
X219910Y154500D01*
X206000Y152091D02*
Y170500D01*
X141373Y149127D02*
X142999D01*
X136000Y154500D02*
X141373Y149127D01*
X136000Y154500D02*
Y186000D01*
X148000Y198000D01*
X137500Y208500D02*
X148000Y198000D01*
X137500Y239343D02*
X148157Y250000D01*
X137500Y208500D02*
Y239343D01*
X148000Y218000D02*
Y230157D01*
X150000Y156500D02*
X173500Y180000D01*
X199409D01*
X160000Y208000D02*
X167500Y200500D01*
X176409D01*
X176500Y200591D01*
X165050Y198000D02*
X169550Y193500D01*
X189035D01*
X199628Y204093D01*
X202500Y256890D02*
X211890Y247500D01*
X167843Y250000D02*
X186916D01*
X201974Y242585D02*
X202500Y243110D01*
X148000Y230157D02*
X167843Y250000D01*
X148000Y208000D02*
X160000D01*
X199628Y216094D02*
X215035Y231500D01*
X148000Y198000D02*
X165050D01*
X199628Y204093D02*
Y216094D01*
X195994Y242585D02*
X201974D01*
X176205Y200886D02*
Y222205D01*
X175909Y222500D02*
X195994Y242585D01*
X163500Y330500D02*
X211461D01*
X243461Y298500D01*
X228461Y323039D02*
X235000Y316500D01*
X228461Y323039D02*
Y330500D01*
X297652Y327566D02*
Y333348D01*
X307000Y322500D02*
Y334000D01*
X297000D02*
X297652Y333348D01*
X299859Y325359D02*
Y325359D01*
X297652Y327566D02*
X299859Y325359D01*
X321882Y300797D02*
X331155D01*
X316297Y297297D02*
X332605D01*
X349250Y318892D02*
Y323968D01*
X352750Y319750D02*
X359000Y326000D01*
X352750Y317442D02*
Y319750D01*
X329000Y306000D02*
Y306250D01*
X344500Y321750D01*
X329000Y316000D02*
X339750Y326750D01*
X331155Y300797D02*
X349250Y318892D01*
X346467Y326750D02*
X349250Y323968D01*
X344500Y321750D02*
Y322000D01*
X339750Y326750D02*
X346467D01*
X332605Y297297D02*
X352750Y317442D01*
X371000Y254000D02*
X407500D01*
X382500Y227000D02*
X390000Y234500D01*
X332780Y227000D02*
X382500D01*
X390000Y234500D02*
X402000D01*
X342500Y239500D02*
X364500D01*
X427500Y272500D02*
X428152Y271848D01*
X430652D01*
X448000Y282000D02*
X457500Y272500D01*
X298343Y154000D02*
Y167166D01*
X300000Y168824D02*
Y169500D01*
X298343Y167166D02*
X300000Y168824D01*
X290000Y162343D02*
Y181500D01*
Y162343D02*
X298343Y154000D01*
X263890Y193000D02*
X287365D01*
X258610Y201500D02*
X290000D01*
X273500Y232500D02*
X298500Y207500D01*
X287365Y193000D02*
X288865Y191500D01*
X290000D02*
X298500Y200000D01*
X288865Y191500D02*
X290000D01*
X298500Y200000D02*
Y207500D01*
X281022Y246022D02*
X281500Y246500D01*
X277022Y246022D02*
X281022D01*
X427500Y262500D02*
X450388Y239612D01*
X427500Y225500D02*
Y252500D01*
X430652Y271848D02*
X456000Y246500D01*
X418500Y216500D02*
X427500Y225500D01*
X332000Y280000D02*
X344500D01*
X311000Y282000D02*
X322000D01*
X332000Y250000D02*
X342500Y239500D01*
X329780Y230000D02*
X332780Y227000D01*
X364815Y267500D02*
X371000Y273685D01*
X364500Y239500D02*
X371000Y246000D01*
Y254000D01*
X142999Y149127D02*
X143500Y148626D01*
X148329Y250171D02*
Y274829D01*
X148157Y250000D02*
X148329Y250171D01*
Y274829D02*
X148500Y275000D01*
X143626Y140626D02*
X176283D01*
X143500Y156500D02*
X150000D01*
X259640Y154250D02*
X278407D01*
X259390Y154500D02*
X259640Y154250D01*
X219910Y154500D02*
X245610D01*
X278407Y154250D02*
X278657Y154000D01*
X217500Y198091D02*
Y222091D01*
X228500Y193000D02*
X250110D01*
X199409Y180000D02*
X217500Y198091D01*
X228598Y231500D02*
X239098Y221000D01*
X215035Y231500D02*
X228598D01*
X244610Y256890D02*
X263500Y238000D01*
X251000Y221000D02*
X258000Y228000D01*
X239098Y221000D02*
X251000D01*
X247000Y247500D02*
X258000Y236500D01*
Y228000D02*
Y236500D01*
X239110Y243110D02*
X249720Y232500D01*
X263500D02*
Y238000D01*
Y232500D02*
X273500D01*
X263500D02*
X277022Y246022D01*
X202500Y256890D02*
X244610D01*
X202500Y243110D02*
X239110D01*
X211890Y247500D02*
X247000D01*
X259390Y154500D02*
Y188299D01*
X263890Y192799D01*
Y193000D01*
X250110D02*
X258610Y201500D01*
X178500Y275000D02*
X224000D01*
X237000Y325000D02*
X252194Y309806D01*
X270500Y292000D02*
X281000D01*
X267500Y295000D02*
X270500Y292000D01*
X311000D02*
X316297Y297297D01*
X300000Y281000D02*
X311000Y292000D01*
X237000Y325000D02*
Y354000D01*
X247000Y364000D01*
X436500Y357591D02*
X442000Y363090D01*
X430000Y312000D02*
X455500D01*
X399493Y349250D02*
X399500Y349257D01*
X418243D01*
X493500Y290500D02*
X503500Y300500D01*
X526000Y170500D02*
Y193039D01*
X308500Y355500D02*
X410910D01*
X287000Y334000D02*
X308500Y355500D01*
X262500Y348500D02*
X277000Y334000D01*
X254000Y348500D02*
X262500D01*
X345000Y342000D02*
X417971D01*
X275000Y391500D02*
X294000D01*
X275000Y381500D02*
X285000Y371500D01*
X305000Y381500D02*
X334000D01*
X275652Y402152D02*
X278152D01*
X275000Y401500D02*
X275652Y402152D01*
X278152D02*
X291500Y415500D01*
X288500Y379000D02*
Y386000D01*
X294000Y391500D01*
X305000D01*
X275000Y421500D02*
X283500D01*
X305000Y441500D02*
X319000D01*
X305000Y401500D02*
X314500Y392000D01*
X283500Y443000D02*
X305000Y421500D01*
X334000Y381500D02*
X339000Y386500D01*
X433500Y400500D02*
X434000Y401000D01*
X433500Y410500D02*
X516000D01*
X526500Y400000D01*
X264500Y381500D02*
X275000D01*
X247000Y364000D02*
X264500Y381500D01*
X252250Y406750D02*
X252500Y407000D01*
X249500Y386500D02*
X264500Y401500D01*
X275000D01*
X233250Y406750D02*
X252250D01*
X319000Y441500D02*
X324000Y446500D01*
X380500D01*
X457500Y262500D02*
X465500D01*
X493500Y290500D01*
X480500D02*
X493500D01*
X456000Y246500D02*
X492539D01*
X448000Y282000D02*
Y304500D01*
X474500Y296500D02*
Y311000D01*
X359000Y316455D02*
X412955D01*
X474500Y296500D02*
X480500Y290500D01*
X438000Y292000D02*
X448000Y282000D01*
X492539Y246500D02*
X503500Y235539D01*
X329000Y326000D02*
X345000Y342000D01*
X311000Y292000D02*
X438000D01*
X291500Y452000D02*
X291978Y451522D01*
X294978D02*
X305000Y441500D01*
X291978Y451522D02*
X294978D01*
D53*
X588500Y137500D02*
D03*
X134000Y130000D02*
D03*
X138500Y296500D02*
D03*
X136000Y459500D02*
D03*
X338500Y473500D02*
D03*
X581000Y467000D02*
D03*
D54*
X526000Y156720D02*
D03*
X202500Y256890D02*
D03*
D55*
X526000Y170500D02*
D03*
X544500Y239000D02*
D03*
Y209000D02*
D03*
X371000Y273685D02*
D03*
Y254000D02*
D03*
X332000Y250000D02*
D03*
Y280000D02*
D03*
X520000Y308500D02*
D03*
Y338500D02*
D03*
X426000Y319500D02*
D03*
Y349500D02*
D03*
X316000Y230000D02*
D03*
X368500Y404185D02*
D03*
Y384500D02*
D03*
X380500Y446500D02*
D03*
X410500D02*
D03*
X455500Y434000D02*
D03*
X425500D02*
D03*
X553000Y157000D02*
D03*
Y187000D02*
D03*
X511000Y401000D02*
D03*
X541000D02*
D03*
X518500Y369500D02*
D03*
X488500D02*
D03*
X178500Y275000D02*
D03*
X148500D02*
D03*
X249720Y232500D02*
D03*
X202500Y243110D02*
D03*
X259390Y154500D02*
D03*
X263890Y193000D02*
D03*
X254000Y275000D02*
D03*
X224000D02*
D03*
D56*
X553000Y401000D02*
D03*
X563000D02*
D03*
X178000Y470500D02*
D03*
X168000D02*
D03*
X233000Y416500D02*
D03*
Y426500D02*
D03*
D57*
X573000Y338000D02*
D03*
X563000Y348000D02*
D03*
Y257638D02*
D03*
X573000Y267638D02*
D03*
X563000Y309138D02*
D03*
X573000Y319138D02*
D03*
D58*
Y358000D02*
D03*
D59*
X583000Y257638D02*
D03*
Y309138D02*
D03*
D60*
X395500Y183000D02*
D03*
X281000Y302000D02*
D03*
X275000Y441500D02*
D03*
X485500Y302000D02*
D03*
X427500Y282500D02*
D03*
X403500Y420500D02*
D03*
X329000Y336000D02*
D03*
D61*
X395500Y173000D02*
D03*
Y163000D02*
D03*
Y153000D02*
D03*
X425500Y183000D02*
D03*
Y173000D02*
D03*
Y163000D02*
D03*
Y153000D02*
D03*
X311000Y272000D02*
D03*
Y282000D02*
D03*
Y292000D02*
D03*
Y302000D02*
D03*
X281000Y272000D02*
D03*
Y282000D02*
D03*
Y292000D02*
D03*
X275000Y431500D02*
D03*
Y421500D02*
D03*
Y411500D02*
D03*
Y401500D02*
D03*
Y391500D02*
D03*
Y381500D02*
D03*
X305000Y441500D02*
D03*
Y431500D02*
D03*
Y421500D02*
D03*
Y411500D02*
D03*
Y401500D02*
D03*
Y391500D02*
D03*
Y381500D02*
D03*
X455500Y332000D02*
D03*
Y322000D02*
D03*
Y312000D02*
D03*
Y302000D02*
D03*
X485500Y332000D02*
D03*
Y322000D02*
D03*
Y312000D02*
D03*
X457500Y252500D02*
D03*
Y262500D02*
D03*
Y272500D02*
D03*
Y282500D02*
D03*
X427500Y252500D02*
D03*
Y262500D02*
D03*
Y272500D02*
D03*
X247000Y334000D02*
D03*
X257000D02*
D03*
X267000D02*
D03*
X277000D02*
D03*
X287000D02*
D03*
X297000D02*
D03*
X307000D02*
D03*
X247000Y364000D02*
D03*
X257000D02*
D03*
X267000D02*
D03*
X277000D02*
D03*
X287000D02*
D03*
X297000D02*
D03*
X403500Y410500D02*
D03*
Y400500D02*
D03*
Y390500D02*
D03*
X433500Y420500D02*
D03*
Y410500D02*
D03*
Y400500D02*
D03*
Y390500D02*
D03*
X359000Y306000D02*
D03*
Y316000D02*
D03*
Y326000D02*
D03*
Y336000D02*
D03*
X329000Y306000D02*
D03*
Y316000D02*
D03*
Y326000D02*
D03*
D62*
X158000Y470500D02*
D03*
D63*
X307000Y364000D02*
D03*
D64*
X413000Y316409D02*
D03*
X442000Y321909D02*
D03*
X176409Y140500D02*
D03*
X176500Y200591D02*
D03*
X217500Y198091D02*
D03*
X175909Y222500D02*
D03*
D65*
X413000Y357591D02*
D03*
X442000Y363090D02*
D03*
X176500Y159409D02*
D03*
X217500Y156909D02*
D03*
D66*
X329780Y230000D02*
D03*
X263500Y232500D02*
D03*
X245610Y154500D02*
D03*
X250110Y193000D02*
D03*
D67*
X329000Y389220D02*
D03*
Y426780D02*
D03*
X339720Y435500D02*
D03*
X377280D02*
D03*
D68*
X233000Y406500D02*
D03*
D69*
X148000Y218000D02*
D03*
Y208000D02*
D03*
X290000Y191500D02*
D03*
Y181500D02*
D03*
D70*
X148000Y198000D02*
D03*
X290000Y201500D02*
D03*
D71*
X217590Y140500D02*
D03*
X217091Y222500D02*
D03*
D72*
X587000Y163500D02*
D03*
X346000Y174000D02*
D03*
X293000Y304500D02*
D03*
X346000Y267750D02*
D03*
X178500Y408000D02*
D03*
X269500Y487500D02*
D03*
X407500Y254000D02*
D03*
X344500Y280000D02*
D03*
X299859Y325359D02*
D03*
X402000Y234500D02*
D03*
X235000Y316500D02*
D03*
X267500Y295000D02*
D03*
X344500Y322000D02*
D03*
X288500Y379000D02*
D03*
X314500Y392000D02*
D03*
X418000Y404500D02*
D03*
X320500Y435500D02*
D03*
X291500Y452000D02*
D03*
X283500Y421500D02*
D03*
X399493Y349250D02*
D03*
X500000Y359500D02*
D03*
X467500Y322000D02*
D03*
X281500Y246500D02*
D03*
X300000Y169500D02*
D03*
X322000Y282000D02*
D03*
X300000Y281000D02*
D03*
X269500Y272000D02*
D03*
X213500Y426500D02*
D03*
X252194Y309806D02*
D03*
X254000Y348500D02*
D03*
X249500Y386500D02*
D03*
X252500Y430000D02*
D03*
X235500Y451500D02*
D03*
X252500Y407000D02*
D03*
D73*
X217500Y140591D02*
X217590Y140500D01*
X176409Y159319D02*
X176500Y159409D01*
X176283Y140626D02*
X176409Y140500D01*
X176205Y200886D02*
X176500Y200591D01*
X217091Y222500D02*
X217500Y222091D01*
X175909Y222500D02*
X176205Y222205D01*
X143500Y140752D02*
X143626Y140626D01*
M02*
