G04*
G04 #@! TF.GenerationSoftware,Altium Limited,Altium Designer,22.0.2 (36)*
G04*
G04 Layer_Color=65535*
%FSLAX25Y25*%
%MOIN*%
G70*
G04*
G04 #@! TF.SameCoordinates,EECF79FC-5A36-4EFC-AF15-45E6CBE4EAF3*
G04*
G04*
G04 #@! TF.FilePolarity,Positive*
G04*
G01*
G75*
%ADD10C,0.00787*%
%ADD11C,0.00984*%
%ADD12C,0.02362*%
%ADD13C,0.00591*%
%ADD14C,0.01181*%
%ADD15C,0.01000*%
%ADD16R,0.11024X0.03150*%
%ADD17R,0.03150X0.11024*%
D10*
X541748Y163610D02*
G03*
X541748Y163610I-15748J0D01*
G01*
X408000Y188079D02*
G03*
X413000Y188079I2500J0D01*
G01*
X293500Y307079D02*
G03*
X298500Y307079I2500J0D01*
G01*
X287500Y450280D02*
G03*
X292500Y450280I2500J0D01*
G01*
X473000Y296921D02*
G03*
X468000Y296921I-2500J0D01*
G01*
X440000Y287579D02*
G03*
X445000Y287579I2500J0D01*
G01*
X391669Y263843D02*
G03*
X391669Y263843I-20669J0D01*
G01*
X315779Y351500D02*
G03*
X315779Y346500I0J-2500D01*
G01*
X338638Y230000D02*
G03*
X338638Y230000I-15748J0D01*
G01*
X389169Y394343D02*
G03*
X389169Y394343I-20669J0D01*
G01*
X416000Y425579D02*
G03*
X421000Y425579I2500J0D01*
G01*
X341500Y341079D02*
G03*
X346500Y341079I2500J0D01*
G01*
X272358Y232500D02*
G03*
X272358Y232500I-15748J0D01*
G01*
X218248Y250000D02*
G03*
X218248Y250000I-15748J0D01*
G01*
X268248Y154500D02*
G03*
X268248Y154500I-15748J0D01*
G01*
X272748Y193000D02*
G03*
X272748Y193000I-15748J0D01*
G01*
X520882Y279126D02*
X522161D01*
X529839D02*
X531118D01*
Y294874D01*
X520882D02*
X522161D01*
X529839D02*
X531118D01*
X520882Y279126D02*
Y294874D01*
X526000Y141110D02*
Y146110D01*
X523500Y143610D02*
X528500D01*
X544500Y213100D02*
Y214000D01*
Y234000D02*
Y234900D01*
X541500Y214000D02*
X544500D01*
X541500D02*
Y234000D01*
X547500D01*
Y214000D02*
Y234000D01*
X544500Y214000D02*
X547500D01*
X400067Y147921D02*
Y188079D01*
X420933Y147921D02*
Y188079D01*
X400067D02*
X408000D01*
X413000D02*
X420933D01*
X400067Y147921D02*
X420933D01*
X372921Y165685D02*
Y191276D01*
X363079Y165685D02*
X372921D01*
X363079D02*
Y191276D01*
X372921D01*
X368000D02*
Y207220D01*
Y149740D02*
Y165685D01*
X328626Y201339D02*
Y202618D01*
Y192382D02*
Y193661D01*
Y192382D02*
X344374D01*
Y201339D02*
Y202618D01*
Y192382D02*
Y193661D01*
X328626Y202618D02*
X344374D01*
X285567Y266921D02*
X306433D01*
X298500Y307079D02*
X306433D01*
X285567D02*
X293500D01*
X306433Y266921D02*
Y307079D01*
X285567Y266921D02*
Y307079D01*
X209291Y481850D02*
X213433Y463543D01*
X209488Y481850D02*
X250512D01*
X246567Y463543D02*
X250709Y481850D01*
X213433Y463543D02*
X246567D01*
X147921Y478965D02*
X188079D01*
X147921Y480933D02*
X188079D01*
X147921Y463610D02*
X188079D01*
Y480933D01*
X147921Y463610D02*
Y480933D01*
X279567Y372720D02*
Y450280D01*
X300433Y372720D02*
Y450280D01*
X279567D02*
X287500D01*
X292500D02*
X300433D01*
X279567Y372720D02*
X300433D01*
X460067Y337079D02*
X480933D01*
X460067Y296921D02*
X468000D01*
X473000D02*
X480933D01*
X460067D02*
Y337079D01*
X480933Y296921D02*
Y337079D01*
X432067Y247421D02*
X452933D01*
X445000Y287579D02*
X452933D01*
X432067D02*
X440000D01*
X452933Y247421D02*
Y287579D01*
X432067Y247421D02*
Y287579D01*
X332000Y275000D02*
Y275900D01*
Y254100D02*
Y255000D01*
Y275000D02*
X335000D01*
Y255000D02*
Y275000D01*
X329000Y255000D02*
X335000D01*
X329000D02*
Y275000D01*
X332000D01*
X238221Y338567D02*
Y359433D01*
X315779Y338567D02*
Y346500D01*
Y351500D02*
Y359433D01*
X238221Y338567D02*
X315779D01*
X238221Y359433D02*
X315779D01*
X407488Y326567D02*
X418512D01*
X407488D02*
Y347433D01*
X418512Y326567D02*
Y347433D01*
X436488Y332067D02*
X447512D01*
X436488D02*
Y352933D01*
X447512Y332067D02*
Y352933D01*
X503500Y280815D02*
Y296760D01*
Y239280D02*
Y255224D01*
X498579D02*
X508421D01*
Y280815D01*
X498579D02*
X508421D01*
X498579Y255224D02*
Y280815D01*
X520000Y313500D02*
X523000D01*
Y333500D01*
X517000D02*
X523000D01*
X517000Y313500D02*
Y333500D01*
Y313500D02*
X520000D01*
Y333500D02*
Y334400D01*
Y312600D02*
Y313500D01*
X426000Y324500D02*
X429000D01*
Y344500D01*
X423000D02*
X429000D01*
X423000Y324500D02*
Y344500D01*
Y324500D02*
X426000D01*
Y344500D02*
Y345400D01*
Y323600D02*
Y324500D01*
X223776Y298500D02*
X239720D01*
X182240D02*
X198185D01*
Y293579D02*
Y303421D01*
Y293579D02*
X223776D01*
Y303421D01*
X198185D02*
X223776D01*
X342890Y227500D02*
Y232500D01*
X340390Y230000D02*
X345390D01*
X477000Y150780D02*
Y166724D01*
Y192315D02*
Y208260D01*
X472079Y192315D02*
X481921D01*
X472079Y166724D02*
Y192315D01*
Y166724D02*
X481921D01*
Y192315D01*
X324374Y412154D02*
X333626D01*
X329000Y417154D02*
Y422154D01*
Y393846D02*
Y398846D01*
X324374D02*
X333626D01*
X324374D02*
Y417154D01*
X333626D01*
Y398846D02*
Y417154D01*
X408067Y385421D02*
Y425579D01*
X428933Y385421D02*
Y425579D01*
X408067D02*
X416000D01*
X421000D02*
X428933D01*
X408067Y385421D02*
X428933D01*
X333567Y300921D02*
X354433D01*
X346500Y341079D02*
X354433D01*
X333567D02*
X341500D01*
X354433Y300921D02*
Y341079D01*
X333567Y300921D02*
Y341079D01*
X405500Y446500D02*
X406400D01*
X384600D02*
X385500D01*
X405500Y443500D02*
Y446500D01*
X385500Y443500D02*
X405500D01*
X385500D02*
Y449500D01*
X405500D01*
Y446500D02*
Y449500D01*
X429600Y434000D02*
X430500D01*
X450500D02*
X451400D01*
X430500D02*
Y437000D01*
X450500D01*
Y431000D02*
Y437000D01*
X430500Y431000D02*
X450500D01*
X430500D02*
Y434000D01*
X209457Y399933D02*
Y433067D01*
X191150Y437209D02*
X209457Y433067D01*
X191150Y395988D02*
Y437012D01*
Y395791D02*
X209457Y399933D01*
X222567Y396421D02*
X239890D01*
X222567Y436579D02*
X239890D01*
Y396421D02*
Y436579D01*
X222567Y396421D02*
Y436579D01*
X224535Y396421D02*
Y436579D01*
X362654Y430874D02*
Y440126D01*
X367654Y435500D02*
X372654D01*
X344346D02*
X349346D01*
Y430874D02*
Y440126D01*
X367654D01*
Y430874D02*
Y440126D01*
X349346Y430874D02*
X367654D01*
X450118Y165126D02*
Y180874D01*
X439882Y165126D02*
X441161D01*
X448839D02*
X450118D01*
X439882D02*
Y180874D01*
X441161D01*
X448839D02*
X450118D01*
X553000Y162000D02*
X556000D01*
Y182000D01*
X550000D02*
X556000D01*
X550000Y162000D02*
Y182000D01*
Y162000D02*
X553000D01*
Y182000D02*
Y182900D01*
Y161100D02*
Y162000D01*
X526000Y238315D02*
Y254260D01*
Y196780D02*
Y212724D01*
X521079D02*
X530921D01*
Y238315D01*
X521079D02*
X530921D01*
X521079Y212724D02*
Y238315D01*
X536000Y401000D02*
X536900D01*
X515100D02*
X516000D01*
X536000Y398000D02*
Y401000D01*
X516000Y398000D02*
X536000D01*
X516000D02*
Y404000D01*
X536000D01*
Y401000D02*
Y404000D01*
X492600Y369500D02*
X493500D01*
X513500D02*
X514400D01*
X493500D02*
Y372500D01*
X513500D01*
Y366500D02*
Y372500D01*
X493500Y366500D02*
X513500D01*
X493500D02*
Y369500D01*
X147831Y136421D02*
Y160831D01*
X139169Y136421D02*
X147831D01*
X139169D02*
Y160831D01*
X147831D01*
X138748Y187528D02*
Y228472D01*
X136780Y187528D02*
X154890D01*
Y228472D01*
X136780D02*
X154890D01*
X136780Y187528D02*
Y228472D01*
X173500Y275000D02*
Y278000D01*
X153500D02*
X173500D01*
X153500Y272000D02*
Y278000D01*
Y272000D02*
X173500D01*
Y275000D01*
X152600D02*
X153500D01*
X173500D02*
X174400D01*
X186567Y134988D02*
Y146012D01*
X207433D01*
X186567Y134988D02*
X207433D01*
X170988Y190433D02*
X182012D01*
Y169567D02*
Y190433D01*
X170988Y169567D02*
Y190433D01*
X211988Y187933D02*
X223012D01*
Y167067D02*
Y187933D01*
X211988Y167067D02*
Y187933D01*
X186067Y216988D02*
Y228012D01*
X206933D01*
X186067Y216988D02*
X206933D01*
X150126Y255118D02*
X165874D01*
Y244882D02*
Y246161D01*
Y253839D02*
Y255118D01*
X150126Y244882D02*
X165874D01*
X150126D02*
Y246161D01*
Y253839D02*
Y255118D01*
X276610Y230000D02*
Y235000D01*
X274110Y232500D02*
X279110D01*
X200000Y270000D02*
X205000D01*
X202500Y267500D02*
Y272500D01*
X301220Y171028D02*
Y211972D01*
X283110Y171028D02*
X301220D01*
X283110D02*
Y211972D01*
X301220D01*
X299252Y171028D02*
Y211972D01*
X232500Y152000D02*
Y157000D01*
X230000Y154500D02*
X235000D01*
X237000Y190500D02*
Y195500D01*
X234500Y193000D02*
X239500D01*
X280626Y148882D02*
X296374D01*
X280626Y157839D02*
Y159118D01*
Y148882D02*
Y150161D01*
Y159118D02*
X296374D01*
Y157839D02*
Y159118D01*
Y148882D02*
Y150161D01*
X249000Y275000D02*
Y278000D01*
X229000D02*
X249000D01*
X229000Y272000D02*
Y278000D01*
Y272000D02*
X249000D01*
Y275000D01*
X228100D02*
X229000D01*
X249000D02*
X249900D01*
X167240Y330500D02*
X183185D01*
X208776D02*
X224720D01*
X208776Y325579D02*
Y335421D01*
X183185D02*
X208776D01*
X183185Y325579D02*
Y335421D01*
Y325579D02*
X208776D01*
D11*
X395992Y188118D02*
G03*
X395992Y188118I-492J0D01*
G01*
X281492Y307118D02*
G03*
X281492Y307118I-492J0D01*
G01*
X207815Y472697D02*
G03*
X207815Y472697I-492J0D01*
G01*
X145854Y470500D02*
G03*
X145854Y470500I-492J0D01*
G01*
X275492Y446618D02*
G03*
X275492Y446618I-492J0D01*
G01*
X485992Y296882D02*
G03*
X485992Y296882I-492J0D01*
G01*
X427992Y287618D02*
G03*
X427992Y287618I-492J0D01*
G01*
X312610Y364000D02*
G03*
X312610Y364000I-492J0D01*
G01*
X403992Y425618D02*
G03*
X403992Y425618I-492J0D01*
G01*
X329492Y341118D02*
G03*
X329492Y341118I-492J0D01*
G01*
X200795Y393823D02*
G03*
X200795Y393823I-492J0D01*
G01*
X233492Y393862D02*
G03*
X233492Y393862I-492J0D01*
G01*
X143894Y162602D02*
G03*
X143894Y162602I-492J0D01*
G01*
X152823Y190087D02*
G03*
X152823Y190087I-492J0D01*
G01*
X286161Y209413D02*
G03*
X286161Y209413I-492J0D01*
G01*
X597404Y360032D02*
X596420D01*
Y361016D01*
Y359048D01*
Y360032D01*
X593468D01*
X592484Y359048D01*
Y356096D02*
Y354128D01*
Y355112D01*
X596420D01*
Y356096D01*
X592484Y351176D02*
X596420D01*
Y350192D01*
X595436Y349209D01*
X592484D01*
X595436D01*
X596420Y348225D01*
X595436Y347241D01*
X592484D01*
Y342321D02*
Y344289D01*
X593468Y345273D01*
X595436D01*
X596420Y344289D01*
Y342321D01*
X595436Y341337D01*
X594452D01*
Y345273D01*
D12*
X405185Y184142D02*
G03*
X405185Y184142I-1181J0D01*
G01*
X290685Y303142D02*
G03*
X290685Y303142I-1181J0D01*
G01*
X284685Y446343D02*
G03*
X284685Y446343I-1181J0D01*
G01*
X478177Y300858D02*
G03*
X478177Y300858I-1181J0D01*
G01*
X437185Y283642D02*
G03*
X437185Y283642I-1181J0D01*
G01*
X313024Y355496D02*
G03*
X313024Y355496I-1181J0D01*
G01*
X413185Y421642D02*
G03*
X413185Y421642I-1181J0D01*
G01*
X338685Y337142D02*
G03*
X338685Y337142I-1181J0D01*
G01*
D13*
X422423Y469922D02*
X421590Y470755D01*
X419924D01*
X419091Y469922D01*
Y466590D01*
X419924Y465757D01*
X421590D01*
X422423Y466590D01*
Y468256D01*
X420757D01*
X424089Y465757D02*
Y470755D01*
X426588D01*
X427421Y469922D01*
Y468256D01*
X426588Y467423D01*
X424089D01*
X425755D02*
X427421Y465757D01*
X431587Y470755D02*
X429920D01*
X429087Y469922D01*
Y466590D01*
X429920Y465757D01*
X431587D01*
X432420Y466590D01*
Y469922D01*
X431587Y470755D01*
X434086D02*
Y466590D01*
X434919Y465757D01*
X436585D01*
X437418Y466590D01*
Y470755D01*
X439084Y465757D02*
Y470755D01*
X441583D01*
X442416Y469922D01*
Y468256D01*
X441583Y467423D01*
X439084D01*
X452413Y465757D02*
X449081D01*
X452413Y469089D01*
Y469922D01*
X451580Y470755D01*
X449914D01*
X449081Y469922D01*
X457411Y470755D02*
X455745Y469922D01*
X454079Y468256D01*
Y466590D01*
X454912Y465757D01*
X456578D01*
X457411Y466590D01*
Y467423D01*
X456578Y468256D01*
X454079D01*
X469074D02*
X472407D01*
X479071Y465757D02*
Y470755D01*
X481570D01*
X482403Y469922D01*
Y468256D01*
X481570Y467423D01*
X479071D01*
X484069Y470755D02*
X485736D01*
X484902D01*
Y465757D01*
X484069D01*
X485736D01*
X488235D02*
Y470755D01*
X490734D01*
X491567Y469922D01*
Y468256D01*
X490734Y467423D01*
X488235D01*
X489901D02*
X491567Y465757D01*
X498232D02*
X500731D01*
X501564Y466590D01*
X500731Y467423D01*
X499065D01*
X498232Y468256D01*
X499065Y469089D01*
X501564D01*
X505729Y465757D02*
X504063D01*
X503230Y466590D01*
Y468256D01*
X504063Y469089D01*
X505729D01*
X506562Y468256D01*
Y467423D01*
X503230D01*
X508228Y465757D02*
Y469089D01*
X510728D01*
X511561Y468256D01*
Y465757D01*
X513227D02*
X515726D01*
X516559Y466590D01*
X515726Y467423D01*
X514060D01*
X513227Y468256D01*
X514060Y469089D01*
X516559D01*
X519058Y465757D02*
X520724D01*
X521557Y466590D01*
Y468256D01*
X520724Y469089D01*
X519058D01*
X518225Y468256D01*
Y466590D01*
X519058Y465757D01*
X523223Y469089D02*
Y465757D01*
Y467423D01*
X524056Y468256D01*
X524890Y469089D01*
X525723D01*
X533220Y464090D02*
Y469089D01*
X535719D01*
X536552Y468256D01*
Y466590D01*
X535719Y465757D01*
X533220D01*
X538219Y469089D02*
Y465757D01*
Y467423D01*
X539052Y468256D01*
X539885Y469089D01*
X540718D01*
X544050Y465757D02*
X545716D01*
X546549Y466590D01*
Y468256D01*
X545716Y469089D01*
X544050D01*
X543217Y468256D01*
Y466590D01*
X544050Y465757D01*
X548215Y464090D02*
X549048D01*
X549882Y464924D01*
Y469089D01*
X555713Y465757D02*
X554047D01*
X553214Y466590D01*
Y468256D01*
X554047Y469089D01*
X555713D01*
X556546Y468256D01*
Y467423D01*
X553214D01*
X561544Y469089D02*
X559045D01*
X558212Y468256D01*
Y466590D01*
X559045Y465757D01*
X561544D01*
X564044Y469922D02*
Y469089D01*
X563210D01*
X564877D01*
X564044D01*
Y466590D01*
X564877Y465757D01*
X370952Y289843D02*
Y285907D01*
X372920Y287875D02*
X368984D01*
X368452Y420343D02*
Y416407D01*
X370420Y418375D02*
X366484D01*
D14*
X596319Y248149D02*
Y249133D01*
X595335Y250117D01*
X590415D01*
Y247165D01*
X591399Y246181D01*
X593367D01*
X594351Y247165D01*
Y250117D01*
X590415Y253069D02*
Y255036D01*
X591399Y256020D01*
X594351D01*
Y253069D01*
X593367Y252085D01*
X592383Y253069D01*
Y256020D01*
X594351Y257988D02*
Y259956D01*
Y258972D01*
X590415D01*
Y257988D01*
X594351Y262908D02*
X590415D01*
Y265860D01*
X591399Y266844D01*
X594351D01*
D15*
X280502Y318499D02*
X278502D01*
X277503Y317499D01*
Y313500D01*
X278502Y312501D01*
X280502D01*
X281501Y313500D01*
Y317499D01*
X280502Y318499D01*
X283501Y310501D02*
Y316499D01*
X286500D01*
X287499Y315500D01*
Y313500D01*
X286500Y312501D01*
X283501D01*
X293497Y318499D02*
X291498Y317499D01*
X289499Y315500D01*
Y313500D01*
X290498Y312501D01*
X292498D01*
X293497Y313500D01*
Y314500D01*
X292498Y315500D01*
X289499D01*
X238100Y377198D02*
Y372200D01*
X239100Y371200D01*
X241099D01*
X242099Y372200D01*
Y377198D01*
X244098Y371200D02*
X246097D01*
X245098D01*
Y377198D01*
X244098Y376198D01*
X221800Y281400D02*
Y287398D01*
X224799D01*
X225799Y286398D01*
Y284399D01*
X224799Y283399D01*
X221800D01*
X223799D02*
X225799Y281400D01*
X231797D02*
X227798D01*
X231797Y285399D01*
Y286398D01*
X230797Y287398D01*
X228798D01*
X227798Y286398D01*
X237795Y281400D02*
X233796D01*
X237795Y285399D01*
Y286398D01*
X236795Y287398D01*
X234796D01*
X233796Y286398D01*
X423600Y355700D02*
Y361698D01*
X426599D01*
X427599Y360698D01*
Y358699D01*
X426599Y357699D01*
X423600D01*
X425599D02*
X427599Y355700D01*
X433597D02*
X429598D01*
X433597Y359699D01*
Y360698D01*
X432597Y361698D01*
X430598D01*
X429598Y360698D01*
X435596Y355700D02*
X437596D01*
X436596D01*
Y361698D01*
X435596Y360698D01*
X550600Y193200D02*
Y199198D01*
X553599D01*
X554599Y198198D01*
Y196199D01*
X553599Y195199D01*
X550600D01*
X552599D02*
X554599Y193200D01*
X560597D02*
X556598D01*
X560597Y197199D01*
Y198198D01*
X559597Y199198D01*
X557598D01*
X556598Y198198D01*
X562596D02*
X563596Y199198D01*
X565595D01*
X566595Y198198D01*
Y194200D01*
X565595Y193200D01*
X563596D01*
X562596Y194200D01*
Y198198D01*
X146300Y281400D02*
Y287398D01*
X149299D01*
X150299Y286398D01*
Y284399D01*
X149299Y283399D01*
X146300D01*
X148299D02*
X150299Y281400D01*
X152298D02*
X154297D01*
X153298D01*
Y287398D01*
X152298Y286398D01*
X157296Y282400D02*
X158296Y281400D01*
X160295D01*
X161295Y282400D01*
Y286398D01*
X160295Y287398D01*
X158296D01*
X157296Y286398D01*
Y285399D01*
X158296Y284399D01*
X161295D01*
X498002Y320501D02*
Y326499D01*
X501002D01*
X502001Y325499D01*
Y323500D01*
X501002Y322500D01*
X498002D01*
X500002D02*
X502001Y320501D01*
X504001D02*
X506000D01*
X505000D01*
Y326499D01*
X504001Y325499D01*
X508999D02*
X509999Y326499D01*
X511998D01*
X512998Y325499D01*
Y324500D01*
X511998Y323500D01*
X512998Y322500D01*
Y321501D01*
X511998Y320501D01*
X509999D01*
X508999Y321501D01*
Y322500D01*
X509999Y323500D01*
X508999Y324500D01*
Y325499D01*
X509999Y323500D02*
X511998D01*
X542100Y245200D02*
Y251198D01*
X545099D01*
X546099Y250198D01*
Y248199D01*
X545099Y247199D01*
X542100D01*
X544099D02*
X546099Y245200D01*
X548098D02*
X550097D01*
X549098D01*
Y251198D01*
X548098Y250198D01*
X553096Y251198D02*
X557095D01*
Y250198D01*
X553096Y246200D01*
Y245200D01*
X263800Y450398D02*
Y445400D01*
X264800Y444400D01*
X266799D01*
X267799Y445400D01*
Y450398D01*
X145400Y490998D02*
X149399D01*
X147399D01*
Y485000D01*
X154397D02*
Y490998D01*
X151398Y487999D01*
X155397D01*
X207300Y491598D02*
X211299D01*
X209299D01*
Y485600D01*
X213298Y490598D02*
X214298Y491598D01*
X216297D01*
X217297Y490598D01*
Y489599D01*
X216297Y488599D01*
X215297D01*
X216297D01*
X217297Y487599D01*
Y486600D01*
X216297Y485600D01*
X214298D01*
X213298Y486600D01*
X191400Y446998D02*
X195399D01*
X193399D01*
Y441000D01*
X201397D02*
X197398D01*
X201397Y444999D01*
Y445998D01*
X200397Y446998D01*
X198398D01*
X197398Y445998D01*
X222500Y446698D02*
X226499D01*
X224499D01*
Y440700D01*
X228498D02*
X230497D01*
X229498D01*
Y446698D01*
X228498Y445698D01*
X329600Y286200D02*
Y292198D01*
X332599D01*
X333599Y291198D01*
Y289199D01*
X332599Y288199D01*
X329600D01*
X331599D02*
X333599Y286200D01*
X335598D02*
X337597D01*
X336598D01*
Y292198D01*
X335598Y291198D01*
X344595Y292198D02*
X342596Y291198D01*
X340596Y289199D01*
Y287200D01*
X341596Y286200D01*
X343596D01*
X344595Y287200D01*
Y288199D01*
X343596Y289199D01*
X340596D01*
X508800Y407400D02*
Y413398D01*
X511799D01*
X512799Y412398D01*
Y410399D01*
X511799Y409399D01*
X508800D01*
X510799D02*
X512799Y407400D01*
X514798D02*
X516797D01*
X515798D01*
Y413398D01*
X514798Y412398D01*
X523795Y413398D02*
X519796D01*
Y410399D01*
X521796Y411399D01*
X522795D01*
X523795Y410399D01*
Y408400D01*
X522795Y407400D01*
X520796D01*
X519796Y408400D01*
X486300Y375900D02*
Y381898D01*
X489299D01*
X490299Y380898D01*
Y378899D01*
X489299Y377899D01*
X486300D01*
X488299D02*
X490299Y375900D01*
X492298D02*
X494297D01*
X493298D01*
Y381898D01*
X492298Y380898D01*
X500295Y375900D02*
Y381898D01*
X497296Y378899D01*
X501295D01*
X423300Y440400D02*
Y446398D01*
X426299D01*
X427299Y445398D01*
Y443399D01*
X426299Y442399D01*
X423300D01*
X425299D02*
X427299Y440400D01*
X429298D02*
X431297D01*
X430298D01*
Y446398D01*
X429298Y445398D01*
X434296D02*
X435296Y446398D01*
X437295D01*
X438295Y445398D01*
Y444399D01*
X437295Y443399D01*
X436296D01*
X437295D01*
X438295Y442399D01*
Y441400D01*
X437295Y440400D01*
X435296D01*
X434296Y441400D01*
X378300Y452900D02*
Y458898D01*
X381299D01*
X382299Y457898D01*
Y455899D01*
X381299Y454899D01*
X378300D01*
X380299D02*
X382299Y452900D01*
X384298D02*
X386297D01*
X385298D01*
Y458898D01*
X384298Y457898D01*
X393295Y452900D02*
X389296D01*
X393295Y456899D01*
Y457898D01*
X392296Y458898D01*
X390296D01*
X389296Y457898D01*
X161100Y339900D02*
Y345898D01*
X164099D01*
X165099Y344898D01*
Y342899D01*
X164099Y341899D01*
X161100D01*
X163099D02*
X165099Y339900D01*
X167098D02*
X169097D01*
X168098D01*
Y345898D01*
X167098Y344898D01*
X172096Y339900D02*
X174096D01*
X173096D01*
Y345898D01*
X172096Y344898D01*
X176100Y307900D02*
Y313898D01*
X179099D01*
X180099Y312898D01*
Y310899D01*
X179099Y309899D01*
X176100D01*
X178099D02*
X180099Y307900D01*
X182098D02*
X184097D01*
X183098D01*
Y313898D01*
X182098Y312898D01*
X187096D02*
X188096Y313898D01*
X190095D01*
X191095Y312898D01*
Y308900D01*
X190095Y307900D01*
X188096D01*
X187096Y308900D01*
Y312898D01*
X498100Y306900D02*
Y312898D01*
X501099D01*
X502099Y311898D01*
Y309899D01*
X501099Y308899D01*
X498100D01*
X500099D02*
X502099Y306900D01*
X504098Y307900D02*
X505098Y306900D01*
X507097D01*
X508097Y307900D01*
Y311898D01*
X507097Y312898D01*
X505098D01*
X504098Y311898D01*
Y310899D01*
X505098Y309899D01*
X508097D01*
X520600Y264400D02*
Y270398D01*
X523599D01*
X524599Y269398D01*
Y267399D01*
X523599Y266399D01*
X520600D01*
X522599D02*
X524599Y264400D01*
X529597D02*
Y270398D01*
X526598Y267399D01*
X530597D01*
X471600Y218400D02*
Y224398D01*
X474599D01*
X475599Y223398D01*
Y221399D01*
X474599Y220399D01*
X471600D01*
X473599D02*
X475599Y218400D01*
X477598Y223398D02*
X478598Y224398D01*
X480597D01*
X481597Y223398D01*
Y222399D01*
X480597Y221399D01*
X479597D01*
X480597D01*
X481597Y220399D01*
Y219400D01*
X480597Y218400D01*
X478598D01*
X477598Y219400D01*
X362600Y217400D02*
Y223398D01*
X365599D01*
X366599Y222398D01*
Y220399D01*
X365599Y219399D01*
X362600D01*
X364599D02*
X366599Y217400D01*
X368598D02*
X370597D01*
X369598D01*
Y223398D01*
X368598Y222398D01*
X139400Y166600D02*
Y172598D01*
X142399D01*
X143399Y171598D01*
Y169599D01*
X142399Y168599D01*
X139400D01*
X145398Y166600D02*
X147397D01*
X146398D01*
Y172598D01*
X145398Y171598D01*
X403299Y437698D02*
X401300D01*
X400300Y436698D01*
Y432700D01*
X401300Y431700D01*
X403299D01*
X404299Y432700D01*
Y436698D01*
X403299Y437698D01*
X406298Y429701D02*
Y435699D01*
X409297D01*
X410297Y434699D01*
Y432700D01*
X409297Y431700D01*
X406298D01*
X412296Y437698D02*
X416295D01*
Y436698D01*
X412296Y432700D01*
Y431700D01*
X328799Y353198D02*
X326800D01*
X325800Y352198D01*
Y348200D01*
X326800Y347200D01*
X328799D01*
X329799Y348200D01*
Y352198D01*
X328799Y353198D01*
X331798Y345201D02*
Y351199D01*
X334797D01*
X335797Y350199D01*
Y348200D01*
X334797Y347200D01*
X331798D01*
X341795Y353198D02*
X337796D01*
Y350199D01*
X339795Y351199D01*
X340795D01*
X341795Y350199D01*
Y348200D01*
X340795Y347200D01*
X338796D01*
X337796Y348200D01*
X455299Y349198D02*
X453300D01*
X452300Y348198D01*
Y344200D01*
X453300Y343200D01*
X455299D01*
X456299Y344200D01*
Y348198D01*
X455299Y349198D01*
X458298Y341201D02*
Y347199D01*
X461297D01*
X462297Y346199D01*
Y344200D01*
X461297Y343200D01*
X458298D01*
X467295D02*
Y349198D01*
X464296Y346199D01*
X468295D01*
X427299Y299698D02*
X425300D01*
X424300Y298698D01*
Y294700D01*
X425300Y293700D01*
X427299D01*
X428299Y294700D01*
Y298698D01*
X427299Y299698D01*
X430298Y291701D02*
Y297699D01*
X433297D01*
X434297Y296699D01*
Y294700D01*
X433297Y293700D01*
X430298D01*
X436296Y298698D02*
X437296Y299698D01*
X439295D01*
X440295Y298698D01*
Y297699D01*
X439295Y296699D01*
X438296D01*
X439295D01*
X440295Y295699D01*
Y294700D01*
X439295Y293700D01*
X437296D01*
X436296Y294700D01*
X395299Y200198D02*
X393300D01*
X392300Y199198D01*
Y195200D01*
X393300Y194200D01*
X395299D01*
X396299Y195200D01*
Y199198D01*
X395299Y200198D01*
X398298Y192201D02*
Y198199D01*
X401297D01*
X402297Y197199D01*
Y195200D01*
X401297Y194200D01*
X398298D01*
X404296D02*
X406295D01*
X405296D01*
Y200198D01*
X404296Y199198D01*
X325000Y439198D02*
Y433200D01*
X327999D01*
X328999Y434200D01*
Y438198D01*
X327999Y439198D01*
X325000D01*
X330998Y438198D02*
X331998Y439198D01*
X333997D01*
X334997Y438198D01*
Y437199D01*
X333997Y436199D01*
X334997Y435199D01*
Y434200D01*
X333997Y433200D01*
X331998D01*
X330998Y434200D01*
Y435199D01*
X331998Y436199D01*
X330998Y437199D01*
Y438198D01*
X331998Y436199D02*
X333997D01*
X337300Y449498D02*
Y443500D01*
X340299D01*
X341299Y444500D01*
Y448498D01*
X340299Y449498D01*
X337300D01*
X343298D02*
X347297D01*
Y448498D01*
X343298Y444500D01*
Y443500D01*
X437100Y376398D02*
Y370400D01*
X440099D01*
X441099Y371400D01*
Y375398D01*
X440099Y376398D01*
X437100D01*
X447097D02*
X445097Y375398D01*
X443098Y373399D01*
Y371400D01*
X444098Y370400D01*
X446097D01*
X447097Y371400D01*
Y372399D01*
X446097Y373399D01*
X443098D01*
X408100Y370898D02*
Y364900D01*
X411099D01*
X412099Y365900D01*
Y369898D01*
X411099Y370898D01*
X408100D01*
X418097D02*
X414098D01*
Y367899D01*
X416097Y368899D01*
X417097D01*
X418097Y367899D01*
Y365900D01*
X417097Y364900D01*
X415098D01*
X414098Y365900D01*
X354799Y298398D02*
X353799Y299398D01*
X351800D01*
X350800Y298398D01*
Y294400D01*
X351800Y293400D01*
X353799D01*
X354799Y294400D01*
X356798Y293400D02*
X358797D01*
X357798D01*
Y299398D01*
X356798Y298398D01*
X361796D02*
X362796Y299398D01*
X364795D01*
X365795Y298398D01*
Y297399D01*
X364795Y296399D01*
X363796D01*
X364795D01*
X365795Y295399D01*
Y294400D01*
X364795Y293400D01*
X362796D01*
X361796Y294400D01*
X352299Y428898D02*
X351299Y429898D01*
X349300D01*
X348300Y428898D01*
Y424900D01*
X349300Y423900D01*
X351299D01*
X352299Y424900D01*
X354298Y423900D02*
X356297D01*
X355298D01*
Y429898D01*
X354298Y428898D01*
X363295Y423900D02*
X359296D01*
X363295Y427899D01*
Y428898D01*
X362296Y429898D01*
X360296D01*
X359296Y428898D01*
X149999Y263898D02*
X148999Y264898D01*
X147000D01*
X146000Y263898D01*
Y259900D01*
X147000Y258900D01*
X148999D01*
X149999Y259900D01*
X151998Y258900D02*
X153997D01*
X152998D01*
Y264898D01*
X151998Y263898D01*
X156996Y258900D02*
X158996D01*
X157996D01*
Y264898D01*
X156996Y263898D01*
X245399Y256698D02*
X244399Y257698D01*
X242400D01*
X241400Y256698D01*
Y252700D01*
X242400Y251700D01*
X244399D01*
X245399Y252700D01*
X247398Y251700D02*
X249397D01*
X248398D01*
Y257698D01*
X247398Y256698D01*
X252396D02*
X253396Y257698D01*
X255396D01*
X256395Y256698D01*
Y252700D01*
X255396Y251700D01*
X253396D01*
X252396Y252700D01*
Y256698D01*
X191299Y280898D02*
X190299Y281898D01*
X188300D01*
X187300Y280898D01*
Y276900D01*
X188300Y275900D01*
X190299D01*
X191299Y276900D01*
X193298D02*
X194298Y275900D01*
X196297D01*
X197297Y276900D01*
Y280898D01*
X196297Y281898D01*
X194298D01*
X193298Y280898D01*
Y279899D01*
X194298Y278899D01*
X197297D01*
X538500Y288999D02*
X537501Y289999D01*
X535501D01*
X534502Y288999D01*
Y285001D01*
X535501Y284001D01*
X537501D01*
X538500Y285001D01*
X540500Y288999D02*
X541499Y289999D01*
X543499D01*
X544498Y288999D01*
Y288000D01*
X543499Y287000D01*
X544498Y286000D01*
Y285001D01*
X543499Y284001D01*
X541499D01*
X540500Y285001D01*
Y286000D01*
X541499Y287000D01*
X540500Y288000D01*
Y288999D01*
X541499Y287000D02*
X543499D01*
X514799Y187898D02*
X513799Y188898D01*
X511800D01*
X510800Y187898D01*
Y183900D01*
X511800Y182900D01*
X513799D01*
X514799Y183900D01*
X516798Y188898D02*
X520797D01*
Y187898D01*
X516798Y183900D01*
Y182900D01*
X444099Y193998D02*
X443099Y194998D01*
X441100D01*
X440100Y193998D01*
Y190000D01*
X441100Y189000D01*
X443099D01*
X444099Y190000D01*
X450097Y194998D02*
X448097Y193998D01*
X446098Y191999D01*
Y190000D01*
X447098Y189000D01*
X449097D01*
X450097Y190000D01*
Y190999D01*
X449097Y191999D01*
X446098D01*
X311599Y254198D02*
X310599Y255198D01*
X308600D01*
X307600Y254198D01*
Y250200D01*
X308600Y249200D01*
X310599D01*
X311599Y250200D01*
X317597Y255198D02*
X313598D01*
Y252199D01*
X315597Y253199D01*
X316597D01*
X317597Y252199D01*
Y250200D01*
X316597Y249200D01*
X314598D01*
X313598Y250200D01*
X336500Y209999D02*
X335501Y210999D01*
X333501D01*
X332502Y209999D01*
Y206001D01*
X333501Y205001D01*
X335501D01*
X336500Y206001D01*
X341499Y205001D02*
Y210999D01*
X338500Y208000D01*
X342498D01*
X280499Y167898D02*
X279499Y168898D01*
X277500D01*
X276500Y167898D01*
Y163900D01*
X277500Y162900D01*
X279499D01*
X280499Y163900D01*
X282498Y167898D02*
X283498Y168898D01*
X285497D01*
X286497Y167898D01*
Y166899D01*
X285497Y165899D01*
X284497D01*
X285497D01*
X286497Y164899D01*
Y163900D01*
X285497Y162900D01*
X283498D01*
X282498Y163900D01*
X137400Y237898D02*
X141399D01*
Y236898D01*
X137400Y232900D01*
Y231900D01*
X143398Y232900D02*
X144398Y231900D01*
X146397D01*
X147397Y232900D01*
Y236898D01*
X146397Y237898D01*
X144398D01*
X143398Y236898D01*
Y235899D01*
X144398Y234899D01*
X147397D01*
X149396Y236898D02*
X150396Y237898D01*
X152395D01*
X153395Y236898D01*
Y232900D01*
X152395Y231900D01*
X150396D01*
X149396Y232900D01*
Y236898D01*
X159393Y237898D02*
X155394D01*
Y234899D01*
X157394Y235899D01*
X158393D01*
X159393Y234899D01*
Y232900D01*
X158393Y231900D01*
X156394D01*
X155394Y232900D01*
X283700Y221398D02*
X287699D01*
Y220398D01*
X283700Y216400D01*
Y215400D01*
X289698Y220398D02*
X290698Y221398D01*
X292697D01*
X293697Y220398D01*
Y219399D01*
X292697Y218399D01*
X293697Y217399D01*
Y216400D01*
X292697Y215400D01*
X290698D01*
X289698Y216400D01*
Y217399D01*
X290698Y218399D01*
X289698Y219399D01*
Y220398D01*
X290698Y218399D02*
X292697D01*
X295696Y220398D02*
X296696Y221398D01*
X298695D01*
X299695Y220398D01*
Y216400D01*
X298695Y215400D01*
X296696D01*
X295696Y216400D01*
Y220398D01*
X305693Y221398D02*
X301694D01*
Y218399D01*
X303694Y219399D01*
X304693D01*
X305693Y218399D01*
Y216400D01*
X304693Y215400D01*
X302694D01*
X301694Y216400D01*
X193502Y156999D02*
Y151001D01*
X196501D01*
X197500Y152001D01*
Y155999D01*
X196501Y156999D01*
X193502D01*
X202499Y151001D02*
Y156999D01*
X199500Y154000D01*
X203498D01*
X197502Y175499D02*
Y169501D01*
X200501D01*
X201500Y170501D01*
Y174499D01*
X200501Y175499D01*
X197502D01*
X203500Y174499D02*
X204499Y175499D01*
X206499D01*
X207498Y174499D01*
Y173500D01*
X206499Y172500D01*
X205499D01*
X206499D01*
X207498Y171500D01*
Y170501D01*
X206499Y169501D01*
X204499D01*
X203500Y170501D01*
X191502Y212999D02*
Y207001D01*
X194501D01*
X195500Y208001D01*
Y211999D01*
X194501Y212999D01*
X191502D01*
X201498Y207001D02*
X197500D01*
X201498Y211000D01*
Y211999D01*
X200499Y212999D01*
X198499D01*
X197500Y211999D01*
X185501Y189499D02*
Y183501D01*
X188500D01*
X189500Y184501D01*
Y188499D01*
X188500Y189499D01*
X185501D01*
X191499Y183501D02*
X193499D01*
X192499D01*
Y189499D01*
X191499Y188499D01*
X233500Y203499D02*
X232501Y204499D01*
X230501D01*
X229502Y203499D01*
Y199501D01*
X230501Y198501D01*
X232501D01*
X233500Y199501D01*
X239498Y198501D02*
X235500D01*
X239498Y202500D01*
Y203499D01*
X238499Y204499D01*
X236499D01*
X235500Y203499D01*
X232500Y167999D02*
X231500Y168999D01*
X229501D01*
X228501Y167999D01*
Y164001D01*
X229501Y163001D01*
X231500D01*
X232500Y164001D01*
X234499Y163001D02*
X236499D01*
X235499D01*
Y168999D01*
X234499Y167999D01*
D16*
X412961Y346255D02*
D03*
X441961Y351760D02*
D03*
X176500Y170729D02*
D03*
X217500Y168241D02*
D03*
D17*
X206270Y140500D02*
D03*
X205758Y222500D02*
D03*
M02*
