G04*
G04 #@! TF.GenerationSoftware,Altium Limited,Altium Designer,22.0.2 (36)*
G04*
G04 Layer_Color=32896*
%FSLAX25Y25*%
%MOIN*%
G70*
G04*
G04 #@! TF.SameCoordinates,EECF79FC-5A36-4EFC-AF15-45E6CBE4EAF3*
G04*
G04*
G04 #@! TF.FilePolarity,Positive*
G04*
G01*
G75*
%ADD10C,0.00787*%
%ADD11C,0.00984*%
%ADD15C,0.01000*%
%ADD74C,0.00500*%
D10*
X347575Y151992D02*
G03*
X345508Y149925I-14077J12010D01*
G01*
X153700Y343291D02*
G03*
X153700Y359709I-8209J8209D01*
G01*
X141300D02*
G03*
X141300Y343291I8209J-8209D01*
G01*
X586898Y335008D02*
Y360992D01*
X577035D02*
X586898D01*
X559378D02*
X568965D01*
X559378Y335008D02*
X568965D01*
X577035D02*
X586898D01*
X559378Y352035D02*
Y360992D01*
Y335008D02*
Y343965D01*
X560008Y243740D02*
X585992D01*
Y253602D01*
Y261673D02*
Y271260D01*
X560008Y261673D02*
Y271260D01*
Y243740D02*
Y253602D01*
X577035Y271260D02*
X585992D01*
X560008D02*
X568965D01*
X560008Y295240D02*
X585992D01*
Y305102D01*
Y313173D02*
Y322760D01*
X560008Y313173D02*
Y322760D01*
Y295240D02*
Y305102D01*
X577035Y322760D02*
X585992D01*
X560008D02*
X568965D01*
X345508Y149925D02*
X347378Y148055D01*
X349445Y150122D01*
X347575Y151992D02*
X349445Y150122D01*
X138500Y382500D02*
X145405D01*
X159595D02*
X166500D01*
Y433500D01*
X138500D02*
X145405D01*
X159595D02*
X166500D01*
X138500Y382500D02*
Y433500D01*
X141300Y359709D02*
X153700D01*
X141300Y343291D02*
X153700D01*
D11*
X573492Y363354D02*
G03*
X573492Y363354I-492J0D01*
G01*
X588846Y257638D02*
G03*
X588846Y257638I-492J0D01*
G01*
Y309138D02*
G03*
X588846Y309138I-492J0D01*
G01*
D15*
X148701Y442298D02*
X149701Y443298D01*
X151700D01*
X152700Y442298D01*
Y441299D01*
X151700Y440299D01*
X149701D01*
X148701Y439299D01*
Y438300D01*
X149701Y437300D01*
X151700D01*
X152700Y438300D01*
X146702Y443298D02*
Y437300D01*
X144703Y439299D01*
X142703Y437300D01*
Y443298D01*
X140704Y437300D02*
X138705D01*
X139704D01*
Y443298D01*
X140704Y442298D01*
X592001Y316498D02*
X596000D01*
X597999Y314498D01*
X596000Y312499D01*
X592001D01*
X597999Y310500D02*
X592001D01*
Y307501D01*
X593001Y306501D01*
X595000D01*
X596000Y307501D01*
Y310500D01*
Y308500D02*
X597999Y306501D01*
Y304502D02*
Y302502D01*
Y303502D01*
X592001D01*
X593001Y304502D01*
X330200Y186300D02*
Y192298D01*
X327201D01*
X326201Y191298D01*
Y189299D01*
X327201Y188299D01*
X330200D01*
X324202Y192298D02*
X322203D01*
X323202D01*
Y186300D01*
X324202D01*
X322203D01*
X319204D02*
Y192298D01*
X316205D01*
X315205Y191298D01*
Y189299D01*
X316205Y188299D01*
X319204D01*
X317204D02*
X315205Y186300D01*
X577100Y418098D02*
Y412100D01*
X573101D01*
X567103Y418098D02*
X571102D01*
Y412100D01*
X567103D01*
X571102Y415099D02*
X569103D01*
X565104Y418098D02*
Y412100D01*
X562105D01*
X561105Y413100D01*
Y417098D01*
X562105Y418098D01*
X565104D01*
X559106Y412100D02*
X557106D01*
X558106D01*
Y418098D01*
X559106Y417098D01*
X554107D02*
X553108Y418098D01*
X551108D01*
X550109Y417098D01*
Y416099D01*
X552108Y414099D01*
Y413100D02*
Y412100D01*
X181997Y352499D02*
Y346501D01*
X177999D01*
X175999Y352499D02*
Y346501D01*
X173000D01*
X172001Y347501D01*
Y351499D01*
X173000Y352499D01*
X175999D01*
X170001Y346501D02*
Y352499D01*
X167002D01*
X166003Y351499D01*
Y349500D01*
X167002Y348500D01*
X170001D01*
X168002D02*
X166003Y346501D01*
D74*
X552291Y379346D02*
G03*
X563709Y379346I5709J0D01*
G01*
X549339Y408874D02*
X566661D01*
X549339Y383677D02*
Y408874D01*
Y383677D02*
X566661D01*
Y408874D01*
X552291Y379346D02*
Y383677D01*
X563709Y379346D02*
Y383677D01*
M02*
