G04*
G04 #@! TF.GenerationSoftware,Altium Limited,Altium Designer,22.0.2 (36)*
G04*
G04 Layer_Physical_Order=1*
G04 Layer_Color=255*
%FSLAX25Y25*%
%MOIN*%
G70*
G04*
G04 #@! TF.SameCoordinates,EECF79FC-5A36-4EFC-AF15-45E6CBE4EAF3*
G04*
G04*
G04 #@! TF.FilePolarity,Positive*
G04*
G01*
G75*
%ADD19C,0.04724*%
%ADD20R,0.04724X0.04724*%
%ADD30R,0.04724X0.04724*%
%ADD31C,0.04528*%
%ADD32R,0.04528X0.04528*%
%ADD33R,0.11237X0.11237*%
%ADD34C,0.11237*%
%ADD36C,0.08071*%
%ADD37R,0.08071X0.08071*%
%ADD44R,0.08071X0.08071*%
%ADD46R,0.05118X0.05118*%
%ADD47C,0.05118*%
%ADD52C,0.02500*%
%ADD53C,0.06000*%
%ADD54R,0.05512X0.05512*%
%ADD55C,0.05512*%
%ADD56C,0.06299*%
%ADD57C,0.04921*%
%ADD58R,0.04921X0.04921*%
%ADD59R,0.04921X0.04921*%
%ADD60R,0.05906X0.05906*%
%ADD61C,0.05906*%
%ADD62R,0.06299X0.06299*%
%ADD63R,0.05906X0.05906*%
%ADD64C,0.07874*%
%ADD65R,0.07874X0.07874*%
%ADD66R,0.05512X0.05512*%
%ADD67C,0.06102*%
%ADD68R,0.06299X0.06299*%
%ADD69C,0.06693*%
%ADD70R,0.06693X0.06693*%
%ADD71R,0.07874X0.07874*%
%ADD72C,0.05000*%
G36*
X607500Y123000D02*
X124500D01*
Y493500D01*
X607500D01*
Y123000D01*
D02*
G37*
%LPC*%
G36*
X240663Y475035D02*
X239337D01*
X238056Y474692D01*
X236908Y474029D01*
X235971Y473092D01*
X235308Y471944D01*
X235250Y471728D01*
X234750D01*
X234692Y471944D01*
X234029Y473092D01*
X233092Y474029D01*
X231944Y474692D01*
X230663Y475035D01*
X229337D01*
X228056Y474692D01*
X226908Y474029D01*
X225971Y473092D01*
X225535Y472338D01*
X225035Y472472D01*
Y475035D01*
X214965D01*
Y464965D01*
X225035D01*
Y467528D01*
X225535Y467662D01*
X225971Y466908D01*
X226908Y465971D01*
X228056Y465308D01*
X229337Y464965D01*
X230663D01*
X231944Y465308D01*
X233092Y465971D01*
X234029Y466908D01*
X234692Y468056D01*
X234750Y468272D01*
X235250D01*
X235308Y468056D01*
X235971Y466908D01*
X236908Y465971D01*
X238056Y465308D01*
X239337Y464965D01*
X240663D01*
X241944Y465308D01*
X243092Y465971D01*
X244029Y466908D01*
X244692Y468056D01*
X245035Y469337D01*
Y470663D01*
X244692Y471944D01*
X244029Y473092D01*
X243092Y474029D01*
X241944Y474692D01*
X240663Y475035D01*
D02*
G37*
G36*
X178546Y474650D02*
X177454D01*
X176398Y474367D01*
X175452Y473820D01*
X174680Y473048D01*
X174133Y472102D01*
X173850Y471046D01*
Y469954D01*
X174133Y468898D01*
X174680Y467952D01*
X175452Y467179D01*
X176398Y466633D01*
X177454Y466350D01*
X178546D01*
X179602Y466633D01*
X180548Y467179D01*
X181321Y467952D01*
X181867Y468898D01*
X182150Y469954D01*
Y471046D01*
X181867Y472102D01*
X181321Y473048D01*
X180548Y473820D01*
X179602Y474367D01*
X178546Y474650D01*
D02*
G37*
G36*
X168546D02*
X167454D01*
X166398Y474367D01*
X165452Y473820D01*
X164680Y473048D01*
X164133Y472102D01*
X163850Y471046D01*
Y469954D01*
X164133Y468898D01*
X164680Y467952D01*
X165452Y467179D01*
X166398Y466633D01*
X167454Y466350D01*
X168546D01*
X169602Y466633D01*
X170548Y467179D01*
X171320Y467952D01*
X171867Y468898D01*
X172150Y469954D01*
Y471046D01*
X171867Y472102D01*
X171320Y473048D01*
X170548Y473820D01*
X169602Y474367D01*
X168546Y474650D01*
D02*
G37*
G36*
X162150D02*
X153850D01*
Y466350D01*
X162150D01*
Y474650D01*
D02*
G37*
G36*
X291961Y455500D02*
X291039D01*
X290149Y455262D01*
X289351Y454801D01*
X288699Y454149D01*
X288639Y454044D01*
X237906D01*
X237649Y454301D01*
X236851Y454762D01*
X235961Y455000D01*
X235039D01*
X234149Y454762D01*
X233351Y454301D01*
X232699Y453649D01*
X232239Y452851D01*
X232000Y451961D01*
Y451039D01*
X232239Y450149D01*
X232699Y449351D01*
X232728Y449323D01*
Y448972D01*
X213756Y430000D01*
X213244D01*
X208122Y435122D01*
X207378Y435619D01*
X206500Y435794D01*
X183000D01*
X182122Y435619D01*
X181378Y435122D01*
X175050Y428794D01*
X158714D01*
X158365Y429635D01*
X157641Y430719D01*
X156719Y431641D01*
X155635Y432365D01*
X154430Y432864D01*
X153152Y433118D01*
X151848D01*
X150569Y432864D01*
X149365Y432365D01*
X148281Y431641D01*
X147359Y430719D01*
X146635Y429635D01*
X146136Y428431D01*
X145881Y427152D01*
Y425848D01*
X146136Y424570D01*
X146635Y423365D01*
X147359Y422281D01*
X148281Y421359D01*
X149365Y420635D01*
X150569Y420136D01*
X151848Y419881D01*
X153152D01*
X154430Y420136D01*
X155635Y420635D01*
X156719Y421359D01*
X157641Y422281D01*
X158365Y423365D01*
X158714Y424206D01*
X176000D01*
X176878Y424381D01*
X177622Y424878D01*
X183950Y431206D01*
X200080D01*
X200214Y430706D01*
X199908Y430529D01*
X198971Y429592D01*
X198308Y428444D01*
X197965Y427163D01*
Y425837D01*
X198308Y424556D01*
X198971Y423408D01*
X199908Y422471D01*
X201056Y421808D01*
X201272Y421750D01*
Y421250D01*
X201056Y421192D01*
X199908Y420529D01*
X198971Y419592D01*
X198308Y418444D01*
X197965Y417163D01*
Y415837D01*
X198308Y414556D01*
X198971Y413408D01*
X199908Y412471D01*
X200662Y412035D01*
X200528Y411535D01*
X197965D01*
Y401465D01*
X208035D01*
Y411535D01*
X205472D01*
X205338Y412035D01*
X206092Y412471D01*
X207029Y413408D01*
X207692Y414556D01*
X208035Y415837D01*
Y417163D01*
X207692Y418444D01*
X207029Y419592D01*
X206092Y420529D01*
X204944Y421192D01*
X204728Y421250D01*
Y421750D01*
X204944Y421808D01*
X206092Y422471D01*
X207029Y423408D01*
X207692Y424556D01*
X208035Y425837D01*
Y427163D01*
X207724Y428324D01*
X208151Y428605D01*
X210000Y426756D01*
Y426039D01*
X210239Y425149D01*
X210699Y424351D01*
X211351Y423699D01*
X212149Y423239D01*
X213039Y423000D01*
X213961D01*
X214851Y423239D01*
X215649Y423699D01*
X216301Y424351D01*
X216761Y425149D01*
X217000Y426039D01*
Y426756D01*
X236644Y446399D01*
X237141Y447144D01*
X237316Y448022D01*
Y448507D01*
X237649Y448699D01*
X238301Y449351D01*
X238361Y449456D01*
X289094D01*
X289351Y449199D01*
X290149Y448738D01*
X291039Y448500D01*
X291961D01*
X292851Y448738D01*
X293649Y449199D01*
X294301Y449851D01*
X294761Y450649D01*
X295000Y451539D01*
Y452461D01*
X294761Y453351D01*
X294301Y454149D01*
X293649Y454801D01*
X292851Y455262D01*
X291961Y455500D01*
D02*
G37*
G36*
X410994Y450256D02*
X410006D01*
X409050Y450000D01*
X408194Y449506D01*
X407494Y448806D01*
X407000Y447950D01*
X406744Y446994D01*
Y446005D01*
X407000Y445050D01*
X407494Y444194D01*
X408194Y443495D01*
X409050Y443000D01*
X410006Y442744D01*
X410994D01*
X411950Y443000D01*
X412806Y443495D01*
X413506Y444194D01*
X414000Y445050D01*
X414256Y446005D01*
Y446994D01*
X414000Y447950D01*
X413506Y448806D01*
X412806Y449506D01*
X411950Y450000D01*
X410994Y450256D01*
D02*
G37*
G36*
X380995D02*
X380006D01*
X379050Y450000D01*
X378194Y449506D01*
X377495Y448806D01*
X377000Y447950D01*
X376744Y446994D01*
Y446005D01*
X377000Y445050D01*
X377495Y444194D01*
X378194Y443495D01*
X379050Y443000D01*
X380006Y442744D01*
X380995D01*
X381950Y443000D01*
X382806Y443495D01*
X383506Y444194D01*
X384000Y445050D01*
X384256Y446005D01*
Y446994D01*
X384000Y447950D01*
X383506Y448806D01*
X382806Y449506D01*
X381950Y450000D01*
X380995Y450256D01*
D02*
G37*
G36*
X305520Y445453D02*
X304480D01*
X303474Y445183D01*
X302573Y444663D01*
X301837Y443927D01*
X301317Y443026D01*
X301047Y442020D01*
Y440980D01*
X301317Y439974D01*
X301837Y439073D01*
X302573Y438337D01*
X303474Y437817D01*
X304480Y437547D01*
X305520D01*
X306526Y437817D01*
X307427Y438337D01*
X308163Y439073D01*
X308683Y439974D01*
X308953Y440980D01*
Y442020D01*
X308683Y443026D01*
X308163Y443927D01*
X307427Y444663D01*
X306526Y445183D01*
X305520Y445453D01*
D02*
G37*
G36*
X278953D02*
X271047D01*
Y437547D01*
X278953D01*
Y445453D01*
D02*
G37*
G36*
X310000Y454294D02*
X301500D01*
X300622Y454119D01*
X299878Y453622D01*
X281878Y435622D01*
X281381Y434878D01*
X281206Y434000D01*
Y424156D01*
X280699Y423649D01*
X280239Y422851D01*
X280000Y421961D01*
Y421039D01*
X280239Y420149D01*
X280699Y419351D01*
X281351Y418699D01*
X282149Y418238D01*
X283039Y418000D01*
X283961D01*
X284851Y418238D01*
X285649Y418699D01*
X286301Y419351D01*
X286761Y420149D01*
X287000Y421039D01*
Y421961D01*
X286761Y422851D01*
X286301Y423649D01*
X285794Y424156D01*
Y433050D01*
X302450Y449706D01*
X309050D01*
X318206Y440550D01*
Y438156D01*
X317699Y437649D01*
X317238Y436851D01*
X317000Y435961D01*
Y435039D01*
X317238Y434149D01*
X317699Y433351D01*
X318351Y432699D01*
X319149Y432238D01*
X320039Y432000D01*
X320961D01*
X321851Y432238D01*
X322649Y432699D01*
X323301Y433351D01*
X323762Y434149D01*
X324000Y435039D01*
Y435961D01*
X323762Y436851D01*
X323301Y437649D01*
X322794Y438156D01*
Y441500D01*
X322620Y442378D01*
X322122Y443122D01*
X311622Y453622D01*
X310878Y454119D01*
X310000Y454294D01*
D02*
G37*
G36*
X377813Y439551D02*
X376746D01*
X375716Y439275D01*
X374792Y438742D01*
X374038Y437988D01*
X373504Y437064D01*
X373228Y436033D01*
Y434967D01*
X373504Y433936D01*
X374038Y433012D01*
X374792Y432258D01*
X375716Y431725D01*
X376746Y431449D01*
X377813D01*
X378843Y431725D01*
X379767Y432258D01*
X380521Y433012D01*
X381055Y433936D01*
X381331Y434967D01*
Y436033D01*
X381055Y437064D01*
X380521Y437988D01*
X379767Y438742D01*
X378843Y439275D01*
X377813Y439551D01*
D02*
G37*
G36*
X340254D02*
X339187D01*
X338157Y439275D01*
X337233Y438742D01*
X336479Y437988D01*
X335945Y437064D01*
X335669Y436033D01*
Y434967D01*
X335945Y433936D01*
X336479Y433012D01*
X337233Y432258D01*
X338157Y431725D01*
X339187Y431449D01*
X340254D01*
X341284Y431725D01*
X342208Y432258D01*
X342962Y433012D01*
X343495Y433936D01*
X343772Y434967D01*
Y436033D01*
X343495Y437064D01*
X342962Y437988D01*
X342208Y438742D01*
X341284Y439275D01*
X340254Y439551D01*
D02*
G37*
G36*
X455995Y437756D02*
X455006D01*
X454050Y437500D01*
X453194Y437006D01*
X452494Y436306D01*
X452000Y435450D01*
X451744Y434494D01*
Y433505D01*
X452000Y432550D01*
X452494Y431694D01*
X453194Y430995D01*
X454050Y430500D01*
X455006Y430244D01*
X455995D01*
X456950Y430500D01*
X457806Y430995D01*
X458505Y431694D01*
X459000Y432550D01*
X459256Y433505D01*
Y434494D01*
X459000Y435450D01*
X458505Y436306D01*
X457806Y437006D01*
X456950Y437500D01*
X455995Y437756D01*
D02*
G37*
G36*
X305520Y435453D02*
X304480D01*
X303474Y435183D01*
X302573Y434663D01*
X301837Y433927D01*
X301317Y433026D01*
X301047Y432020D01*
Y430980D01*
X301317Y429974D01*
X301837Y429073D01*
X302573Y428337D01*
X303474Y427817D01*
X304480Y427547D01*
X305520D01*
X306526Y427817D01*
X307427Y428337D01*
X308163Y429073D01*
X308683Y429974D01*
X308953Y430980D01*
Y432020D01*
X308683Y433026D01*
X308163Y433927D01*
X307427Y434663D01*
X306526Y435183D01*
X305520Y435453D01*
D02*
G37*
G36*
X275520D02*
X274480D01*
X273474Y435183D01*
X272573Y434663D01*
X271837Y433927D01*
X271317Y433026D01*
X271047Y432020D01*
Y430980D01*
X271317Y429974D01*
X271837Y429073D01*
X272573Y428337D01*
X273474Y427817D01*
X274480Y427547D01*
X275520D01*
X276526Y427817D01*
X277427Y428337D01*
X278163Y429073D01*
X278683Y429974D01*
X278953Y430980D01*
Y432020D01*
X278683Y433026D01*
X278163Y433927D01*
X277427Y434663D01*
X276526Y435183D01*
X275520Y435453D01*
D02*
G37*
G36*
X329533Y430831D02*
X328467D01*
X327436Y430555D01*
X326513Y430021D01*
X325758Y429267D01*
X325225Y428343D01*
X324949Y427313D01*
Y426246D01*
X325225Y425216D01*
X325758Y424292D01*
X326513Y423538D01*
X327436Y423004D01*
X328467Y422728D01*
X329533D01*
X330564Y423004D01*
X331487Y423538D01*
X332242Y424292D01*
X332775Y425216D01*
X333051Y426246D01*
Y427313D01*
X332775Y428343D01*
X332242Y429267D01*
X331487Y430021D01*
X330564Y430555D01*
X329533Y430831D01*
D02*
G37*
G36*
X233546Y430650D02*
X232454D01*
X231398Y430367D01*
X230452Y429820D01*
X229679Y429048D01*
X229133Y428102D01*
X228850Y427046D01*
Y425954D01*
X229133Y424898D01*
X229679Y423952D01*
X230452Y423179D01*
X231398Y422633D01*
X232454Y422350D01*
X233546D01*
X234602Y422633D01*
X235548Y423179D01*
X236320Y423952D01*
X236867Y424898D01*
X237150Y425954D01*
Y427046D01*
X236867Y428102D01*
X236320Y429048D01*
X235548Y429820D01*
X234602Y430367D01*
X233546Y430650D01*
D02*
G37*
G36*
X305520Y425453D02*
X304480D01*
X303474Y425183D01*
X302573Y424663D01*
X301837Y423927D01*
X301317Y423026D01*
X301047Y422020D01*
Y420980D01*
X301317Y419974D01*
X301837Y419073D01*
X302573Y418337D01*
X303474Y417817D01*
X304480Y417547D01*
X305520D01*
X306526Y417817D01*
X307427Y418337D01*
X308163Y419073D01*
X308683Y419974D01*
X308953Y420980D01*
Y422020D01*
X308683Y423026D01*
X308163Y423927D01*
X307427Y424663D01*
X306526Y425183D01*
X305520Y425453D01*
D02*
G37*
G36*
X275520D02*
X274480D01*
X273474Y425183D01*
X272573Y424663D01*
X271837Y423927D01*
X271317Y423026D01*
X271047Y422020D01*
Y420980D01*
X271317Y419974D01*
X271837Y419073D01*
X272573Y418337D01*
X273474Y417817D01*
X274480Y417547D01*
X275520D01*
X276526Y417817D01*
X277427Y418337D01*
X278163Y419073D01*
X278683Y419974D01*
X278953Y420980D01*
Y422020D01*
X278683Y423026D01*
X278163Y423927D01*
X277427Y424663D01*
X276526Y425183D01*
X275520Y425453D01*
D02*
G37*
G36*
X434020Y424453D02*
X432980D01*
X431974Y424183D01*
X431073Y423663D01*
X430337Y422927D01*
X429817Y422026D01*
X429547Y421020D01*
Y419980D01*
X429817Y418974D01*
X430337Y418073D01*
X431073Y417337D01*
X431974Y416817D01*
X432980Y416547D01*
X434020D01*
X435026Y416817D01*
X435927Y417337D01*
X436663Y418073D01*
X437183Y418974D01*
X437453Y419980D01*
Y421020D01*
X437183Y422026D01*
X436663Y422927D01*
X435927Y423663D01*
X435026Y424183D01*
X434020Y424453D01*
D02*
G37*
G36*
X407453D02*
X399547D01*
Y416547D01*
X407453D01*
Y424453D01*
D02*
G37*
G36*
X233546Y420650D02*
X232454D01*
X231398Y420367D01*
X230452Y419820D01*
X229679Y419048D01*
X229133Y418102D01*
X228850Y417046D01*
Y415954D01*
X229133Y414898D01*
X229679Y413952D01*
X230452Y413179D01*
X231398Y412633D01*
X232454Y412350D01*
X233546D01*
X234602Y412633D01*
X235548Y413179D01*
X236320Y413952D01*
X236867Y414898D01*
X237150Y415954D01*
Y417046D01*
X236867Y418102D01*
X236320Y419048D01*
X235548Y419820D01*
X234602Y420367D01*
X233546Y420650D01*
D02*
G37*
G36*
X305520Y415453D02*
X304480D01*
X303474Y415183D01*
X302573Y414663D01*
X301837Y413927D01*
X301317Y413026D01*
X301047Y412020D01*
Y410980D01*
X301317Y409974D01*
X301837Y409073D01*
X302573Y408337D01*
X303474Y407817D01*
X304480Y407547D01*
X305520D01*
X306526Y407817D01*
X307427Y408337D01*
X308163Y409073D01*
X308683Y409974D01*
X308953Y410980D01*
Y412020D01*
X308683Y413026D01*
X308163Y413927D01*
X307427Y414663D01*
X306526Y415183D01*
X305520Y415453D01*
D02*
G37*
G36*
X275520D02*
X274480D01*
X273474Y415183D01*
X272573Y414663D01*
X271837Y413927D01*
X271317Y413026D01*
X271047Y412020D01*
Y410980D01*
X271317Y409974D01*
X271837Y409073D01*
X272573Y408337D01*
X273474Y407817D01*
X274480Y407547D01*
X275520D01*
X276526Y407817D01*
X277427Y408337D01*
X278163Y409073D01*
X278683Y409974D01*
X278953Y410980D01*
Y412020D01*
X278683Y413026D01*
X278163Y413927D01*
X277427Y414663D01*
X276526Y415183D01*
X275520Y415453D01*
D02*
G37*
G36*
X434020Y414453D02*
X432980D01*
X431974Y414183D01*
X431073Y413663D01*
X430337Y412927D01*
X429817Y412026D01*
X429547Y411020D01*
Y409980D01*
X429817Y408974D01*
X430337Y408073D01*
X431073Y407337D01*
X431974Y406817D01*
X432980Y406547D01*
X434020D01*
X435026Y406817D01*
X435927Y407337D01*
X436663Y408073D01*
X437183Y408974D01*
X437453Y409980D01*
Y411020D01*
X437183Y412026D01*
X436663Y412927D01*
X435927Y413663D01*
X435026Y414183D01*
X434020Y414453D01*
D02*
G37*
G36*
X404020D02*
X402980D01*
X401974Y414183D01*
X401073Y413663D01*
X400337Y412927D01*
X399817Y412026D01*
X399547Y411020D01*
Y409980D01*
X399817Y408974D01*
X400337Y408073D01*
X401073Y407337D01*
X401974Y406817D01*
X402980Y406547D01*
X404020D01*
X405026Y406817D01*
X405927Y407337D01*
X406663Y408073D01*
X407183Y408974D01*
X407453Y409980D01*
Y411020D01*
X407183Y412026D01*
X406663Y412927D01*
X405927Y413663D01*
X405026Y414183D01*
X404020Y414453D01*
D02*
G37*
G36*
X153152Y414618D02*
X151848D01*
X150569Y414364D01*
X149365Y413865D01*
X148281Y413141D01*
X147359Y412219D01*
X146635Y411135D01*
X146136Y409931D01*
X145881Y408652D01*
Y407348D01*
X146136Y406070D01*
X146635Y404865D01*
X147359Y403781D01*
X148281Y402859D01*
X149365Y402135D01*
X150569Y401636D01*
X151848Y401381D01*
X153152D01*
X154430Y401636D01*
X155635Y402135D01*
X156719Y402859D01*
X157641Y403781D01*
X158365Y404865D01*
X158714Y405706D01*
X175844D01*
X176351Y405199D01*
X177149Y404739D01*
X178039Y404500D01*
X178961D01*
X179851Y404739D01*
X180649Y405199D01*
X181301Y405851D01*
X181762Y406649D01*
X182000Y407539D01*
Y408461D01*
X181762Y409351D01*
X181301Y410149D01*
X180649Y410801D01*
X179851Y411262D01*
X178961Y411500D01*
X178039D01*
X177149Y411262D01*
X176351Y410801D01*
X175844Y410294D01*
X158714D01*
X158365Y411135D01*
X157641Y412219D01*
X156719Y413141D01*
X155635Y413865D01*
X154430Y414364D01*
X153152Y414618D01*
D02*
G37*
G36*
X252961Y433500D02*
X252039D01*
X251149Y433261D01*
X250351Y432801D01*
X249699Y432149D01*
X249238Y431351D01*
X249000Y430461D01*
Y429539D01*
X249238Y428649D01*
X249699Y427851D01*
X250206Y427344D01*
Y409656D01*
X249699Y409149D01*
X249238Y408351D01*
X249000Y407461D01*
Y406539D01*
X249238Y405649D01*
X249699Y404851D01*
X250351Y404199D01*
X251149Y403738D01*
X252039Y403500D01*
X252961D01*
X253851Y403738D01*
X254649Y404199D01*
X255301Y404851D01*
X255762Y405649D01*
X256000Y406539D01*
Y407461D01*
X255762Y408351D01*
X255301Y409149D01*
X254794Y409656D01*
Y427344D01*
X255301Y427851D01*
X255762Y428649D01*
X256000Y429539D01*
Y430461D01*
X255762Y431351D01*
X255301Y432149D01*
X254649Y432801D01*
X253851Y433261D01*
X252961Y433500D01*
D02*
G37*
G36*
X553546Y405150D02*
X552454D01*
X551398Y404867D01*
X550452Y404320D01*
X549680Y403548D01*
X549533Y403294D01*
X544012D01*
X544005Y403306D01*
X543306Y404005D01*
X542450Y404500D01*
X541495Y404756D01*
X540506D01*
X539550Y404500D01*
X538694Y404005D01*
X537994Y403306D01*
X537500Y402450D01*
X537244Y401495D01*
Y400505D01*
X537500Y399550D01*
X537994Y398694D01*
X538694Y397994D01*
X539550Y397500D01*
X540506Y397244D01*
X541495D01*
X542450Y397500D01*
X543306Y397994D01*
X544005Y398694D01*
X544012Y398706D01*
X549533D01*
X549680Y398452D01*
X550452Y397679D01*
X551398Y397133D01*
X552454Y396850D01*
X553546D01*
X554602Y397133D01*
X555548Y397679D01*
X556320Y398452D01*
X556867Y399398D01*
X557150Y400454D01*
Y401546D01*
X556867Y402602D01*
X556320Y403548D01*
X555548Y404320D01*
X554602Y404867D01*
X553546Y405150D01*
D02*
G37*
G36*
X237150Y410650D02*
X228850D01*
Y402350D01*
X237150D01*
Y410650D01*
D02*
G37*
G36*
X269961Y491000D02*
X269039D01*
X268149Y490762D01*
X267351Y490301D01*
X266699Y489649D01*
X266238Y488851D01*
X266000Y487961D01*
Y487039D01*
X266238Y486149D01*
X266699Y485351D01*
X267351Y484699D01*
X268149Y484238D01*
X269039Y484000D01*
X269961D01*
X270851Y484238D01*
X271649Y484699D01*
X272156Y485206D01*
X383062D01*
X415840Y452428D01*
Y407290D01*
X415199Y406649D01*
X414739Y405851D01*
X414500Y404961D01*
Y404039D01*
X414739Y403149D01*
X415199Y402351D01*
X415851Y401699D01*
X416649Y401238D01*
X417539Y401000D01*
X418461D01*
X419351Y401238D01*
X420149Y401699D01*
X420801Y402351D01*
X421262Y403149D01*
X421500Y404039D01*
Y404961D01*
X421262Y405851D01*
X420801Y406649D01*
X420429Y407021D01*
Y453378D01*
X420254Y454256D01*
X419757Y455000D01*
X385634Y489122D01*
X384890Y489619D01*
X384012Y489794D01*
X272156D01*
X271649Y490301D01*
X270851Y490762D01*
X269961Y491000D01*
D02*
G37*
G36*
X368994Y407941D02*
X368005D01*
X367050Y407685D01*
X366194Y407191D01*
X365494Y406491D01*
X365000Y405635D01*
X364744Y404680D01*
Y403691D01*
X365000Y402736D01*
X365494Y401879D01*
X366194Y401180D01*
X367050Y400685D01*
X368005Y400429D01*
X368994D01*
X369950Y400685D01*
X370806Y401180D01*
X371505Y401879D01*
X372000Y402736D01*
X372256Y403691D01*
Y404680D01*
X372000Y405635D01*
X371505Y406491D01*
X370806Y407191D01*
X369950Y407685D01*
X368994Y407941D01*
D02*
G37*
G36*
X305520Y405453D02*
X304480D01*
X303474Y405183D01*
X302573Y404663D01*
X301837Y403927D01*
X301317Y403026D01*
X301047Y402020D01*
Y400980D01*
X301317Y399974D01*
X301837Y399073D01*
X302573Y398337D01*
X303474Y397817D01*
X304480Y397547D01*
X305520D01*
X306526Y397817D01*
X307427Y398337D01*
X308163Y399073D01*
X308683Y399974D01*
X308953Y400980D01*
Y402020D01*
X308683Y403026D01*
X308163Y403927D01*
X307427Y404663D01*
X306526Y405183D01*
X305520Y405453D01*
D02*
G37*
G36*
X275520D02*
X274480D01*
X273474Y405183D01*
X272573Y404663D01*
X271837Y403927D01*
X271317Y403026D01*
X271047Y402020D01*
Y400980D01*
X271317Y399974D01*
X271837Y399073D01*
X272573Y398337D01*
X273474Y397817D01*
X274480Y397547D01*
X275520D01*
X276526Y397817D01*
X277427Y398337D01*
X278163Y399073D01*
X278683Y399974D01*
X278953Y400980D01*
Y402020D01*
X278683Y403026D01*
X278163Y403927D01*
X277427Y404663D01*
X276526Y405183D01*
X275520Y405453D01*
D02*
G37*
G36*
X511494Y404756D02*
X510505D01*
X509550Y404500D01*
X508694Y404005D01*
X507995Y403306D01*
X507500Y402450D01*
X507244Y401495D01*
Y400505D01*
X507500Y399550D01*
X507995Y398694D01*
X508694Y397994D01*
X509550Y397500D01*
X510505Y397244D01*
X511494D01*
X512450Y397500D01*
X513306Y397994D01*
X514006Y398694D01*
X514500Y399550D01*
X514756Y400505D01*
Y401495D01*
X514500Y402450D01*
X514006Y403306D01*
X513306Y404005D01*
X512450Y404500D01*
X511494Y404756D01*
D02*
G37*
G36*
X425994Y437756D02*
X425005D01*
X424050Y437500D01*
X423194Y437006D01*
X422495Y436306D01*
X422000Y435450D01*
X421744Y434494D01*
Y433505D01*
X422000Y432550D01*
X422495Y431694D01*
X423194Y430995D01*
X424050Y430500D01*
X425005Y430244D01*
X425994D01*
X426950Y430500D01*
X427806Y430995D01*
X428506Y431694D01*
X428512Y431706D01*
X440550D01*
X455378Y416878D01*
X456122Y416381D01*
X457000Y416206D01*
X553550D01*
X560706Y409050D01*
Y404467D01*
X560452Y404320D01*
X559680Y403548D01*
X559133Y402602D01*
X558850Y401546D01*
Y400454D01*
X559133Y399398D01*
X559680Y398452D01*
X560452Y397679D01*
X561398Y397133D01*
X562454Y396850D01*
X563546D01*
X564602Y397133D01*
X565548Y397679D01*
X566321Y398452D01*
X566867Y399398D01*
X567150Y400454D01*
Y401546D01*
X566867Y402602D01*
X566321Y403548D01*
X565548Y404320D01*
X565294Y404467D01*
Y410000D01*
X565120Y410878D01*
X564622Y411622D01*
X556122Y420122D01*
X555378Y420619D01*
X554500Y420794D01*
X457950D01*
X443122Y435622D01*
X442378Y436119D01*
X441500Y436294D01*
X428512D01*
X428506Y436306D01*
X427806Y437006D01*
X426950Y437500D01*
X425994Y437756D01*
D02*
G37*
G36*
X434020Y404453D02*
X432980D01*
X431974Y404183D01*
X431073Y403663D01*
X430337Y402927D01*
X429817Y402026D01*
X429547Y401020D01*
Y399980D01*
X429817Y398974D01*
X430337Y398073D01*
X431073Y397337D01*
X431974Y396817D01*
X432980Y396547D01*
X434020D01*
X435026Y396817D01*
X435927Y397337D01*
X436663Y398073D01*
X437183Y398974D01*
X437453Y399980D01*
Y401020D01*
X437183Y402026D01*
X436663Y402927D01*
X435927Y403663D01*
X435026Y404183D01*
X434020Y404453D01*
D02*
G37*
G36*
X404020D02*
X402980D01*
X401974Y404183D01*
X401073Y403663D01*
X400337Y402927D01*
X399817Y402026D01*
X399547Y401020D01*
Y399980D01*
X399817Y398974D01*
X400337Y398073D01*
X401073Y397337D01*
X401974Y396817D01*
X402980Y396547D01*
X404020D01*
X405026Y396817D01*
X405927Y397337D01*
X406663Y398073D01*
X407183Y398974D01*
X407453Y399980D01*
Y401020D01*
X407183Y402026D01*
X406663Y402927D01*
X405927Y403663D01*
X405026Y404183D01*
X404020Y404453D01*
D02*
G37*
G36*
X305520Y395453D02*
X304480D01*
X303474Y395183D01*
X302573Y394663D01*
X301837Y393927D01*
X301317Y393026D01*
X301047Y392020D01*
Y390980D01*
X301317Y389974D01*
X301837Y389073D01*
X302573Y388337D01*
X303474Y387817D01*
X304480Y387547D01*
X305520D01*
X306526Y387817D01*
X307427Y388337D01*
X308163Y389073D01*
X308683Y389974D01*
X308953Y390980D01*
Y392020D01*
X308683Y393026D01*
X308163Y393927D01*
X307427Y394663D01*
X306526Y395183D01*
X305520Y395453D01*
D02*
G37*
G36*
X275520D02*
X274480D01*
X273474Y395183D01*
X272573Y394663D01*
X271837Y393927D01*
X271317Y393026D01*
X271047Y392020D01*
Y390980D01*
X271317Y389974D01*
X271837Y389073D01*
X272573Y388337D01*
X273474Y387817D01*
X274480Y387547D01*
X275520D01*
X276526Y387817D01*
X277427Y388337D01*
X278163Y389073D01*
X278683Y389974D01*
X278953Y390980D01*
Y392020D01*
X278683Y393026D01*
X278163Y393927D01*
X277427Y394663D01*
X276526Y395183D01*
X275520Y395453D01*
D02*
G37*
G36*
X434020Y394453D02*
X432980D01*
X431974Y394183D01*
X431073Y393663D01*
X430337Y392927D01*
X429817Y392026D01*
X429547Y391020D01*
Y389980D01*
X429817Y388974D01*
X430337Y388073D01*
X431073Y387337D01*
X431974Y386817D01*
X432980Y386547D01*
X434020D01*
X435026Y386817D01*
X435927Y387337D01*
X436663Y388073D01*
X437183Y388974D01*
X437453Y389980D01*
Y391020D01*
X437183Y392026D01*
X436663Y392927D01*
X435927Y393663D01*
X435026Y394183D01*
X434020Y394453D01*
D02*
G37*
G36*
X404020D02*
X402980D01*
X401974Y394183D01*
X401073Y393663D01*
X400337Y392927D01*
X399817Y392026D01*
X399547Y391020D01*
Y389980D01*
X399817Y388974D01*
X400337Y388073D01*
X401073Y387337D01*
X401974Y386817D01*
X402980Y386547D01*
X404020D01*
X405026Y386817D01*
X405927Y387337D01*
X406663Y388073D01*
X407183Y388974D01*
X407453Y389980D01*
Y391020D01*
X407183Y392026D01*
X406663Y392927D01*
X405927Y393663D01*
X405026Y394183D01*
X404020Y394453D01*
D02*
G37*
G36*
X329533Y393272D02*
X328467D01*
X327436Y392996D01*
X326513Y392462D01*
X325758Y391708D01*
X325225Y390784D01*
X324949Y389754D01*
Y388687D01*
X325225Y387657D01*
X325758Y386733D01*
X326513Y385979D01*
X327436Y385445D01*
X328467Y385169D01*
X329533D01*
X330564Y385445D01*
X331487Y385979D01*
X332242Y386733D01*
X332775Y387657D01*
X333051Y388687D01*
Y389754D01*
X332775Y390784D01*
X332242Y391708D01*
X331487Y392462D01*
X330564Y392996D01*
X329533Y393272D01*
D02*
G37*
G36*
X249961Y390000D02*
X249039D01*
X248149Y389761D01*
X247351Y389301D01*
X246844Y388794D01*
X232500D01*
X231622Y388619D01*
X230878Y388122D01*
X217378Y374622D01*
X216880Y373878D01*
X216706Y373000D01*
Y358500D01*
X216880Y357622D01*
X217378Y356878D01*
X227378Y346878D01*
X228122Y346380D01*
X229000Y346206D01*
X251344D01*
X251851Y345699D01*
X252649Y345238D01*
X253539Y345000D01*
X254461D01*
X255351Y345238D01*
X256149Y345699D01*
X256801Y346351D01*
X257261Y347149D01*
X257500Y348039D01*
Y348961D01*
X257261Y349851D01*
X256801Y350649D01*
X256149Y351301D01*
X255351Y351762D01*
X254461Y352000D01*
X253539D01*
X252649Y351762D01*
X251851Y351301D01*
X251344Y350794D01*
X229950D01*
X221294Y359450D01*
Y372050D01*
X233450Y384206D01*
X246844D01*
X247351Y383699D01*
X248149Y383239D01*
X249039Y383000D01*
X249961D01*
X250851Y383239D01*
X251649Y383699D01*
X252301Y384351D01*
X252762Y385149D01*
X253000Y386039D01*
Y386961D01*
X252762Y387851D01*
X252301Y388649D01*
X251649Y389301D01*
X250851Y389761D01*
X249961Y390000D01*
D02*
G37*
G36*
X368994Y388256D02*
X368005D01*
X367050Y388000D01*
X366194Y387506D01*
X365494Y386806D01*
X365000Y385950D01*
X364744Y384995D01*
Y384005D01*
X365000Y383050D01*
X365494Y382194D01*
X366194Y381494D01*
X367050Y381000D01*
X368005Y380744D01*
X368994D01*
X369950Y381000D01*
X370806Y381494D01*
X371505Y382194D01*
X372000Y383050D01*
X372256Y384005D01*
Y384995D01*
X372000Y385950D01*
X371505Y386806D01*
X370806Y387506D01*
X369950Y388000D01*
X368994Y388256D01*
D02*
G37*
G36*
X305520Y385453D02*
X304480D01*
X303474Y385183D01*
X302573Y384663D01*
X301837Y383927D01*
X301317Y383026D01*
X301047Y382020D01*
Y380980D01*
X301317Y379974D01*
X301837Y379073D01*
X302573Y378337D01*
X303474Y377817D01*
X304480Y377547D01*
X305520D01*
X306526Y377817D01*
X307427Y378337D01*
X308163Y379073D01*
X308683Y379974D01*
X308953Y380980D01*
Y382020D01*
X308683Y383026D01*
X308163Y383927D01*
X307427Y384663D01*
X306526Y385183D01*
X305520Y385453D01*
D02*
G37*
G36*
X275520D02*
X274480D01*
X273474Y385183D01*
X272573Y384663D01*
X271837Y383927D01*
X271317Y383026D01*
X271047Y382020D01*
Y380980D01*
X271317Y379974D01*
X271837Y379073D01*
X272573Y378337D01*
X273474Y377817D01*
X274480Y377547D01*
X275520D01*
X276526Y377817D01*
X277427Y378337D01*
X278163Y379073D01*
X278683Y379974D01*
X278953Y380980D01*
Y382020D01*
X278683Y383026D01*
X278163Y383927D01*
X277427Y384663D01*
X276526Y385183D01*
X275520Y385453D01*
D02*
G37*
G36*
X488995Y373256D02*
X488005D01*
X487050Y373000D01*
X486194Y372505D01*
X485495Y371806D01*
X485000Y370950D01*
X484744Y369994D01*
Y369005D01*
X485000Y368050D01*
X485495Y367194D01*
X486194Y366494D01*
X487050Y366000D01*
X488005Y365744D01*
X488995D01*
X489950Y366000D01*
X490806Y366494D01*
X491505Y367194D01*
X492000Y368050D01*
X492256Y369005D01*
Y369994D01*
X492000Y370950D01*
X491505Y371806D01*
X490806Y372505D01*
X489950Y373000D01*
X488995Y373256D01*
D02*
G37*
G36*
X287520Y367953D02*
X286480D01*
X285474Y367683D01*
X284573Y367163D01*
X283837Y366427D01*
X283317Y365526D01*
X283047Y364520D01*
Y363480D01*
X283317Y362474D01*
X283837Y361573D01*
X284573Y360837D01*
X285474Y360317D01*
X286480Y360047D01*
X287520D01*
X288526Y360317D01*
X289427Y360837D01*
X290163Y361573D01*
X290683Y362474D01*
X290953Y363480D01*
Y364520D01*
X290683Y365526D01*
X290163Y366427D01*
X289427Y367163D01*
X288526Y367683D01*
X287520Y367953D01*
D02*
G37*
G36*
X277520D02*
X276480D01*
X275474Y367683D01*
X274573Y367163D01*
X273837Y366427D01*
X273317Y365526D01*
X273047Y364520D01*
Y363480D01*
X273317Y362474D01*
X273837Y361573D01*
X274573Y360837D01*
X275474Y360317D01*
X276480Y360047D01*
X277520D01*
X278526Y360317D01*
X279427Y360837D01*
X280163Y361573D01*
X280683Y362474D01*
X280953Y363480D01*
Y364520D01*
X280683Y365526D01*
X280163Y366427D01*
X279427Y367163D01*
X278526Y367683D01*
X277520Y367953D01*
D02*
G37*
G36*
X267520D02*
X266480D01*
X265474Y367683D01*
X264573Y367163D01*
X263837Y366427D01*
X263317Y365526D01*
X263047Y364520D01*
Y363480D01*
X263317Y362474D01*
X263837Y361573D01*
X264573Y360837D01*
X265474Y360317D01*
X266480Y360047D01*
X267520D01*
X268526Y360317D01*
X269427Y360837D01*
X270163Y361573D01*
X270683Y362474D01*
X270953Y363480D01*
Y364520D01*
X270683Y365526D01*
X270163Y366427D01*
X269427Y367163D01*
X268526Y367683D01*
X267520Y367953D01*
D02*
G37*
G36*
X257520D02*
X256480D01*
X255474Y367683D01*
X254573Y367163D01*
X253837Y366427D01*
X253317Y365526D01*
X253047Y364520D01*
Y363480D01*
X253317Y362474D01*
X253837Y361573D01*
X254573Y360837D01*
X255474Y360317D01*
X256480Y360047D01*
X257520D01*
X258526Y360317D01*
X259427Y360837D01*
X260163Y361573D01*
X260683Y362474D01*
X260953Y363480D01*
Y364520D01*
X260683Y365526D01*
X260163Y366427D01*
X259427Y367163D01*
X258526Y367683D01*
X257520Y367953D01*
D02*
G37*
G36*
X247520D02*
X246480D01*
X245474Y367683D01*
X244573Y367163D01*
X243837Y366427D01*
X243317Y365526D01*
X243047Y364520D01*
Y363480D01*
X243317Y362474D01*
X243837Y361573D01*
X244573Y360837D01*
X245474Y360317D01*
X246480Y360047D01*
X247520D01*
X248526Y360317D01*
X249427Y360837D01*
X250163Y361573D01*
X250683Y362474D01*
X250953Y363480D01*
Y364520D01*
X250683Y365526D01*
X250163Y366427D01*
X249427Y367163D01*
X248526Y367683D01*
X247520Y367953D01*
D02*
G37*
G36*
X446937Y368028D02*
X437063D01*
Y358154D01*
X446937D01*
Y368028D01*
D02*
G37*
G36*
X500461Y363000D02*
X499539D01*
X498649Y362761D01*
X497851Y362301D01*
X497344Y361794D01*
X492500D01*
X491622Y361619D01*
X490878Y361122D01*
X465878Y336122D01*
X465381Y335378D01*
X465206Y334500D01*
Y324656D01*
X464699Y324149D01*
X464239Y323351D01*
X464000Y322461D01*
Y321539D01*
X464239Y320649D01*
X464699Y319851D01*
X465351Y319199D01*
X466149Y318739D01*
X467039Y318500D01*
X467961D01*
X468851Y318739D01*
X469649Y319199D01*
X470301Y319851D01*
X470761Y320649D01*
X471000Y321539D01*
Y322461D01*
X470761Y323351D01*
X470301Y324149D01*
X469794Y324656D01*
Y333550D01*
X493450Y357206D01*
X497344D01*
X497851Y356699D01*
X498649Y356239D01*
X499539Y356000D01*
X500461D01*
X501351Y356239D01*
X502149Y356699D01*
X502801Y357351D01*
X503262Y358149D01*
X503500Y359039D01*
Y359961D01*
X503262Y360851D01*
X502801Y361649D01*
X502149Y362301D01*
X501351Y362761D01*
X500461Y363000D01*
D02*
G37*
G36*
X576461Y361461D02*
X569539D01*
Y354539D01*
X576461D01*
Y361461D01*
D02*
G37*
G36*
X417937Y362528D02*
X408063D01*
Y352654D01*
X417937D01*
Y362528D01*
D02*
G37*
G36*
X288961Y382500D02*
X288039D01*
X287149Y382261D01*
X286351Y381801D01*
X285699Y381149D01*
X285239Y380351D01*
X285000Y379461D01*
Y378539D01*
X285239Y377649D01*
X285699Y376851D01*
X286351Y376199D01*
X287149Y375739D01*
X288039Y375500D01*
X288756D01*
X295987Y368269D01*
X295857Y367786D01*
X295474Y367683D01*
X294573Y367163D01*
X293837Y366427D01*
X293317Y365526D01*
X293047Y364520D01*
Y363480D01*
X293317Y362474D01*
X293837Y361573D01*
X294573Y360837D01*
X295474Y360317D01*
X296480Y360047D01*
X297520D01*
X298526Y360317D01*
X299427Y360837D01*
X300163Y361573D01*
X300683Y362474D01*
X300953Y363480D01*
Y364520D01*
X300683Y365526D01*
X300174Y366409D01*
X300238Y366675D01*
X300335Y366909D01*
X303047D01*
Y360047D01*
X310953D01*
Y365237D01*
X311415Y365428D01*
X337206Y339637D01*
Y274000D01*
X337381Y273122D01*
X337878Y272378D01*
X342500Y267756D01*
Y267289D01*
X342739Y266399D01*
X343199Y265601D01*
X343851Y264949D01*
X344649Y264489D01*
X345539Y264250D01*
X346461D01*
X347351Y264489D01*
X348149Y264949D01*
X348801Y265601D01*
X349261Y266399D01*
X349500Y267289D01*
Y268211D01*
X349261Y269101D01*
X348801Y269899D01*
X348149Y270551D01*
X347351Y271011D01*
X346461Y271250D01*
X345539D01*
X345504Y271240D01*
X341794Y274950D01*
Y277103D01*
X342256Y277294D01*
X342351Y277199D01*
X343149Y276739D01*
X344039Y276500D01*
X344961D01*
X345851Y276739D01*
X346649Y277199D01*
X347301Y277851D01*
X347762Y278649D01*
X348000Y279539D01*
Y280461D01*
X347762Y281351D01*
X347301Y282149D01*
X346794Y282656D01*
Y319344D01*
X347301Y319851D01*
X347762Y320649D01*
X348000Y321539D01*
Y322461D01*
X347762Y323351D01*
X347301Y324149D01*
X346794Y324656D01*
Y327908D01*
X354585Y335699D01*
X354819Y335602D01*
X355053Y335459D01*
X355317Y334474D01*
X355837Y333573D01*
X356573Y332837D01*
X357474Y332317D01*
X358480Y332047D01*
X359520D01*
X360526Y332317D01*
X361427Y332837D01*
X362163Y333573D01*
X362683Y334474D01*
X362953Y335480D01*
Y336520D01*
X362683Y337526D01*
X362163Y338427D01*
X361427Y339163D01*
X360526Y339683D01*
X359541Y339947D01*
X359398Y340181D01*
X359301Y340415D01*
X365850Y346963D01*
X396830D01*
X397344Y346449D01*
X398142Y345988D01*
X399032Y345750D01*
X399954D01*
X400844Y345988D01*
X401642Y346449D01*
X402293Y347101D01*
X402754Y347899D01*
X402993Y348789D01*
Y349711D01*
X402754Y350601D01*
X402293Y351399D01*
X401642Y352051D01*
X400844Y352512D01*
X399954Y352750D01*
X399032D01*
X398142Y352512D01*
X397344Y352051D01*
X396844Y351551D01*
X364899D01*
X364022Y351377D01*
X363277Y350880D01*
X342878Y330480D01*
X342380Y329736D01*
X342294Y329301D01*
X341794Y329350D01*
Y340587D01*
X341619Y341465D01*
X341122Y342210D01*
X312507Y370825D01*
X311763Y371322D01*
X310885Y371497D01*
X299248D01*
X292000Y378744D01*
Y379461D01*
X291761Y380351D01*
X291301Y381149D01*
X290649Y381801D01*
X289851Y382261D01*
X288961Y382500D01*
D02*
G37*
G36*
X426495Y353256D02*
X425505D01*
X424550Y353000D01*
X423694Y352505D01*
X422995Y351806D01*
X422500Y350950D01*
X422244Y349994D01*
Y349006D01*
X422500Y348050D01*
X422995Y347194D01*
X423694Y346495D01*
X424550Y346000D01*
X425505Y345744D01*
X426495D01*
X427450Y346000D01*
X428306Y346495D01*
X429005Y347194D01*
X429500Y348050D01*
X429756Y349006D01*
Y349994D01*
X429500Y350950D01*
X429005Y351806D01*
X428306Y352505D01*
X427450Y353000D01*
X426495Y353256D01*
D02*
G37*
G36*
X518995Y373256D02*
X518006D01*
X517050Y373000D01*
X516194Y372505D01*
X515494Y371806D01*
X515000Y370950D01*
X514744Y369994D01*
Y369005D01*
X515000Y368050D01*
X515494Y367194D01*
X516194Y366494D01*
X517050Y366000D01*
X518006Y365744D01*
X518995D01*
X519950Y366000D01*
X520806Y366494D01*
X521505Y367194D01*
X521513Y367206D01*
X541412D01*
X559671Y348947D01*
X559539Y348456D01*
Y347544D01*
X559775Y346664D01*
X560231Y345875D01*
X560875Y345231D01*
X561664Y344775D01*
X562544Y344539D01*
X563456D01*
X564336Y344775D01*
X565125Y345231D01*
X565769Y345875D01*
X566225Y346664D01*
X566461Y347544D01*
Y348456D01*
X566225Y349336D01*
X565769Y350125D01*
X565125Y350769D01*
X564336Y351225D01*
X563716Y351391D01*
X543984Y371122D01*
X543240Y371620D01*
X542362Y371794D01*
X521513D01*
X521505Y371806D01*
X520806Y372505D01*
X519950Y373000D01*
X518995Y373256D01*
D02*
G37*
G36*
X332953Y339953D02*
X325047D01*
Y332047D01*
X332953D01*
Y339953D01*
D02*
G37*
G36*
X307520Y337953D02*
X306480D01*
X305474Y337683D01*
X304573Y337163D01*
X303837Y336427D01*
X303317Y335526D01*
X303047Y334520D01*
Y333480D01*
X303317Y332474D01*
X303837Y331573D01*
X304573Y330837D01*
X305474Y330317D01*
X306480Y330047D01*
X307520D01*
X308526Y330317D01*
X309427Y330837D01*
X310163Y331573D01*
X310683Y332474D01*
X310953Y333480D01*
Y334520D01*
X310683Y335526D01*
X310163Y336427D01*
X309427Y337163D01*
X308526Y337683D01*
X307520Y337953D01*
D02*
G37*
G36*
X297520D02*
X296480D01*
X295474Y337683D01*
X294573Y337163D01*
X293837Y336427D01*
X293317Y335526D01*
X293047Y334520D01*
Y333480D01*
X293317Y332474D01*
X293837Y331573D01*
X294573Y330837D01*
X295474Y330317D01*
X296480Y330047D01*
X297520D01*
X298526Y330317D01*
X299427Y330837D01*
X300163Y331573D01*
X300683Y332474D01*
X300953Y333480D01*
Y334520D01*
X300683Y335526D01*
X300163Y336427D01*
X299427Y337163D01*
X298526Y337683D01*
X297520Y337953D01*
D02*
G37*
G36*
X287520D02*
X286480D01*
X285474Y337683D01*
X284573Y337163D01*
X283837Y336427D01*
X283317Y335526D01*
X283047Y334520D01*
Y333480D01*
X283317Y332474D01*
X283837Y331573D01*
X284573Y330837D01*
X285474Y330317D01*
X286480Y330047D01*
X287520D01*
X288526Y330317D01*
X289427Y330837D01*
X290163Y331573D01*
X290683Y332474D01*
X290953Y333480D01*
Y334520D01*
X290683Y335526D01*
X290163Y336427D01*
X289427Y337163D01*
X288526Y337683D01*
X287520Y337953D01*
D02*
G37*
G36*
X277520D02*
X276480D01*
X275474Y337683D01*
X274573Y337163D01*
X273837Y336427D01*
X273317Y335526D01*
X273047Y334520D01*
Y333480D01*
X273317Y332474D01*
X273837Y331573D01*
X274573Y330837D01*
X275474Y330317D01*
X276480Y330047D01*
X277520D01*
X278526Y330317D01*
X279427Y330837D01*
X280163Y331573D01*
X280683Y332474D01*
X280953Y333480D01*
Y334520D01*
X280683Y335526D01*
X280163Y336427D01*
X279427Y337163D01*
X278526Y337683D01*
X277520Y337953D01*
D02*
G37*
G36*
X267520D02*
X266480D01*
X265474Y337683D01*
X264573Y337163D01*
X263837Y336427D01*
X263317Y335526D01*
X263047Y334520D01*
Y333480D01*
X263317Y332474D01*
X263837Y331573D01*
X264573Y330837D01*
X265474Y330317D01*
X266480Y330047D01*
X267520D01*
X268526Y330317D01*
X269427Y330837D01*
X270163Y331573D01*
X270683Y332474D01*
X270953Y333480D01*
Y334520D01*
X270683Y335526D01*
X270163Y336427D01*
X269427Y337163D01*
X268526Y337683D01*
X267520Y337953D01*
D02*
G37*
G36*
X257520D02*
X256480D01*
X255474Y337683D01*
X254573Y337163D01*
X253837Y336427D01*
X253317Y335526D01*
X253047Y334520D01*
Y333480D01*
X253317Y332474D01*
X253837Y331573D01*
X254573Y330837D01*
X255474Y330317D01*
X256480Y330047D01*
X257520D01*
X258526Y330317D01*
X259427Y330837D01*
X260163Y331573D01*
X260683Y332474D01*
X260953Y333480D01*
Y334520D01*
X260683Y335526D01*
X260163Y336427D01*
X259427Y337163D01*
X258526Y337683D01*
X257520Y337953D01*
D02*
G37*
G36*
X247520D02*
X246480D01*
X245474Y337683D01*
X244573Y337163D01*
X243837Y336427D01*
X243317Y335526D01*
X243047Y334520D01*
Y333480D01*
X243317Y332474D01*
X243837Y331573D01*
X244573Y330837D01*
X245474Y330317D01*
X246480Y330047D01*
X247520D01*
X248526Y330317D01*
X249427Y330837D01*
X250163Y331573D01*
X250683Y332474D01*
X250953Y333480D01*
Y334520D01*
X250683Y335526D01*
X250163Y336427D01*
X249427Y337163D01*
X248526Y337683D01*
X247520Y337953D01*
D02*
G37*
G36*
X486020Y335953D02*
X484980D01*
X483974Y335683D01*
X483073Y335163D01*
X482337Y334427D01*
X481817Y333526D01*
X481547Y332520D01*
Y331480D01*
X481817Y330474D01*
X482337Y329573D01*
X483073Y328837D01*
X483974Y328317D01*
X484980Y328047D01*
X486020D01*
X487026Y328317D01*
X487927Y328837D01*
X488663Y329573D01*
X489183Y330474D01*
X489453Y331480D01*
Y332520D01*
X489183Y333526D01*
X488663Y334427D01*
X487927Y335163D01*
X487026Y335683D01*
X486020Y335953D01*
D02*
G37*
G36*
X456020D02*
X454980D01*
X453974Y335683D01*
X453073Y335163D01*
X452337Y334427D01*
X451817Y333526D01*
X451547Y332520D01*
Y331480D01*
X451817Y330474D01*
X452337Y329573D01*
X453073Y328837D01*
X453974Y328317D01*
X454980Y328047D01*
X456020D01*
X457026Y328317D01*
X457927Y328837D01*
X458663Y329573D01*
X459183Y330474D01*
X459453Y331480D01*
Y332520D01*
X459183Y333526D01*
X458663Y334427D01*
X457927Y335163D01*
X457026Y335683D01*
X456020Y335953D01*
D02*
G37*
G36*
X228903Y333862D02*
X228018D01*
X227163Y333633D01*
X226396Y333190D01*
X225770Y332564D01*
X225327Y331798D01*
X225098Y330943D01*
Y330057D01*
X225327Y329202D01*
X225770Y328436D01*
X226396Y327810D01*
X227163Y327367D01*
X228018Y327138D01*
X228903D01*
X229758Y327367D01*
X230525Y327810D01*
X231151Y328436D01*
X231594Y329202D01*
X231823Y330057D01*
Y330943D01*
X231594Y331798D01*
X231151Y332564D01*
X230525Y333190D01*
X229758Y333633D01*
X228903Y333862D01*
D02*
G37*
G36*
X163943D02*
X163057D01*
X162202Y333633D01*
X161436Y333190D01*
X160810Y332564D01*
X160367Y331798D01*
X160138Y330943D01*
Y330057D01*
X160367Y329202D01*
X160810Y328436D01*
X161436Y327810D01*
X162202Y327367D01*
X163057Y327138D01*
X163943D01*
X164798Y327367D01*
X165564Y327810D01*
X166190Y328436D01*
X166633Y329202D01*
X166862Y330057D01*
Y330943D01*
X166633Y331798D01*
X166190Y332564D01*
X165564Y333190D01*
X164798Y333633D01*
X163943Y333862D01*
D02*
G37*
G36*
X359520Y329953D02*
X358480D01*
X357474Y329683D01*
X356573Y329163D01*
X355837Y328427D01*
X355317Y327526D01*
X355047Y326520D01*
Y325480D01*
X355317Y324474D01*
X355837Y323573D01*
X356573Y322837D01*
X357474Y322317D01*
X358480Y322047D01*
X359520D01*
X360526Y322317D01*
X361427Y322837D01*
X362163Y323573D01*
X362683Y324474D01*
X362953Y325480D01*
Y326520D01*
X362683Y327526D01*
X362163Y328427D01*
X361427Y329163D01*
X360526Y329683D01*
X359520Y329953D01*
D02*
G37*
G36*
X329520D02*
X328480D01*
X327474Y329683D01*
X326573Y329163D01*
X325837Y328427D01*
X325317Y327526D01*
X325047Y326520D01*
Y325480D01*
X325317Y324474D01*
X325837Y323573D01*
X326573Y322837D01*
X327474Y322317D01*
X328480Y322047D01*
X329520D01*
X330526Y322317D01*
X331427Y322837D01*
X332163Y323573D01*
X332683Y324474D01*
X332953Y325480D01*
Y326520D01*
X332683Y327526D01*
X332163Y328427D01*
X331427Y329163D01*
X330526Y329683D01*
X329520Y329953D01*
D02*
G37*
G36*
X486020Y325953D02*
X484980D01*
X483974Y325683D01*
X483073Y325163D01*
X482337Y324427D01*
X481817Y323526D01*
X481547Y322520D01*
Y321480D01*
X481817Y320474D01*
X482337Y319573D01*
X483073Y318837D01*
X483974Y318317D01*
X484980Y318047D01*
X486020D01*
X487026Y318317D01*
X487927Y318837D01*
X488663Y319573D01*
X489183Y320474D01*
X489453Y321480D01*
Y322520D01*
X489183Y323526D01*
X488663Y324427D01*
X487927Y325163D01*
X487026Y325683D01*
X486020Y325953D01*
D02*
G37*
G36*
X456020D02*
X454980D01*
X453974Y325683D01*
X453073Y325163D01*
X452337Y324427D01*
X451817Y323526D01*
X451547Y322520D01*
Y321480D01*
X451817Y320474D01*
X452337Y319573D01*
X453073Y318837D01*
X453974Y318317D01*
X454980Y318047D01*
X456020D01*
X457026Y318317D01*
X457927Y318837D01*
X458663Y319573D01*
X459183Y320474D01*
X459453Y321480D01*
Y322520D01*
X459183Y323526D01*
X458663Y324427D01*
X457927Y325163D01*
X457026Y325683D01*
X456020Y325953D01*
D02*
G37*
G36*
X442650Y326847D02*
X441350D01*
X440094Y326510D01*
X438969Y325860D01*
X438049Y324941D01*
X437399Y323815D01*
X437063Y322559D01*
Y321259D01*
X437399Y320004D01*
X438049Y318878D01*
X438969Y317959D01*
X440094Y317309D01*
X441350Y316972D01*
X442650D01*
X443906Y317309D01*
X445031Y317959D01*
X445951Y318878D01*
X446601Y320004D01*
X446937Y321259D01*
Y322559D01*
X446601Y323815D01*
X445951Y324941D01*
X445031Y325860D01*
X443906Y326510D01*
X442650Y326847D01*
D02*
G37*
G36*
X426495Y323256D02*
X425505D01*
X424550Y323000D01*
X423694Y322505D01*
X422995Y321806D01*
X422500Y320950D01*
X422244Y319994D01*
Y319005D01*
X422500Y318050D01*
X422995Y317194D01*
X423694Y316494D01*
X424550Y316000D01*
X425505Y315744D01*
X426495D01*
X427450Y316000D01*
X428306Y316494D01*
X429005Y317194D01*
X429500Y318050D01*
X429756Y319005D01*
Y319994D01*
X429500Y320950D01*
X429005Y321806D01*
X428306Y322505D01*
X427450Y323000D01*
X426495Y323256D01*
D02*
G37*
G36*
X520495Y342256D02*
X519506D01*
X518550Y342000D01*
X517694Y341506D01*
X516994Y340806D01*
X516500Y339950D01*
X516244Y338995D01*
Y338005D01*
X516500Y337050D01*
X516994Y336194D01*
X517694Y335494D01*
X518550Y335000D01*
X519506Y334744D01*
X520495D01*
X521450Y335000D01*
X522306Y335494D01*
X523005Y336194D01*
X523012Y336206D01*
X570040D01*
X570231Y335875D01*
X570706Y335400D01*
Y321738D01*
X570400Y321432D01*
X566338D01*
X565460Y321257D01*
X564716Y320760D01*
X542878Y298922D01*
X542381Y298178D01*
X542206Y297300D01*
Y242013D01*
X542194Y242005D01*
X541495Y241306D01*
X541000Y240450D01*
X540744Y239494D01*
Y238506D01*
X541000Y237550D01*
X541495Y236694D01*
X542194Y235995D01*
X543050Y235500D01*
X544005Y235244D01*
X544994D01*
X545950Y235500D01*
X546806Y235995D01*
X547506Y236694D01*
X548000Y237550D01*
X548256Y238506D01*
Y239494D01*
X548000Y240450D01*
X547506Y241306D01*
X546806Y242005D01*
X546794Y242013D01*
Y296349D01*
X559065Y308621D01*
X559602Y308450D01*
X559775Y307802D01*
X560231Y307013D01*
X560875Y306369D01*
X561664Y305913D01*
X562544Y305677D01*
X563456D01*
X564336Y305913D01*
X565125Y306369D01*
X565769Y307013D01*
X566225Y307802D01*
X566461Y308682D01*
Y309593D01*
X566225Y310473D01*
X565769Y311263D01*
X565125Y311907D01*
X564336Y312363D01*
X563688Y312536D01*
X563517Y313072D01*
X567288Y316844D01*
X570400D01*
X570875Y316369D01*
X571664Y315913D01*
X572544Y315677D01*
X573456D01*
X574336Y315913D01*
X575125Y316369D01*
X575769Y317013D01*
X576225Y317802D01*
X576461Y318682D01*
Y319593D01*
X576225Y320474D01*
X575769Y321263D01*
X575294Y321738D01*
Y335400D01*
X575769Y335875D01*
X576225Y336664D01*
X576461Y337544D01*
Y338456D01*
X576225Y339336D01*
X575769Y340125D01*
X575125Y340769D01*
X574336Y341225D01*
X573456Y341461D01*
X572544D01*
X571664Y341225D01*
X570885Y340775D01*
X570788Y340794D01*
X523012D01*
X523005Y340806D01*
X522306Y341506D01*
X521450Y342000D01*
X520495Y342256D01*
D02*
G37*
G36*
X359520Y319953D02*
X358480D01*
X357474Y319683D01*
X356573Y319163D01*
X355837Y318427D01*
X355317Y317526D01*
X355047Y316520D01*
Y315480D01*
X355317Y314474D01*
X355837Y313573D01*
X356573Y312837D01*
X357474Y312317D01*
X358480Y312047D01*
X359520D01*
X360526Y312317D01*
X361427Y312837D01*
X362163Y313573D01*
X362683Y314474D01*
X362953Y315480D01*
Y316520D01*
X362683Y317526D01*
X362163Y318427D01*
X361427Y319163D01*
X360526Y319683D01*
X359520Y319953D01*
D02*
G37*
G36*
X329520D02*
X328480D01*
X327474Y319683D01*
X326573Y319163D01*
X325837Y318427D01*
X325317Y317526D01*
X325047Y316520D01*
Y315480D01*
X325317Y314474D01*
X325837Y313573D01*
X326573Y312837D01*
X327474Y312317D01*
X328480Y312047D01*
X329520D01*
X330526Y312317D01*
X331427Y312837D01*
X332163Y313573D01*
X332683Y314474D01*
X332953Y315480D01*
Y316520D01*
X332683Y317526D01*
X332163Y318427D01*
X331427Y319163D01*
X330526Y319683D01*
X329520Y319953D01*
D02*
G37*
G36*
X413650Y321346D02*
X412350D01*
X411094Y321010D01*
X409969Y320360D01*
X409049Y319441D01*
X408399Y318315D01*
X408063Y317059D01*
Y315759D01*
X408399Y314504D01*
X409049Y313378D01*
X409969Y312459D01*
X411094Y311809D01*
X412350Y311472D01*
X413650D01*
X414906Y311809D01*
X416031Y312459D01*
X416951Y313378D01*
X417601Y314504D01*
X417937Y315759D01*
Y317059D01*
X417601Y318315D01*
X416951Y319441D01*
X416031Y320360D01*
X414906Y321010D01*
X413650Y321346D01*
D02*
G37*
G36*
X486020Y315953D02*
X484980D01*
X483974Y315683D01*
X483073Y315163D01*
X482337Y314427D01*
X481817Y313526D01*
X481547Y312520D01*
Y311480D01*
X481817Y310474D01*
X482337Y309573D01*
X483073Y308837D01*
X483974Y308317D01*
X484980Y308047D01*
X486020D01*
X487026Y308317D01*
X487927Y308837D01*
X488663Y309573D01*
X489183Y310474D01*
X489453Y311480D01*
Y312520D01*
X489183Y313526D01*
X488663Y314427D01*
X487927Y315163D01*
X487026Y315683D01*
X486020Y315953D01*
D02*
G37*
G36*
X456020D02*
X454980D01*
X453974Y315683D01*
X453073Y315163D01*
X452337Y314427D01*
X451817Y313526D01*
X451547Y312520D01*
Y311480D01*
X451817Y310474D01*
X452337Y309573D01*
X453073Y308837D01*
X453974Y308317D01*
X454980Y308047D01*
X456020D01*
X457026Y308317D01*
X457927Y308837D01*
X458663Y309573D01*
X459183Y310474D01*
X459453Y311480D01*
Y312520D01*
X459183Y313526D01*
X458663Y314427D01*
X457927Y315163D01*
X457026Y315683D01*
X456020Y315953D01*
D02*
G37*
G36*
X520495Y312256D02*
X519506D01*
X518550Y312000D01*
X517694Y311506D01*
X516994Y310806D01*
X516500Y309950D01*
X516244Y308995D01*
Y308005D01*
X516500Y307050D01*
X516994Y306194D01*
X517694Y305494D01*
X518550Y305000D01*
X519506Y304744D01*
X520495D01*
X521450Y305000D01*
X522306Y305494D01*
X523005Y306194D01*
X523500Y307050D01*
X523756Y308005D01*
Y308995D01*
X523500Y309950D01*
X523005Y310806D01*
X522306Y311506D01*
X521450Y312000D01*
X520495Y312256D01*
D02*
G37*
G36*
X359520Y309953D02*
X358480D01*
X357474Y309683D01*
X356573Y309163D01*
X355837Y308427D01*
X355317Y307526D01*
X355047Y306520D01*
Y305480D01*
X355317Y304474D01*
X355837Y303573D01*
X356573Y302837D01*
X357474Y302317D01*
X358480Y302047D01*
X359520D01*
X360526Y302317D01*
X361427Y302837D01*
X362163Y303573D01*
X362683Y304474D01*
X362953Y305480D01*
Y306520D01*
X362683Y307526D01*
X362163Y308427D01*
X361427Y309163D01*
X360526Y309683D01*
X359520Y309953D01*
D02*
G37*
G36*
X329520D02*
X328480D01*
X327474Y309683D01*
X326573Y309163D01*
X325837Y308427D01*
X325317Y307526D01*
X325047Y306520D01*
Y305480D01*
X325317Y304474D01*
X325837Y303573D01*
X326573Y302837D01*
X327474Y302317D01*
X328480Y302047D01*
X329520D01*
X330526Y302317D01*
X331427Y302837D01*
X332163Y303573D01*
X332683Y304474D01*
X332953Y305480D01*
Y306520D01*
X332683Y307526D01*
X332163Y308427D01*
X331427Y309163D01*
X330526Y309683D01*
X329520Y309953D01*
D02*
G37*
G36*
X489453Y305953D02*
X481547D01*
Y298047D01*
X489453D01*
Y305953D01*
D02*
G37*
G36*
X456020D02*
X454980D01*
X453974Y305683D01*
X453073Y305163D01*
X452337Y304427D01*
X451817Y303526D01*
X451547Y302520D01*
Y301480D01*
X451817Y300474D01*
X452337Y299573D01*
X453073Y298837D01*
X453974Y298317D01*
X454980Y298047D01*
X456020D01*
X457026Y298317D01*
X457927Y298837D01*
X458663Y299573D01*
X459183Y300474D01*
X459453Y301480D01*
Y302520D01*
X459183Y303526D01*
X458663Y304427D01*
X457927Y305163D01*
X457026Y305683D01*
X456020Y305953D01*
D02*
G37*
G36*
X311520D02*
X310480D01*
X309474Y305683D01*
X308573Y305163D01*
X307837Y304427D01*
X307317Y303526D01*
X307047Y302520D01*
Y301480D01*
X307317Y300474D01*
X307837Y299573D01*
X308573Y298837D01*
X309474Y298317D01*
X310480Y298047D01*
X311520D01*
X312526Y298317D01*
X313427Y298837D01*
X314163Y299573D01*
X314683Y300474D01*
X314953Y301480D01*
Y302520D01*
X314683Y303526D01*
X314163Y304427D01*
X313427Y305163D01*
X312526Y305683D01*
X311520Y305953D01*
D02*
G37*
G36*
X284953D02*
X277047D01*
Y298047D01*
X284953D01*
Y305953D01*
D02*
G37*
G36*
X503943Y303862D02*
X503057D01*
X502202Y303633D01*
X501436Y303190D01*
X500810Y302564D01*
X500367Y301798D01*
X500138Y300943D01*
Y300057D01*
X500367Y299202D01*
X500810Y298436D01*
X501436Y297810D01*
X502202Y297367D01*
X503057Y297138D01*
X503943D01*
X504798Y297367D01*
X505564Y297810D01*
X506190Y298436D01*
X506633Y299202D01*
X506862Y300057D01*
Y300943D01*
X506633Y301798D01*
X506190Y302564D01*
X505564Y303190D01*
X504798Y303633D01*
X503943Y303862D01*
D02*
G37*
G36*
X243903Y301862D02*
X243018D01*
X242163Y301633D01*
X241396Y301190D01*
X240770Y300564D01*
X240328Y299798D01*
X240098Y298943D01*
Y298057D01*
X240328Y297202D01*
X240770Y296436D01*
X241396Y295810D01*
X242163Y295367D01*
X243018Y295138D01*
X243903D01*
X244758Y295367D01*
X245525Y295810D01*
X246151Y296436D01*
X246594Y297202D01*
X246823Y298057D01*
Y298943D01*
X246594Y299798D01*
X246151Y300564D01*
X245525Y301190D01*
X244758Y301633D01*
X243903Y301862D01*
D02*
G37*
G36*
X152969Y355059D02*
X152031D01*
X151126Y354817D01*
X150315Y354348D01*
X149652Y353685D01*
X149183Y352874D01*
X148941Y351969D01*
Y351031D01*
X149183Y350126D01*
X149652Y349315D01*
X150206Y348761D01*
Y324500D01*
X150381Y323622D01*
X150878Y322878D01*
X175138Y298618D01*
Y298057D01*
X175367Y297202D01*
X175810Y296436D01*
X176436Y295810D01*
X177202Y295367D01*
X178057Y295138D01*
X178943D01*
X179798Y295367D01*
X180564Y295810D01*
X181190Y296436D01*
X181633Y297202D01*
X181862Y298057D01*
Y298943D01*
X181633Y299798D01*
X181190Y300564D01*
X180564Y301190D01*
X179798Y301633D01*
X178943Y301862D01*
X178382D01*
X154794Y325450D01*
Y348761D01*
X155348Y349315D01*
X155816Y350126D01*
X156059Y351031D01*
Y351969D01*
X155816Y352874D01*
X155348Y353685D01*
X154685Y354348D01*
X153874Y354817D01*
X152969Y355059D01*
D02*
G37*
G36*
X526443Y300205D02*
X525557D01*
X524702Y299976D01*
X523936Y299533D01*
X523310Y298907D01*
X522867Y298140D01*
X522638Y297285D01*
Y296400D01*
X522867Y295545D01*
X523310Y294778D01*
X523936Y294152D01*
X524702Y293709D01*
X525557Y293480D01*
X526443D01*
X527298Y293709D01*
X528064Y294152D01*
X528690Y294778D01*
X529133Y295545D01*
X529362Y296400D01*
Y297285D01*
X529133Y298140D01*
X528690Y298907D01*
X528064Y299533D01*
X527298Y299976D01*
X526443Y300205D01*
D02*
G37*
G36*
X235461Y320000D02*
X234539D01*
X233649Y319761D01*
X232851Y319301D01*
X232199Y318649D01*
X231738Y317851D01*
X231500Y316961D01*
Y316039D01*
X231738Y315149D01*
X232199Y314351D01*
X232851Y313699D01*
X233649Y313239D01*
X234539Y313000D01*
X235461D01*
X236351Y313239D01*
X237149Y313699D01*
X237656Y314206D01*
X257050D01*
X265206Y306050D01*
Y297656D01*
X264699Y297149D01*
X264239Y296351D01*
X264000Y295461D01*
Y294539D01*
X264239Y293649D01*
X264699Y292851D01*
X265351Y292199D01*
X266149Y291739D01*
X267039Y291500D01*
X267961D01*
X268851Y291739D01*
X269649Y292199D01*
X270301Y292851D01*
X270761Y293649D01*
X271000Y294539D01*
Y295461D01*
X270761Y296351D01*
X270301Y297149D01*
X269794Y297656D01*
Y307000D01*
X269619Y307878D01*
X269122Y308622D01*
X259622Y318122D01*
X258878Y318619D01*
X258000Y318794D01*
X237656D01*
X237149Y319301D01*
X236351Y319761D01*
X235461Y320000D01*
D02*
G37*
G36*
X311520Y295953D02*
X310480D01*
X309474Y295683D01*
X308573Y295163D01*
X307837Y294427D01*
X307317Y293526D01*
X307047Y292520D01*
Y291480D01*
X307317Y290474D01*
X307837Y289573D01*
X308573Y288837D01*
X309474Y288317D01*
X310480Y288047D01*
X311520D01*
X312526Y288317D01*
X313427Y288837D01*
X314163Y289573D01*
X314683Y290474D01*
X314953Y291480D01*
Y292520D01*
X314683Y293526D01*
X314163Y294427D01*
X313427Y295163D01*
X312526Y295683D01*
X311520Y295953D01*
D02*
G37*
G36*
X159118Y396118D02*
X145881D01*
Y382881D01*
X150206D01*
Y362450D01*
X142815Y355059D01*
X142031D01*
X141126Y354817D01*
X140315Y354348D01*
X139652Y353685D01*
X139183Y352874D01*
X138941Y351969D01*
Y351031D01*
X139183Y350126D01*
X139652Y349315D01*
X140206Y348761D01*
Y321500D01*
X140381Y320622D01*
X140878Y319878D01*
X162706Y298050D01*
Y292450D01*
X149008Y278752D01*
X148995Y278756D01*
X148005D01*
X147050Y278500D01*
X146194Y278006D01*
X145494Y277306D01*
X145000Y276450D01*
X144744Y275495D01*
Y274505D01*
X145000Y273550D01*
X145494Y272694D01*
X146194Y271994D01*
X147050Y271500D01*
X148005Y271244D01*
X148995D01*
X149950Y271500D01*
X150806Y271994D01*
X151505Y272694D01*
X152000Y273550D01*
X152256Y274505D01*
Y275495D01*
X152252Y275508D01*
X166622Y289878D01*
X167120Y290622D01*
X167294Y291500D01*
Y299000D01*
X167120Y299878D01*
X166622Y300622D01*
X144794Y322450D01*
Y348761D01*
X145348Y349315D01*
X145817Y350126D01*
X146059Y351031D01*
Y351815D01*
X154122Y359878D01*
X154620Y360622D01*
X154794Y361500D01*
Y382881D01*
X159118D01*
Y396118D01*
D02*
G37*
G36*
X458020Y286453D02*
X456980D01*
X455974Y286183D01*
X455073Y285663D01*
X454337Y284927D01*
X453817Y284026D01*
X453547Y283020D01*
Y281980D01*
X453817Y280974D01*
X454337Y280073D01*
X455073Y279337D01*
X455974Y278817D01*
X456980Y278547D01*
X458020D01*
X459026Y278817D01*
X459927Y279337D01*
X460663Y280073D01*
X461183Y280974D01*
X461453Y281980D01*
Y283020D01*
X461183Y284026D01*
X460663Y284927D01*
X459927Y285663D01*
X459026Y286183D01*
X458020Y286453D01*
D02*
G37*
G36*
X431453D02*
X423547D01*
Y278547D01*
X431453D01*
Y286453D01*
D02*
G37*
G36*
X300320Y328859D02*
X299398D01*
X298508Y328620D01*
X297710Y328159D01*
X297058Y327508D01*
X296597Y326710D01*
X296359Y325819D01*
Y324898D01*
X296597Y324008D01*
X297058Y323210D01*
X297710Y322558D01*
X298508Y322097D01*
X299398Y321859D01*
X300114D01*
X319706Y302267D01*
Y284656D01*
X319199Y284149D01*
X318739Y283351D01*
X318500Y282461D01*
Y281539D01*
X318739Y280649D01*
X319199Y279851D01*
X319851Y279199D01*
X320649Y278738D01*
X321539Y278500D01*
X322461D01*
X323351Y278738D01*
X324149Y279199D01*
X324801Y279851D01*
X325261Y280649D01*
X325500Y281539D01*
Y282461D01*
X325261Y283351D01*
X324801Y284149D01*
X324294Y284656D01*
Y303218D01*
X324119Y304095D01*
X323622Y304840D01*
X303359Y325103D01*
Y325819D01*
X303120Y326710D01*
X302660Y327508D01*
X302008Y328159D01*
X301210Y328620D01*
X300320Y328859D01*
D02*
G37*
G36*
X311520Y285953D02*
X310480D01*
X309474Y285683D01*
X308573Y285163D01*
X307837Y284427D01*
X307317Y283526D01*
X307047Y282520D01*
Y281480D01*
X307317Y280474D01*
X307837Y279573D01*
X308573Y278837D01*
X309474Y278317D01*
X310480Y278047D01*
X311520D01*
X312526Y278317D01*
X313427Y278837D01*
X314163Y279573D01*
X314683Y280474D01*
X314953Y281480D01*
Y282520D01*
X314683Y283526D01*
X314163Y284427D01*
X313427Y285163D01*
X312526Y285683D01*
X311520Y285953D01*
D02*
G37*
G36*
X281520D02*
X280480D01*
X279474Y285683D01*
X278573Y285163D01*
X277837Y284427D01*
X277317Y283526D01*
X277047Y282520D01*
Y281480D01*
X277317Y280474D01*
X277837Y279573D01*
X278573Y278837D01*
X279474Y278317D01*
X280480Y278047D01*
X281520D01*
X282526Y278317D01*
X283427Y278837D01*
X284163Y279573D01*
X284683Y280474D01*
X284953Y281480D01*
Y282520D01*
X284683Y283526D01*
X284163Y284427D01*
X283427Y285163D01*
X282526Y285683D01*
X281520Y285953D01*
D02*
G37*
G36*
X332494Y283756D02*
X331505D01*
X330550Y283500D01*
X329694Y283005D01*
X328994Y282306D01*
X328500Y281450D01*
X328244Y280494D01*
Y279505D01*
X328500Y278550D01*
X328994Y277694D01*
X329694Y276994D01*
X330550Y276500D01*
X331505Y276244D01*
X332494D01*
X333450Y276500D01*
X334306Y276994D01*
X335005Y277694D01*
X335500Y278550D01*
X335756Y279505D01*
Y280494D01*
X335500Y281450D01*
X335005Y282306D01*
X334306Y283005D01*
X333450Y283500D01*
X332494Y283756D01*
D02*
G37*
G36*
X529362Y280520D02*
X522638D01*
Y273795D01*
X529362D01*
Y280520D01*
D02*
G37*
G36*
X254495Y278756D02*
X253505D01*
X252550Y278500D01*
X251694Y278006D01*
X250994Y277306D01*
X250500Y276450D01*
X250244Y275495D01*
Y274505D01*
X250500Y273550D01*
X250994Y272694D01*
X251694Y271994D01*
X252550Y271500D01*
X253505Y271244D01*
X254495D01*
X255450Y271500D01*
X256306Y271994D01*
X257006Y272694D01*
X257500Y273550D01*
X257756Y274505D01*
Y275495D01*
X257500Y276450D01*
X257006Y277306D01*
X256306Y278006D01*
X255450Y278500D01*
X254495Y278756D01*
D02*
G37*
G36*
X224495D02*
X223505D01*
X222550Y278500D01*
X221694Y278006D01*
X220994Y277306D01*
X220500Y276450D01*
X220244Y275495D01*
Y274505D01*
X220500Y273550D01*
X220994Y272694D01*
X221694Y271994D01*
X222550Y271500D01*
X223505Y271244D01*
X224495D01*
X225450Y271500D01*
X226306Y271994D01*
X227006Y272694D01*
X227500Y273550D01*
X227756Y274505D01*
Y275495D01*
X227500Y276450D01*
X227006Y277306D01*
X226306Y278006D01*
X225450Y278500D01*
X224495Y278756D01*
D02*
G37*
G36*
X178995D02*
X178006D01*
X177050Y278500D01*
X176194Y278006D01*
X175495Y277306D01*
X175000Y276450D01*
X174744Y275495D01*
Y274505D01*
X175000Y273550D01*
X175495Y272694D01*
X176194Y271994D01*
X177050Y271500D01*
X178006Y271244D01*
X178995D01*
X179950Y271500D01*
X180806Y271994D01*
X181506Y272694D01*
X182000Y273550D01*
X182256Y274505D01*
Y275495D01*
X182000Y276450D01*
X181506Y277306D01*
X180806Y278006D01*
X179950Y278500D01*
X178995Y278756D01*
D02*
G37*
G36*
X371495Y277441D02*
X370505D01*
X369550Y277185D01*
X368694Y276691D01*
X367994Y275991D01*
X367500Y275135D01*
X367244Y274180D01*
Y273191D01*
X367500Y272235D01*
X367994Y271379D01*
X368694Y270680D01*
X369550Y270185D01*
X370505Y269929D01*
X371495D01*
X372450Y270185D01*
X373306Y270680D01*
X374006Y271379D01*
X374500Y272235D01*
X374756Y273191D01*
Y274180D01*
X374500Y275135D01*
X374006Y275991D01*
X373306Y276691D01*
X372450Y277185D01*
X371495Y277441D01*
D02*
G37*
G36*
X458020Y276453D02*
X456980D01*
X455974Y276183D01*
X455073Y275663D01*
X454337Y274927D01*
X453817Y274026D01*
X453547Y273020D01*
Y271980D01*
X453817Y270974D01*
X454337Y270073D01*
X455073Y269337D01*
X455974Y268817D01*
X456980Y268547D01*
X458020D01*
X459026Y268817D01*
X459927Y269337D01*
X460663Y270073D01*
X461183Y270974D01*
X461453Y271980D01*
Y273020D01*
X461183Y274026D01*
X460663Y274927D01*
X459927Y275663D01*
X459026Y276183D01*
X458020Y276453D01*
D02*
G37*
G36*
X428020D02*
X426980D01*
X425974Y276183D01*
X425073Y275663D01*
X424337Y274927D01*
X423817Y274026D01*
X423547Y273020D01*
Y271980D01*
X423817Y270974D01*
X424337Y270073D01*
X425073Y269337D01*
X425974Y268817D01*
X426980Y268547D01*
X428020D01*
X429026Y268817D01*
X429927Y269337D01*
X430663Y270073D01*
X431183Y270974D01*
X431453Y271980D01*
Y273020D01*
X431183Y274026D01*
X430663Y274927D01*
X429927Y275663D01*
X429026Y276183D01*
X428020Y276453D01*
D02*
G37*
G36*
X311520Y275953D02*
X310480D01*
X309474Y275683D01*
X308573Y275163D01*
X307837Y274427D01*
X307317Y273526D01*
X307047Y272520D01*
Y271480D01*
X307317Y270474D01*
X307837Y269573D01*
X308573Y268837D01*
X309474Y268317D01*
X310480Y268047D01*
X311520D01*
X312526Y268317D01*
X313427Y268837D01*
X314163Y269573D01*
X314683Y270474D01*
X314953Y271480D01*
Y272520D01*
X314683Y273526D01*
X314163Y274427D01*
X313427Y275163D01*
X312526Y275683D01*
X311520Y275953D01*
D02*
G37*
G36*
X281520D02*
X280480D01*
X279474Y275683D01*
X278573Y275163D01*
X277837Y274427D01*
X277317Y273526D01*
X277047Y272520D01*
Y271480D01*
X277317Y270474D01*
X277837Y269573D01*
X278573Y268837D01*
X279474Y268317D01*
X280480Y268047D01*
X281520D01*
X282526Y268317D01*
X283427Y268837D01*
X284163Y269573D01*
X284683Y270474D01*
X284953Y271480D01*
Y272520D01*
X284683Y273526D01*
X284163Y274427D01*
X283427Y275163D01*
X282526Y275683D01*
X281520Y275953D01*
D02*
G37*
G36*
X458020Y266453D02*
X456980D01*
X455974Y266183D01*
X455073Y265663D01*
X454337Y264927D01*
X453817Y264026D01*
X453547Y263020D01*
Y261980D01*
X453817Y260974D01*
X454337Y260073D01*
X455073Y259337D01*
X455974Y258817D01*
X456980Y258547D01*
X458020D01*
X459026Y258817D01*
X459927Y259337D01*
X460663Y260073D01*
X461183Y260974D01*
X461453Y261980D01*
Y263020D01*
X461183Y264026D01*
X460663Y264927D01*
X459927Y265663D01*
X459026Y266183D01*
X458020Y266453D01*
D02*
G37*
G36*
X428020D02*
X426980D01*
X425974Y266183D01*
X425073Y265663D01*
X424337Y264927D01*
X423817Y264026D01*
X423547Y263020D01*
Y261980D01*
X423817Y260974D01*
X424337Y260073D01*
X425073Y259337D01*
X425974Y258817D01*
X426980Y258547D01*
X428020D01*
X429026Y258817D01*
X429927Y259337D01*
X430663Y260073D01*
X431183Y260974D01*
X431453Y261980D01*
Y263020D01*
X431183Y264026D01*
X430663Y264927D01*
X429927Y265663D01*
X429026Y266183D01*
X428020Y266453D01*
D02*
G37*
G36*
X526443Y261362D02*
X525557D01*
X524702Y261133D01*
X523936Y260690D01*
X523310Y260064D01*
X522867Y259298D01*
X522638Y258443D01*
Y257557D01*
X522867Y256702D01*
X523310Y255936D01*
X523936Y255310D01*
X524702Y254867D01*
X525557Y254638D01*
X526443D01*
X527298Y254867D01*
X528064Y255310D01*
X528690Y255936D01*
X529133Y256702D01*
X529362Y257557D01*
Y258443D01*
X529133Y259298D01*
X528690Y260064D01*
X528064Y260690D01*
X527298Y261133D01*
X526443Y261362D01*
D02*
G37*
G36*
X563456Y261098D02*
X562544D01*
X561664Y260863D01*
X560875Y260407D01*
X560231Y259763D01*
X559775Y258974D01*
X559539Y258093D01*
Y257182D01*
X559775Y256302D01*
X560231Y255513D01*
X560875Y254869D01*
X561664Y254413D01*
X562544Y254177D01*
X563456D01*
X564336Y254413D01*
X565125Y254869D01*
X565769Y255513D01*
X566225Y256302D01*
X566461Y257182D01*
Y258093D01*
X566225Y258974D01*
X565769Y259763D01*
X565125Y260407D01*
X564336Y260863D01*
X563456Y261098D01*
D02*
G37*
G36*
X206256Y260646D02*
X198744D01*
Y253134D01*
X206256D01*
Y260646D01*
D02*
G37*
G36*
X314961Y395500D02*
X314039D01*
X313149Y395262D01*
X312351Y394801D01*
X311699Y394149D01*
X311239Y393351D01*
X311000Y392461D01*
Y391539D01*
X311239Y390649D01*
X311699Y389851D01*
X312351Y389199D01*
X313149Y388738D01*
X314039Y388500D01*
X314756D01*
X340878Y362378D01*
X341622Y361880D01*
X342500Y361706D01*
X403500D01*
X404378Y361880D01*
X405122Y362378D01*
X409950Y367206D01*
X418050D01*
X430706Y354550D01*
Y339450D01*
X420550Y329294D01*
X401500D01*
X400622Y329119D01*
X399878Y328622D01*
X385878Y314622D01*
X385381Y313878D01*
X385206Y313000D01*
Y274000D01*
X385381Y273122D01*
X385878Y272378D01*
X404000Y254256D01*
Y253539D01*
X404239Y252649D01*
X404699Y251851D01*
X405351Y251199D01*
X406149Y250739D01*
X407039Y250500D01*
X407961D01*
X408851Y250739D01*
X409649Y251199D01*
X410301Y251851D01*
X410761Y252649D01*
X411000Y253539D01*
Y254461D01*
X410761Y255351D01*
X410301Y256149D01*
X409649Y256801D01*
X408851Y257261D01*
X407961Y257500D01*
X407244D01*
X389794Y274950D01*
Y312050D01*
X402450Y324706D01*
X421500D01*
X422378Y324881D01*
X423122Y325378D01*
X434622Y336878D01*
X435119Y337622D01*
X435294Y338500D01*
Y355500D01*
X435119Y356378D01*
X434622Y357122D01*
X420622Y371122D01*
X419878Y371620D01*
X419000Y371794D01*
X409000D01*
X408122Y371620D01*
X407378Y371122D01*
X402550Y366294D01*
X343450D01*
X318000Y391744D01*
Y392461D01*
X317761Y393351D01*
X317301Y394149D01*
X316649Y394801D01*
X315851Y395262D01*
X314961Y395500D01*
D02*
G37*
G36*
X371495Y257756D02*
X370505D01*
X369550Y257500D01*
X368694Y257006D01*
X367994Y256306D01*
X367500Y255450D01*
X367244Y254495D01*
Y253505D01*
X367500Y252550D01*
X367994Y251694D01*
X368694Y250994D01*
X369550Y250500D01*
X370505Y250244D01*
X371495D01*
X372450Y250500D01*
X373306Y250994D01*
X374006Y251694D01*
X374500Y252550D01*
X374756Y253505D01*
Y254495D01*
X374500Y255450D01*
X374006Y256306D01*
X373306Y257006D01*
X372450Y257500D01*
X371495Y257756D01*
D02*
G37*
G36*
X458020Y256453D02*
X456980D01*
X455974Y256183D01*
X455073Y255663D01*
X454337Y254927D01*
X453817Y254026D01*
X453547Y253020D01*
Y251980D01*
X453817Y250974D01*
X454337Y250073D01*
X455073Y249337D01*
X455974Y248817D01*
X456980Y248547D01*
X458020D01*
X459026Y248817D01*
X459927Y249337D01*
X460663Y250073D01*
X461183Y250974D01*
X461453Y251980D01*
Y253020D01*
X461183Y254026D01*
X460663Y254927D01*
X459927Y255663D01*
X459026Y256183D01*
X458020Y256453D01*
D02*
G37*
G36*
X428020D02*
X426980D01*
X425974Y256183D01*
X425073Y255663D01*
X424337Y254927D01*
X423817Y254026D01*
X423547Y253020D01*
Y251980D01*
X423817Y250974D01*
X424337Y250073D01*
X425073Y249337D01*
X425974Y248817D01*
X426980Y248547D01*
X428020D01*
X429026Y248817D01*
X429927Y249337D01*
X430663Y250073D01*
X431183Y250974D01*
X431453Y251980D01*
Y253020D01*
X431183Y254026D01*
X430663Y254927D01*
X429927Y255663D01*
X429026Y256183D01*
X428020Y256453D01*
D02*
G37*
G36*
X168285Y253362D02*
X167400D01*
X166545Y253133D01*
X165778Y252690D01*
X165152Y252064D01*
X164709Y251298D01*
X164480Y250443D01*
Y249557D01*
X164709Y248702D01*
X165152Y247936D01*
X165778Y247310D01*
X166545Y246867D01*
X167400Y246638D01*
X168285D01*
X169140Y246867D01*
X169907Y247310D01*
X170533Y247936D01*
X170976Y248702D01*
X171205Y249557D01*
Y250443D01*
X170976Y251298D01*
X170533Y252064D01*
X169907Y252690D01*
X169140Y253133D01*
X168285Y253362D01*
D02*
G37*
G36*
X151520D02*
X144795D01*
Y246638D01*
X151520D01*
Y253362D01*
D02*
G37*
G36*
X332494Y253756D02*
X331505D01*
X330550Y253500D01*
X329694Y253006D01*
X328994Y252306D01*
X328500Y251450D01*
X328244Y250495D01*
Y249505D01*
X328500Y248550D01*
X328994Y247694D01*
X329694Y246994D01*
X330550Y246500D01*
X331505Y246244D01*
X332494D01*
X333450Y246500D01*
X334306Y246994D01*
X335005Y247694D01*
X335500Y248550D01*
X335756Y249505D01*
Y250495D01*
X335500Y251450D01*
X335005Y252306D01*
X334306Y253006D01*
X333450Y253500D01*
X332494Y253756D01*
D02*
G37*
G36*
X252655Y313306D02*
X251733D01*
X250843Y313067D01*
X250045Y312607D01*
X249394Y311955D01*
X248933Y311157D01*
X248694Y310267D01*
Y309345D01*
X248933Y308455D01*
X249394Y307657D01*
X249900Y307150D01*
Y289306D01*
X250075Y288428D01*
X250572Y287684D01*
X266000Y272256D01*
Y271539D01*
X266238Y270649D01*
X266699Y269851D01*
X267206Y269344D01*
Y258500D01*
X267380Y257622D01*
X267878Y256878D01*
X278000Y246756D01*
Y246039D01*
X278239Y245149D01*
X278699Y244351D01*
X279351Y243699D01*
X280149Y243238D01*
X281039Y243000D01*
X281961D01*
X282851Y243238D01*
X283649Y243699D01*
X284301Y244351D01*
X284762Y245149D01*
X285000Y246039D01*
Y246961D01*
X284762Y247851D01*
X284301Y248649D01*
X283649Y249301D01*
X282851Y249762D01*
X281961Y250000D01*
X281244D01*
X271794Y259450D01*
Y269344D01*
X272301Y269851D01*
X272762Y270649D01*
X273000Y271539D01*
Y272461D01*
X272762Y273351D01*
X272301Y274149D01*
X271649Y274801D01*
X270851Y275261D01*
X269961Y275500D01*
X269244D01*
X254488Y290256D01*
Y307150D01*
X254995Y307657D01*
X255456Y308455D01*
X255694Y309345D01*
Y310267D01*
X255456Y311157D01*
X254995Y311955D01*
X254343Y312607D01*
X253545Y313067D01*
X252655Y313306D01*
D02*
G37*
G36*
X202994Y246866D02*
X202006D01*
X201050Y246610D01*
X200194Y246116D01*
X199495Y245416D01*
X199000Y244560D01*
X198744Y243605D01*
Y242616D01*
X199000Y241660D01*
X199495Y240804D01*
X200194Y240105D01*
X201050Y239610D01*
X202006Y239354D01*
X202994D01*
X203950Y239610D01*
X204806Y240105D01*
X205505Y240804D01*
X206000Y241660D01*
X206256Y242616D01*
Y243605D01*
X206000Y244560D01*
X205505Y245416D01*
X204806Y246116D01*
X203950Y246610D01*
X202994Y246866D01*
D02*
G37*
G36*
X503943Y238902D02*
X503057D01*
X502202Y238672D01*
X501436Y238230D01*
X500810Y237604D01*
X500367Y236837D01*
X500138Y235982D01*
Y235097D01*
X500367Y234242D01*
X500810Y233475D01*
X501436Y232849D01*
X502202Y232406D01*
X503057Y232177D01*
X503943D01*
X504798Y232406D01*
X505564Y232849D01*
X506190Y233475D01*
X506633Y234242D01*
X506862Y235097D01*
Y235982D01*
X506633Y236837D01*
X506190Y237604D01*
X505564Y238230D01*
X504798Y238672D01*
X503943Y238902D01*
D02*
G37*
G36*
X267256Y236256D02*
X259744D01*
Y228744D01*
X267256D01*
Y236256D01*
D02*
G37*
G36*
X250215D02*
X249226D01*
X248271Y236000D01*
X247414Y235506D01*
X246715Y234806D01*
X246220Y233950D01*
X245965Y232995D01*
Y232006D01*
X246220Y231050D01*
X246715Y230194D01*
X247414Y229495D01*
X248271Y229000D01*
X249226Y228744D01*
X250215D01*
X251170Y229000D01*
X252027Y229495D01*
X252726Y230194D01*
X253220Y231050D01*
X253476Y232006D01*
Y232995D01*
X253220Y233950D01*
X252726Y234806D01*
X252027Y235506D01*
X251170Y236000D01*
X250215Y236256D01*
D02*
G37*
G36*
X333536Y233756D02*
X326024D01*
Y226244D01*
X333536D01*
Y233756D01*
D02*
G37*
G36*
X316494D02*
X315506D01*
X314550Y233500D01*
X313694Y233005D01*
X312995Y232306D01*
X312500Y231450D01*
X312244Y230494D01*
Y229505D01*
X312500Y228550D01*
X312995Y227694D01*
X313694Y226994D01*
X314550Y226500D01*
X315506Y226244D01*
X316494D01*
X317450Y226500D01*
X318306Y226994D01*
X319005Y227694D01*
X319500Y228550D01*
X319756Y229505D01*
Y230494D01*
X319500Y231450D01*
X319005Y232306D01*
X318306Y233005D01*
X317450Y233500D01*
X316494Y233756D01*
D02*
G37*
G36*
X222028Y227437D02*
X212154D01*
Y217563D01*
X222028D01*
Y227437D01*
D02*
G37*
G36*
X176559D02*
X175259D01*
X174004Y227101D01*
X172878Y226451D01*
X171959Y225531D01*
X171309Y224406D01*
X170972Y223150D01*
Y221850D01*
X171309Y220594D01*
X171959Y219469D01*
X172878Y218549D01*
X174004Y217899D01*
X175259Y217563D01*
X176559D01*
X177815Y217899D01*
X178941Y218549D01*
X179860Y219469D01*
X180510Y220594D01*
X180847Y221850D01*
Y223150D01*
X180510Y224406D01*
X179860Y225531D01*
X178941Y226451D01*
X177815Y227101D01*
X176559Y227437D01*
D02*
G37*
G36*
X148572Y222346D02*
X147428D01*
X146322Y222050D01*
X145331Y221478D01*
X144522Y220669D01*
X143950Y219678D01*
X143654Y218572D01*
Y217428D01*
X143950Y216322D01*
X144522Y215331D01*
X145331Y214522D01*
X146322Y213950D01*
X147428Y213653D01*
X148572D01*
X149678Y213950D01*
X150669Y214522D01*
X151478Y215331D01*
X152050Y216322D01*
X152347Y217428D01*
Y218572D01*
X152050Y219678D01*
X151478Y220669D01*
X150669Y221478D01*
X149678Y222050D01*
X148572Y222346D01*
D02*
G37*
G36*
X477443Y215362D02*
X476557D01*
X475702Y215133D01*
X474936Y214690D01*
X474310Y214064D01*
X473867Y213298D01*
X473638Y212443D01*
Y211557D01*
X473867Y210702D01*
X474310Y209936D01*
X474936Y209310D01*
X475702Y208867D01*
X476557Y208638D01*
X477443D01*
X478298Y208867D01*
X479064Y209310D01*
X479690Y209936D01*
X480133Y210702D01*
X480362Y211557D01*
Y212443D01*
X480133Y213298D01*
X479690Y214064D01*
X479064Y214690D01*
X478298Y215133D01*
X477443Y215362D01*
D02*
G37*
G36*
X586461Y312598D02*
X579539D01*
Y308922D01*
X575378Y304760D01*
X574881Y304016D01*
X574706Y303138D01*
Y287000D01*
X574881Y286122D01*
X575378Y285378D01*
X582206Y278550D01*
Y271450D01*
X576453Y265697D01*
X576053Y266004D01*
X576225Y266302D01*
X576461Y267182D01*
Y268093D01*
X576225Y268973D01*
X575769Y269763D01*
X575125Y270407D01*
X574336Y270863D01*
X573456Y271098D01*
X572544D01*
X571664Y270863D01*
X570875Y270407D01*
X570400Y269932D01*
X564138D01*
X563260Y269757D01*
X562516Y269260D01*
X551378Y258122D01*
X550881Y257378D01*
X550706Y256500D01*
Y205950D01*
X529550Y184794D01*
X509950D01*
X491122Y203622D01*
X490378Y204119D01*
X489500Y204294D01*
X439407D01*
X421318Y222383D01*
X420574Y222880D01*
X419696Y223055D01*
X416689D01*
X405500Y234244D01*
Y234961D01*
X405262Y235851D01*
X404801Y236649D01*
X404149Y237301D01*
X403351Y237761D01*
X402461Y238000D01*
X401539D01*
X400649Y237761D01*
X399851Y237301D01*
X399199Y236649D01*
X398739Y235851D01*
X398500Y234961D01*
Y234039D01*
X398739Y233149D01*
X399199Y232351D01*
X399851Y231699D01*
X400649Y231239D01*
X401539Y231000D01*
X402256D01*
X414117Y219139D01*
X414861Y218641D01*
X415739Y218467D01*
X418746D01*
X436835Y200378D01*
X437579Y199881D01*
X438457Y199706D01*
X488550D01*
X507378Y180878D01*
X508122Y180380D01*
X509000Y180206D01*
X530500D01*
X531378Y180380D01*
X532122Y180878D01*
X554622Y203378D01*
X555120Y204122D01*
X555294Y205000D01*
Y255550D01*
X565088Y265344D01*
X570400D01*
X570875Y264869D01*
X571664Y264413D01*
X572544Y264177D01*
X573456D01*
X574336Y264413D01*
X574634Y264585D01*
X574940Y264185D01*
X569378Y258622D01*
X568881Y257878D01*
X568706Y257000D01*
Y137415D01*
X568585Y137294D01*
X283450D01*
X274294Y146450D01*
Y182050D01*
X277622Y185378D01*
X278119Y186122D01*
X278294Y187000D01*
Y223550D01*
X295622Y240878D01*
X296119Y241622D01*
X296294Y242500D01*
Y279469D01*
X296355Y279494D01*
X296794Y279553D01*
X297199Y278851D01*
X297706Y278344D01*
Y172156D01*
X297199Y171649D01*
X296739Y170851D01*
X296500Y169961D01*
Y169039D01*
X296739Y168149D01*
X297199Y167351D01*
X297851Y166699D01*
X298649Y166238D01*
X299539Y166000D01*
X300256D01*
X308392Y157864D01*
X309136Y157367D01*
X310014Y157192D01*
X327063D01*
X330236Y154019D01*
Y150736D01*
X336764D01*
Y157264D01*
X333481D01*
X329636Y161108D01*
X328892Y161606D01*
X328014Y161780D01*
X326565D01*
X326276Y162280D01*
X326541Y162740D01*
X326764Y163570D01*
Y164430D01*
X326541Y165260D01*
X326112Y166004D01*
X325794Y166322D01*
Y170550D01*
X328280Y173035D01*
X328777Y173779D01*
X328952Y174657D01*
Y194138D01*
X330020D01*
Y195206D01*
X339820D01*
X340698Y195380D01*
X341442Y195878D01*
X342498Y196934D01*
X343054Y196783D01*
X343209Y196202D01*
X343652Y195436D01*
X344278Y194810D01*
X345045Y194367D01*
X345900Y194138D01*
X346785D01*
X347640Y194367D01*
X348407Y194810D01*
X349033Y195436D01*
X349476Y196202D01*
X349705Y197057D01*
Y197943D01*
X349476Y198798D01*
X349033Y199564D01*
X348407Y200190D01*
X347640Y200633D01*
X347060Y200789D01*
X346908Y201344D01*
X354231Y208666D01*
X365539D01*
X365936Y208270D01*
X366702Y207827D01*
X367557Y207598D01*
X368443D01*
X369298Y207827D01*
X370064Y208270D01*
X370690Y208896D01*
X371133Y209663D01*
X371362Y210518D01*
Y211403D01*
X371133Y212258D01*
X370690Y213025D01*
X370064Y213651D01*
X369298Y214094D01*
X368443Y214323D01*
X367557D01*
X366702Y214094D01*
X365936Y213651D01*
X365539Y213255D01*
X353280D01*
X352402Y213080D01*
X351658Y212583D01*
X338870Y199794D01*
X330020D01*
Y200862D01*
X323295D01*
Y194138D01*
X324363D01*
Y175608D01*
X321878Y173122D01*
X321380Y172378D01*
X321206Y171500D01*
Y166322D01*
X320888Y166004D01*
X320459Y165260D01*
X320236Y164430D01*
Y163570D01*
X320459Y162740D01*
X320724Y162280D01*
X320435Y161780D01*
X310964D01*
X303500Y169244D01*
Y169961D01*
X303261Y170851D01*
X302801Y171649D01*
X302294Y172156D01*
Y278344D01*
X302801Y278851D01*
X303261Y279649D01*
X303500Y280539D01*
Y281461D01*
X303261Y282351D01*
X302801Y283149D01*
X302294Y283656D01*
Y297500D01*
X302119Y298378D01*
X301622Y299122D01*
X296500Y304244D01*
Y304961D01*
X296262Y305851D01*
X295801Y306649D01*
X295149Y307301D01*
X294351Y307762D01*
X293461Y308000D01*
X292539D01*
X291649Y307762D01*
X290851Y307301D01*
X290199Y306649D01*
X289738Y305851D01*
X289500Y304961D01*
Y304039D01*
X289738Y303149D01*
X290199Y302351D01*
X290851Y301699D01*
X291649Y301238D01*
X292539Y301000D01*
X293256D01*
X297706Y296550D01*
Y283656D01*
X297199Y283149D01*
X296794Y282447D01*
X296355Y282506D01*
X296294Y282531D01*
Y285500D01*
X296119Y286378D01*
X295622Y287122D01*
X289122Y293622D01*
X288378Y294120D01*
X287500Y294294D01*
X284240D01*
X284163Y294427D01*
X283427Y295163D01*
X282526Y295683D01*
X281520Y295953D01*
X280480D01*
X279474Y295683D01*
X278573Y295163D01*
X277837Y294427D01*
X277317Y293526D01*
X277047Y292520D01*
Y291480D01*
X277317Y290474D01*
X277837Y289573D01*
X278573Y288837D01*
X279474Y288317D01*
X280480Y288047D01*
X281520D01*
X282526Y288317D01*
X283427Y288837D01*
X284163Y289573D01*
X284240Y289706D01*
X286550D01*
X291706Y284550D01*
Y243450D01*
X274378Y226122D01*
X273881Y225378D01*
X273706Y224500D01*
Y187950D01*
X270378Y184622D01*
X269881Y183878D01*
X269706Y183000D01*
Y145500D01*
X269881Y144622D01*
X270378Y143878D01*
X280878Y133378D01*
X281622Y132880D01*
X282500Y132706D01*
X569535D01*
X570413Y132880D01*
X571158Y133378D01*
X572622Y134842D01*
X573119Y135587D01*
X573294Y136465D01*
Y256050D01*
X586122Y268878D01*
X586619Y269622D01*
X586794Y270500D01*
Y279500D01*
X586619Y280378D01*
X586122Y281122D01*
X579294Y287950D01*
Y302188D01*
X582784Y305677D01*
X586461D01*
Y312598D01*
D02*
G37*
G36*
X544994Y212756D02*
X544005D01*
X543050Y212500D01*
X542194Y212005D01*
X541495Y211306D01*
X541000Y210450D01*
X540744Y209494D01*
Y208506D01*
X541000Y207550D01*
X541495Y206694D01*
X542194Y205995D01*
X543050Y205500D01*
X544005Y205244D01*
X544994D01*
X545950Y205500D01*
X546806Y205995D01*
X547506Y206694D01*
X548000Y207550D01*
X548256Y208506D01*
Y209494D01*
X548000Y210450D01*
X547506Y211306D01*
X546806Y212005D01*
X545950Y212500D01*
X544994Y212756D01*
D02*
G37*
G36*
X148572Y212347D02*
X147428D01*
X146322Y212050D01*
X145331Y211478D01*
X144522Y210669D01*
X143950Y209678D01*
X143654Y208572D01*
Y207428D01*
X143950Y206322D01*
X144522Y205331D01*
X145331Y204522D01*
X146322Y203950D01*
X147428Y203654D01*
X148572D01*
X149678Y203950D01*
X150669Y204522D01*
X151478Y205331D01*
X152050Y206322D01*
X152347Y207428D01*
Y208572D01*
X152050Y209678D01*
X151478Y210669D01*
X150669Y211478D01*
X149678Y212050D01*
X148572Y212347D01*
D02*
G37*
G36*
X294346Y205847D02*
X285653D01*
Y197153D01*
X294346D01*
Y205847D01*
D02*
G37*
G36*
X177150Y205528D02*
X175850D01*
X174594Y205191D01*
X173469Y204541D01*
X172549Y203622D01*
X171899Y202496D01*
X171563Y201240D01*
Y199941D01*
X171899Y198685D01*
X172549Y197559D01*
X173469Y196640D01*
X174594Y195990D01*
X175850Y195653D01*
X177150D01*
X178406Y195990D01*
X179531Y196640D01*
X180451Y197559D01*
X181101Y198685D01*
X181437Y199941D01*
Y201240D01*
X181101Y202496D01*
X180451Y203622D01*
X179531Y204541D01*
X178406Y205191D01*
X177150Y205528D01*
D02*
G37*
G36*
X152347Y202346D02*
X143654D01*
Y193654D01*
X152347D01*
Y202346D01*
D02*
G37*
G36*
X218150Y203028D02*
X216850D01*
X215594Y202691D01*
X214469Y202041D01*
X213549Y201122D01*
X212899Y199996D01*
X212563Y198740D01*
Y197441D01*
X212899Y196185D01*
X213549Y195059D01*
X214469Y194140D01*
X215594Y193490D01*
X216850Y193154D01*
X218150D01*
X219406Y193490D01*
X220531Y194140D01*
X221451Y195059D01*
X222101Y196185D01*
X222437Y197441D01*
Y198740D01*
X222101Y199996D01*
X221451Y201122D01*
X220531Y202041D01*
X219406Y202691D01*
X218150Y203028D01*
D02*
G37*
G36*
X526443Y196402D02*
X525557D01*
X524702Y196172D01*
X523936Y195730D01*
X523310Y195104D01*
X522867Y194337D01*
X522638Y193482D01*
Y192597D01*
X522867Y191742D01*
X523310Y190975D01*
X523936Y190349D01*
X524702Y189906D01*
X525557Y189677D01*
X526443D01*
X527298Y189906D01*
X528064Y190349D01*
X528690Y190975D01*
X529133Y191742D01*
X529362Y192597D01*
Y193482D01*
X529133Y194337D01*
X528690Y195104D01*
X528064Y195730D01*
X527298Y196172D01*
X526443Y196402D01*
D02*
G37*
G36*
X264384Y196756D02*
X263395D01*
X262440Y196500D01*
X261584Y196005D01*
X260884Y195306D01*
X260390Y194450D01*
X260134Y193494D01*
Y192506D01*
X260390Y191550D01*
X260884Y190694D01*
X261584Y189995D01*
X262440Y189500D01*
X263395Y189244D01*
X264384D01*
X265339Y189500D01*
X266196Y189995D01*
X266895Y190694D01*
X267390Y191550D01*
X267646Y192506D01*
Y193494D01*
X267390Y194450D01*
X266895Y195306D01*
X266196Y196005D01*
X265339Y196500D01*
X264384Y196756D01*
D02*
G37*
G36*
X253866D02*
X246354D01*
Y189244D01*
X253866D01*
Y196756D01*
D02*
G37*
G36*
X290572Y195846D02*
X289428D01*
X288322Y195550D01*
X287331Y194978D01*
X286522Y194169D01*
X285950Y193178D01*
X285653Y192072D01*
Y190928D01*
X285950Y189822D01*
X286522Y188831D01*
X287331Y188022D01*
X288322Y187450D01*
X289428Y187153D01*
X290572D01*
X291678Y187450D01*
X292669Y188022D01*
X293478Y188831D01*
X294050Y189822D01*
X294346Y190928D01*
Y192072D01*
X294050Y193178D01*
X293478Y194169D01*
X292669Y194978D01*
X291678Y195550D01*
X290572Y195846D01*
D02*
G37*
G36*
X553495Y190756D02*
X552505D01*
X551550Y190500D01*
X550694Y190006D01*
X549995Y189306D01*
X549500Y188450D01*
X549244Y187495D01*
Y186505D01*
X549500Y185550D01*
X549995Y184694D01*
X550694Y183994D01*
X551550Y183500D01*
X552505Y183244D01*
X553495D01*
X554450Y183500D01*
X555306Y183994D01*
X556005Y184694D01*
X556500Y185550D01*
X556756Y186505D01*
Y187495D01*
X556500Y188450D01*
X556005Y189306D01*
X555306Y190006D01*
X554450Y190500D01*
X553495Y190756D01*
D02*
G37*
G36*
X448362Y186205D02*
X441638D01*
Y179480D01*
X448362D01*
Y186205D01*
D02*
G37*
G36*
X426020Y186953D02*
X424980D01*
X423974Y186683D01*
X423073Y186163D01*
X422337Y185427D01*
X421817Y184526D01*
X421547Y183520D01*
Y182480D01*
X421817Y181474D01*
X422337Y180573D01*
X423073Y179837D01*
X423974Y179317D01*
X424980Y179047D01*
X426020D01*
X427026Y179317D01*
X427927Y179837D01*
X428663Y180573D01*
X429183Y181474D01*
X429453Y182480D01*
Y183520D01*
X429183Y184526D01*
X428663Y185427D01*
X427927Y186163D01*
X427026Y186683D01*
X426020Y186953D01*
D02*
G37*
G36*
X399453D02*
X391547D01*
Y179047D01*
X399453D01*
Y186953D01*
D02*
G37*
G36*
X290572Y185846D02*
X289428D01*
X288322Y185550D01*
X287331Y184978D01*
X286522Y184169D01*
X285950Y183178D01*
X285653Y182072D01*
Y180928D01*
X285950Y179822D01*
X286522Y178831D01*
X287331Y178022D01*
X288322Y177450D01*
X289428Y177154D01*
X290572D01*
X291678Y177450D01*
X292669Y178022D01*
X293478Y178831D01*
X294050Y179822D01*
X294346Y180928D01*
Y182072D01*
X294050Y183178D01*
X293478Y184169D01*
X292669Y184978D01*
X291678Y185550D01*
X290572Y185846D01*
D02*
G37*
G36*
X346461Y177500D02*
X345539D01*
X344649Y177261D01*
X343851Y176801D01*
X343344Y176294D01*
X335822D01*
X335504Y176612D01*
X334760Y177041D01*
X333930Y177264D01*
X333070D01*
X332240Y177041D01*
X331496Y176612D01*
X330888Y176004D01*
X330459Y175260D01*
X330236Y174430D01*
Y173570D01*
X330459Y172740D01*
X330888Y171996D01*
X331496Y171388D01*
X332240Y170958D01*
X333070Y170736D01*
X333930D01*
X334760Y170958D01*
X335504Y171388D01*
X335822Y171706D01*
X343344D01*
X343851Y171199D01*
X344649Y170738D01*
X345539Y170500D01*
X346461D01*
X347351Y170738D01*
X348149Y171199D01*
X348801Y171851D01*
X349261Y172649D01*
X349500Y173539D01*
Y174461D01*
X349261Y175351D01*
X348801Y176149D01*
X348149Y176801D01*
X347351Y177261D01*
X346461Y177500D01*
D02*
G37*
G36*
X426020Y176953D02*
X424980D01*
X423974Y176683D01*
X423073Y176163D01*
X422337Y175427D01*
X421817Y174526D01*
X421547Y173520D01*
Y172480D01*
X421817Y171474D01*
X422337Y170573D01*
X423073Y169837D01*
X423974Y169317D01*
X424980Y169047D01*
X426020D01*
X427026Y169317D01*
X427927Y169837D01*
X428663Y170573D01*
X429183Y171474D01*
X429453Y172480D01*
Y173520D01*
X429183Y174526D01*
X428663Y175427D01*
X427927Y176163D01*
X427026Y176683D01*
X426020Y176953D01*
D02*
G37*
G36*
X396020D02*
X394980D01*
X393974Y176683D01*
X393073Y176163D01*
X392337Y175427D01*
X391817Y174526D01*
X391547Y173520D01*
Y172480D01*
X391817Y171474D01*
X392337Y170573D01*
X393073Y169837D01*
X393974Y169317D01*
X394980Y169047D01*
X396020D01*
X397026Y169317D01*
X397927Y169837D01*
X398663Y170573D01*
X399183Y171474D01*
X399453Y172480D01*
Y173520D01*
X399183Y174526D01*
X398663Y175427D01*
X397927Y176163D01*
X397026Y176683D01*
X396020Y176953D01*
D02*
G37*
G36*
X526495Y174256D02*
X525505D01*
X524550Y174000D01*
X523694Y173505D01*
X522995Y172806D01*
X522500Y171950D01*
X522244Y170994D01*
Y170006D01*
X522500Y169050D01*
X522995Y168194D01*
X523694Y167494D01*
X524550Y167000D01*
X525505Y166744D01*
X526495D01*
X527450Y167000D01*
X528306Y167494D01*
X529005Y168194D01*
X529500Y169050D01*
X529756Y170006D01*
Y170994D01*
X529500Y171950D01*
X529005Y172806D01*
X528306Y173505D01*
X527450Y174000D01*
X526495Y174256D01*
D02*
G37*
G36*
X586461Y261098D02*
X579539D01*
Y254177D01*
X580706D01*
Y168176D01*
X580881Y167299D01*
X581378Y166554D01*
X583600Y164332D01*
X583500Y163961D01*
Y163039D01*
X583739Y162149D01*
X584199Y161351D01*
X584851Y160699D01*
X585649Y160239D01*
X586539Y160000D01*
X587461D01*
X588351Y160239D01*
X589149Y160699D01*
X589801Y161351D01*
X590262Y162149D01*
X590500Y163039D01*
Y163961D01*
X590262Y164851D01*
X589801Y165649D01*
X589149Y166301D01*
X588351Y166762D01*
X587461Y167000D01*
X587421D01*
X585294Y169127D01*
Y254177D01*
X586461D01*
Y261098D01*
D02*
G37*
G36*
X445443Y166520D02*
X444557D01*
X443702Y166290D01*
X442936Y165848D01*
X442310Y165222D01*
X441867Y164455D01*
X441638Y163600D01*
Y162715D01*
X441867Y161860D01*
X442310Y161093D01*
X442936Y160467D01*
X443702Y160024D01*
X444557Y159795D01*
X445443D01*
X446298Y160024D01*
X447064Y160467D01*
X447690Y161093D01*
X448133Y161860D01*
X448362Y162715D01*
Y163600D01*
X448133Y164455D01*
X447690Y165222D01*
X447064Y165848D01*
X446298Y166290D01*
X445443Y166520D01*
D02*
G37*
G36*
X426020Y166953D02*
X424980D01*
X423974Y166683D01*
X423073Y166163D01*
X422337Y165427D01*
X421817Y164526D01*
X421547Y163520D01*
Y162480D01*
X421817Y161474D01*
X422337Y160573D01*
X423073Y159837D01*
X423974Y159317D01*
X424980Y159047D01*
X426020D01*
X427026Y159317D01*
X427927Y159837D01*
X428663Y160573D01*
X429183Y161474D01*
X429453Y162480D01*
Y163520D01*
X429183Y164526D01*
X428663Y165427D01*
X427927Y166163D01*
X427026Y166683D01*
X426020Y166953D01*
D02*
G37*
G36*
X396020D02*
X394980D01*
X393974Y166683D01*
X393073Y166163D01*
X392337Y165427D01*
X391817Y164526D01*
X391547Y163520D01*
Y162480D01*
X391817Y161474D01*
X392337Y160573D01*
X393073Y159837D01*
X393974Y159317D01*
X394980Y159047D01*
X396020D01*
X397026Y159317D01*
X397927Y159837D01*
X398663Y160573D01*
X399183Y161474D01*
X399453Y162480D01*
Y163520D01*
X399183Y164526D01*
X398663Y165427D01*
X397927Y166163D01*
X397026Y166683D01*
X396020Y166953D01*
D02*
G37*
G36*
X181437Y164347D02*
X171563D01*
Y154472D01*
X181437D01*
Y164347D01*
D02*
G37*
G36*
X553495Y160756D02*
X552505D01*
X551550Y160500D01*
X550694Y160005D01*
X549995Y159306D01*
X549500Y158450D01*
X549244Y157494D01*
Y156506D01*
X549500Y155550D01*
X549995Y154694D01*
X550694Y153995D01*
X551550Y153500D01*
X552505Y153244D01*
X553495D01*
X554450Y153500D01*
X555306Y153995D01*
X556005Y154694D01*
X556500Y155550D01*
X556756Y156506D01*
Y157494D01*
X556500Y158450D01*
X556005Y159306D01*
X555306Y160005D01*
X554450Y160500D01*
X553495Y160756D01*
D02*
G37*
G36*
X529756Y160476D02*
X522244D01*
Y152964D01*
X529756D01*
Y160476D01*
D02*
G37*
G36*
X147059Y160059D02*
X139941D01*
Y152941D01*
X147059D01*
Y160059D01*
D02*
G37*
G36*
X222437Y161846D02*
X212563D01*
Y151972D01*
X222437D01*
Y161846D01*
D02*
G37*
G36*
X259884Y158256D02*
X258895D01*
X257940Y158000D01*
X257084Y157506D01*
X256384Y156806D01*
X255890Y155950D01*
X255634Y154994D01*
Y154006D01*
X255890Y153050D01*
X256384Y152194D01*
X257084Y151495D01*
X257940Y151000D01*
X258895Y150744D01*
X259884D01*
X260840Y151000D01*
X261696Y151495D01*
X262395Y152194D01*
X262890Y153050D01*
X263146Y154006D01*
Y154994D01*
X262890Y155950D01*
X262395Y156806D01*
X261696Y157506D01*
X260840Y158000D01*
X259884Y158256D01*
D02*
G37*
G36*
X249366D02*
X241854D01*
Y150744D01*
X249366D01*
Y158256D01*
D02*
G37*
G36*
X301705Y157362D02*
X294980D01*
Y150638D01*
X301705D01*
Y157362D01*
D02*
G37*
G36*
X279100D02*
X278215D01*
X277360Y157133D01*
X276593Y156690D01*
X275967Y156064D01*
X275524Y155298D01*
X275295Y154443D01*
Y153557D01*
X275524Y152702D01*
X275967Y151936D01*
X276593Y151310D01*
X277360Y150867D01*
X278215Y150638D01*
X279100D01*
X279955Y150867D01*
X280722Y151310D01*
X281348Y151936D01*
X281790Y152702D01*
X282020Y153557D01*
Y154443D01*
X281790Y155298D01*
X281348Y156064D01*
X280722Y156690D01*
X279955Y157133D01*
X279100Y157362D01*
D02*
G37*
G36*
X426020Y156953D02*
X424980D01*
X423974Y156683D01*
X423073Y156163D01*
X422337Y155427D01*
X421817Y154526D01*
X421547Y153520D01*
Y152480D01*
X421817Y151474D01*
X422337Y150573D01*
X423073Y149837D01*
X423974Y149317D01*
X424980Y149047D01*
X426020D01*
X427026Y149317D01*
X427927Y149837D01*
X428663Y150573D01*
X429183Y151474D01*
X429453Y152480D01*
Y153520D01*
X429183Y154526D01*
X428663Y155427D01*
X427927Y156163D01*
X427026Y156683D01*
X426020Y156953D01*
D02*
G37*
G36*
X396020D02*
X394980D01*
X393974Y156683D01*
X393073Y156163D01*
X392337Y155427D01*
X391817Y154526D01*
X391547Y153520D01*
Y152480D01*
X391817Y151474D01*
X392337Y150573D01*
X393073Y149837D01*
X393974Y149317D01*
X394980Y149047D01*
X396020D01*
X397026Y149317D01*
X397927Y149837D01*
X398663Y150573D01*
X399183Y151474D01*
X399453Y152480D01*
Y153520D01*
X399183Y154526D01*
X398663Y155427D01*
X397927Y156163D01*
X397026Y156683D01*
X396020Y156953D01*
D02*
G37*
G36*
X143969Y152185D02*
X143031D01*
X142126Y151943D01*
X141315Y151474D01*
X140652Y150811D01*
X140183Y150000D01*
X139941Y149095D01*
Y148157D01*
X140183Y147252D01*
X140652Y146441D01*
X141315Y145778D01*
X142126Y145309D01*
X143031Y145067D01*
X143969D01*
X144874Y145309D01*
X145685Y145778D01*
X146348Y146441D01*
X146817Y147252D01*
X147059Y148157D01*
Y149095D01*
X146817Y150000D01*
X146348Y150811D01*
X145685Y151474D01*
X144874Y151943D01*
X143969Y152185D01*
D02*
G37*
G36*
X477443Y150402D02*
X476557D01*
X475702Y150172D01*
X474936Y149730D01*
X474310Y149104D01*
X473867Y148337D01*
X473638Y147482D01*
Y146597D01*
X473867Y145742D01*
X474310Y144975D01*
X474936Y144349D01*
X475702Y143906D01*
X476557Y143677D01*
X477443D01*
X478298Y143906D01*
X479064Y144349D01*
X479690Y144975D01*
X480133Y145742D01*
X480362Y146597D01*
Y147482D01*
X480133Y148337D01*
X479690Y149104D01*
X479064Y149730D01*
X478298Y150172D01*
X477443Y150402D01*
D02*
G37*
G36*
X368443Y149362D02*
X367557D01*
X366702Y149133D01*
X365936Y148690D01*
X365310Y148064D01*
X364867Y147298D01*
X364638Y146443D01*
Y145557D01*
X364867Y144702D01*
X365310Y143936D01*
X365936Y143310D01*
X366702Y142867D01*
X367557Y142638D01*
X368443D01*
X369298Y142867D01*
X370064Y143310D01*
X370690Y143936D01*
X371133Y144702D01*
X371362Y145557D01*
Y146443D01*
X371133Y147298D01*
X370690Y148064D01*
X370064Y148690D01*
X369298Y149133D01*
X368443Y149362D01*
D02*
G37*
G36*
X143969Y144311D02*
X143031D01*
X142126Y144069D01*
X141315Y143600D01*
X140652Y142937D01*
X140183Y142126D01*
X139941Y141221D01*
Y140283D01*
X140183Y139378D01*
X140652Y138567D01*
X141315Y137904D01*
X142126Y137435D01*
X143031Y137193D01*
X143969D01*
X144874Y137435D01*
X145685Y137904D01*
X146348Y138567D01*
X146817Y139378D01*
X147059Y140283D01*
Y141221D01*
X146817Y142126D01*
X146348Y142937D01*
X145685Y143600D01*
X144874Y144069D01*
X143969Y144311D01*
D02*
G37*
G36*
X222528Y145437D02*
X212653D01*
Y135563D01*
X222528D01*
Y145437D01*
D02*
G37*
G36*
X177059D02*
X175759D01*
X174504Y145101D01*
X173378Y144451D01*
X172459Y143531D01*
X171809Y142406D01*
X171472Y141150D01*
Y139850D01*
X171809Y138594D01*
X172459Y137469D01*
X173378Y136549D01*
X174504Y135899D01*
X175759Y135563D01*
X177059D01*
X178315Y135899D01*
X179441Y136549D01*
X180360Y137469D01*
X181010Y138594D01*
X181346Y139850D01*
Y141150D01*
X181010Y142406D01*
X180360Y143531D01*
X179441Y144451D01*
X178315Y145101D01*
X177059Y145437D01*
D02*
G37*
%LPD*%
D19*
X526000Y296843D02*
D03*
X368000Y210961D02*
D03*
Y146000D02*
D03*
X346342Y197500D02*
D03*
X503500Y300500D02*
D03*
Y235539D02*
D03*
X243461Y298500D02*
D03*
X178500D02*
D03*
X477000Y147039D02*
D03*
Y212000D02*
D03*
X445000Y163157D02*
D03*
X526000Y258000D02*
D03*
Y193039D02*
D03*
X167843Y250000D02*
D03*
X278657Y154000D02*
D03*
X163500Y330500D02*
D03*
X228461D02*
D03*
D20*
X526000Y277157D02*
D03*
X445000Y182843D02*
D03*
D30*
X326657Y197500D02*
D03*
X148157Y250000D02*
D03*
X298343Y154000D02*
D03*
D31*
X323500Y164000D02*
D03*
X333500Y174000D02*
D03*
D32*
Y154000D02*
D03*
D33*
X152500Y389500D02*
D03*
D34*
Y408000D02*
D03*
Y426500D02*
D03*
D36*
X240000Y470000D02*
D03*
X230000D02*
D03*
X203000Y416500D02*
D03*
Y426500D02*
D03*
D37*
X220000Y470000D02*
D03*
D44*
X203000Y406500D02*
D03*
D46*
X143500Y156500D02*
D03*
D47*
X152500Y351500D02*
D03*
X142500D02*
D03*
X143500Y148626D02*
D03*
Y140752D02*
D03*
D52*
X577000Y287000D02*
Y303138D01*
X571000Y257000D02*
X584500Y270500D01*
X577000Y287000D02*
X584500Y279500D01*
Y270500D02*
Y279500D01*
X282500Y135000D02*
X569535D01*
X571000Y136465D02*
Y257000D01*
X569535Y135000D02*
X571000Y136465D01*
X577000Y303138D02*
X583000Y309138D01*
X564138Y267638D02*
X573000D01*
X553000Y256500D02*
X564138Y267638D01*
X530500Y182500D02*
X553000Y205000D01*
Y256500D01*
X509000Y182500D02*
X530500D01*
X544500Y239000D02*
Y297300D01*
X583000Y168176D02*
Y257638D01*
Y168176D02*
X587000Y164176D01*
Y163500D02*
Y164176D01*
X544500Y297300D02*
X566338Y319138D01*
X573000D01*
Y338000D01*
X570825Y338463D02*
X572537D01*
X573000Y338000D01*
X570788Y338500D02*
X570825Y338463D01*
X520000Y338500D02*
X570788D01*
X518500Y369500D02*
X542362D01*
X562862Y349000D01*
X489500Y202000D02*
X509000Y182500D01*
X541000Y401000D02*
X553000D01*
X441500Y434000D02*
X457000Y418500D01*
X554500D01*
X425500Y434000D02*
X441500D01*
X554500Y418500D02*
X563000Y410000D01*
Y401000D02*
Y410000D01*
X438457Y202000D02*
X489500D01*
X419696Y220761D02*
X438457Y202000D01*
X323500Y164000D02*
Y171500D01*
X353280Y210961D02*
X368000D01*
X339820Y197500D02*
X353280Y210961D01*
X326657Y197500D02*
X339820D01*
X333500Y174000D02*
X346000D01*
X415739Y220761D02*
X419696D01*
X402000Y234500D02*
X415739Y220761D01*
X323500Y171500D02*
X326657Y174657D01*
Y197500D01*
X300000Y281000D02*
Y297500D01*
Y169500D02*
Y281000D01*
X310014Y159486D02*
X328014D01*
X300000Y169500D02*
X310014Y159486D01*
X328014D02*
X333500Y154000D01*
X272000Y183000D02*
X276000Y187000D01*
X272000Y145500D02*
Y183000D01*
Y145500D02*
X282500Y135000D01*
X293000Y304500D02*
X300000Y297500D01*
X339500Y274000D02*
X345750Y267750D01*
X346000D01*
X152500Y408000D02*
X178500D01*
X183000Y433500D02*
X206500D01*
X213500Y426500D01*
X176000D02*
X183000Y433500D01*
X152500Y426500D02*
X176000D01*
X142500Y351500D02*
X152500Y361500D01*
Y389500D01*
X148500Y275000D02*
X165000Y291500D01*
Y299000D01*
X142500Y321500D02*
Y351500D01*
Y321500D02*
X165000Y299000D01*
X152500Y324500D02*
Y351500D01*
Y324500D02*
X178500Y298500D01*
X281000Y272000D02*
X281250Y271750D01*
X276000Y224500D02*
X294000Y242500D01*
X276000Y187000D02*
Y224500D01*
X409000Y369500D02*
X419000D01*
X403500Y364000D02*
X409000Y369500D01*
X401500Y327000D02*
X421500D01*
X467500Y334500D02*
X492500Y359500D01*
X500000D01*
X467500Y322000D02*
Y334500D01*
X298297Y369203D02*
X310885D01*
X339500Y340587D01*
X387500Y274000D02*
X407500Y254000D01*
X419000Y369500D02*
X433000Y355500D01*
Y338500D02*
Y355500D01*
X421500Y327000D02*
X433000Y338500D01*
X291250Y451750D02*
X291500Y452000D01*
X235750Y451750D02*
X291250D01*
X283500Y434000D02*
X301500Y452000D01*
X384012Y487500D02*
X418134Y453378D01*
X314500Y392000D02*
X342500Y364000D01*
X418134Y404635D02*
Y453378D01*
X418000Y404500D02*
X418134Y404635D01*
X232500Y386500D02*
X249500D01*
X252500Y407000D02*
Y430000D01*
X283500Y421500D02*
Y434000D01*
X219000Y358500D02*
Y373000D01*
X232500Y386500D01*
X213500Y426500D02*
X235022Y448022D01*
X288500Y379000D02*
X298297Y369203D01*
X320500Y435500D02*
Y441500D01*
X235022Y448022D02*
Y451022D01*
X235750Y451750D01*
X310000Y452000D02*
X320500Y441500D01*
X301500Y452000D02*
X310000D01*
X269500Y487500D02*
X384012D01*
X219000Y358500D02*
X229000Y348500D01*
X254000D01*
X252194Y289306D02*
Y309806D01*
X235000Y316500D02*
X258000D01*
X267500Y295000D02*
Y307000D01*
X252194Y289306D02*
X269500Y272000D01*
X258000Y316500D02*
X267500Y307000D01*
X364899Y349257D02*
X399485D01*
X344500Y328858D02*
X364899Y349257D01*
X399485D02*
X399493Y349250D01*
X342500Y364000D02*
X403500D01*
X269500Y258500D02*
Y272000D01*
Y258500D02*
X281500Y246500D01*
X294000Y242500D02*
Y285500D01*
X281000Y292000D02*
X287500D01*
X322000Y282000D02*
Y303218D01*
X299859Y325359D02*
X322000Y303218D01*
X287500Y292000D02*
X294000Y285500D01*
X344500Y280000D02*
Y322000D01*
Y328858D01*
X370185Y273685D02*
X371000D01*
X387500Y313000D02*
X401500Y327000D01*
X387500Y274000D02*
Y313000D01*
X339500Y274000D02*
Y340587D01*
D53*
X588500Y137500D02*
D03*
X134000Y130000D02*
D03*
X138500Y296500D02*
D03*
X136000Y459500D02*
D03*
X338500Y473500D02*
D03*
X581000Y467000D02*
D03*
D54*
X526000Y156720D02*
D03*
X202500Y256890D02*
D03*
D55*
X526000Y170500D02*
D03*
X544500Y239000D02*
D03*
Y209000D02*
D03*
X371000Y273685D02*
D03*
Y254000D02*
D03*
X332000Y250000D02*
D03*
Y280000D02*
D03*
X520000Y308500D02*
D03*
Y338500D02*
D03*
X426000Y319500D02*
D03*
Y349500D02*
D03*
X316000Y230000D02*
D03*
X368500Y404185D02*
D03*
Y384500D02*
D03*
X380500Y446500D02*
D03*
X410500D02*
D03*
X455500Y434000D02*
D03*
X425500D02*
D03*
X553000Y157000D02*
D03*
Y187000D02*
D03*
X511000Y401000D02*
D03*
X541000D02*
D03*
X518500Y369500D02*
D03*
X488500D02*
D03*
X178500Y275000D02*
D03*
X148500D02*
D03*
X249720Y232500D02*
D03*
X202500Y243110D02*
D03*
X259390Y154500D02*
D03*
X263890Y193000D02*
D03*
X254000Y275000D02*
D03*
X224000D02*
D03*
D56*
X553000Y401000D02*
D03*
X563000D02*
D03*
X178000Y470500D02*
D03*
X168000D02*
D03*
X233000Y416500D02*
D03*
Y426500D02*
D03*
D57*
X573000Y338000D02*
D03*
X563000Y348000D02*
D03*
Y257638D02*
D03*
X573000Y267638D02*
D03*
X563000Y309138D02*
D03*
X573000Y319138D02*
D03*
D58*
Y358000D02*
D03*
D59*
X583000Y257638D02*
D03*
Y309138D02*
D03*
D60*
X395500Y183000D02*
D03*
X281000Y302000D02*
D03*
X275000Y441500D02*
D03*
X485500Y302000D02*
D03*
X427500Y282500D02*
D03*
X403500Y420500D02*
D03*
X329000Y336000D02*
D03*
D61*
X395500Y173000D02*
D03*
Y163000D02*
D03*
Y153000D02*
D03*
X425500Y183000D02*
D03*
Y173000D02*
D03*
Y163000D02*
D03*
Y153000D02*
D03*
X311000Y272000D02*
D03*
Y282000D02*
D03*
Y292000D02*
D03*
Y302000D02*
D03*
X281000Y272000D02*
D03*
Y282000D02*
D03*
Y292000D02*
D03*
X275000Y431500D02*
D03*
Y421500D02*
D03*
Y411500D02*
D03*
Y401500D02*
D03*
Y391500D02*
D03*
Y381500D02*
D03*
X305000Y441500D02*
D03*
Y431500D02*
D03*
Y421500D02*
D03*
Y411500D02*
D03*
Y401500D02*
D03*
Y391500D02*
D03*
Y381500D02*
D03*
X455500Y332000D02*
D03*
Y322000D02*
D03*
Y312000D02*
D03*
Y302000D02*
D03*
X485500Y332000D02*
D03*
Y322000D02*
D03*
Y312000D02*
D03*
X457500Y252500D02*
D03*
Y262500D02*
D03*
Y272500D02*
D03*
Y282500D02*
D03*
X427500Y252500D02*
D03*
Y262500D02*
D03*
Y272500D02*
D03*
X247000Y334000D02*
D03*
X257000D02*
D03*
X267000D02*
D03*
X277000D02*
D03*
X287000D02*
D03*
X297000D02*
D03*
X307000D02*
D03*
X247000Y364000D02*
D03*
X257000D02*
D03*
X267000D02*
D03*
X277000D02*
D03*
X287000D02*
D03*
X297000D02*
D03*
X403500Y410500D02*
D03*
Y400500D02*
D03*
Y390500D02*
D03*
X433500Y420500D02*
D03*
Y410500D02*
D03*
Y400500D02*
D03*
Y390500D02*
D03*
X359000Y306000D02*
D03*
Y316000D02*
D03*
Y326000D02*
D03*
Y336000D02*
D03*
X329000Y306000D02*
D03*
Y316000D02*
D03*
Y326000D02*
D03*
D62*
X158000Y470500D02*
D03*
D63*
X307000Y364000D02*
D03*
D64*
X413000Y316409D02*
D03*
X442000Y321909D02*
D03*
X176409Y140500D02*
D03*
X176500Y200591D02*
D03*
X217500Y198091D02*
D03*
X175909Y222500D02*
D03*
D65*
X413000Y357591D02*
D03*
X442000Y363090D02*
D03*
X176500Y159409D02*
D03*
X217500Y156909D02*
D03*
D66*
X329780Y230000D02*
D03*
X263500Y232500D02*
D03*
X245610Y154500D02*
D03*
X250110Y193000D02*
D03*
D67*
X329000Y389220D02*
D03*
Y426780D02*
D03*
X339720Y435500D02*
D03*
X377280D02*
D03*
D68*
X233000Y406500D02*
D03*
D69*
X148000Y218000D02*
D03*
Y208000D02*
D03*
X290000Y191500D02*
D03*
Y181500D02*
D03*
D70*
X148000Y198000D02*
D03*
X290000Y201500D02*
D03*
D71*
X217590Y140500D02*
D03*
X217091Y222500D02*
D03*
D72*
X587000Y163500D02*
D03*
X346000Y174000D02*
D03*
X293000Y304500D02*
D03*
X346000Y267750D02*
D03*
X178500Y408000D02*
D03*
X269500Y487500D02*
D03*
X407500Y254000D02*
D03*
X344500Y280000D02*
D03*
X299859Y325359D02*
D03*
X402000Y234500D02*
D03*
X235000Y316500D02*
D03*
X267500Y295000D02*
D03*
X344500Y322000D02*
D03*
X288500Y379000D02*
D03*
X314500Y392000D02*
D03*
X418000Y404500D02*
D03*
X320500Y435500D02*
D03*
X291500Y452000D02*
D03*
X283500Y421500D02*
D03*
X399493Y349250D02*
D03*
X500000Y359500D02*
D03*
X467500Y322000D02*
D03*
X281500Y246500D02*
D03*
X300000Y169500D02*
D03*
X322000Y282000D02*
D03*
X300000Y281000D02*
D03*
X269500Y272000D02*
D03*
X213500Y426500D02*
D03*
X252194Y309806D02*
D03*
X254000Y348500D02*
D03*
X249500Y386500D02*
D03*
X252500Y430000D02*
D03*
X235500Y451500D02*
D03*
X252500Y407000D02*
D03*
M02*
